<?xml version="1.0" encoding="utf-8"?>
<!-- Generator: Adobe Illustrator 23.0.6, SVG Export Plug-In . SVG Version: 6.00 Build 0)  -->
<svg version="1.1" id="Layer_1" xmlns="http://www.w3.org/2000/svg" xmlns:xlink="http://www.w3.org/1999/xlink" x="0px" y="0px"
	 viewBox="0 0 252 252" style="enable-background:new 0 0 252 252;" xml:space="preserve">
<style type="text/css">
	.st0{fill-rule:evenodd;clip-rule:evenodd;fill:#FFFFFF;stroke:#666666;stroke-width:2;}
	.st1{fill:none;stroke:#CC0000;}
	.st2{fill-rule:evenodd;clip-rule:evenodd;fill:#CA2026;}
	.st3{filter:url(#Adobe_OpacityMaskFilter);}
	.st4{fill-rule:evenodd;clip-rule:evenodd;fill:#FFFFFF;}
	.st5{mask:url(#mask-2_1_);fill-rule:evenodd;clip-rule:evenodd;fill:#43494E;}
</style>
<title>Analytical KPI</title>
<desc>Created with Sketch.</desc>
<path id="Stroke-3" class="st0" d="M251,126c0,69-56,125-125,125C57,251,1,195,1,126C1,57,57,1,126,1C195,1,251,57,251,126z"/>
<path id="Stroke-7" class="st1" d="M226,126c0,55.2-44.8,100-100,100c-55.2,0-100-44.8-100-100S70.8,26,126,26
	C181.2,26,226,70.8,226,126z"/>
<path id="Fill-1" class="st2" d="M125.4,148.1c-2.4,0-4.3-1.9-4.3-4.3c0-2.4,1.9-4.3,4.3-4.3c2.4,0,4.3,1.9,4.3,4.3
	C129.8,146.2,127.8,148.1,125.4,148.1 M114.4,161.3c-4.2,0-7.6-3.4-7.6-7.6c0-4.2,3.4-7.6,7.6-7.6c4.2,0,7.6,3.4,7.6,7.6
	C122,157.9,118.6,161.3,114.4,161.3 M152.7,156.1l-4.3-8.4l-3.8-7.4c0,0-0.4,5.5-13.5-2.3c-13.8-8.2-23.2,0.7-23.2,0.8l-1.3,2.6
	l-0.2,0.4l-7.1,14.3c-0.9,1.9-0.7,3.9,0.7,5.6c1.3,1.7,3.5,2.6,5.9,2.6h40.3c2.4,0,4.6-1,5.9-2.6C153.4,160,153.6,157.9,152.7,156.1
	"/>
<path id="Fill-3" class="st2" d="M123.5,127.3c0,1.8-1.5,3.3-3.3,3.3c-1.8,0-3.3-1.5-3.3-3.3c0-1.8,1.5-3.3,3.3-3.3
	C122,124,123.5,125.5,123.5,127.3"/>
<g id="Clip-6">
</g>
<defs>
	<filter id="Adobe_OpacityMaskFilter" filterUnits="userSpaceOnUse" x="85" y="72" width="81.9" height="103.2">
		<feColorMatrix  type="matrix" values="1 0 0 0 0  0 1 0 0 0  0 0 1 0 0  0 0 0 1 0"/>
	</filter>
</defs>
<mask maskUnits="userSpaceOnUse" x="85" y="72" width="81.9" height="103.2" id="mask-2_1_">
	<g class="st3">
		<polygon id="path-1_1_" class="st4" points="85,72 166.9,72 166.9,175.2 85,175.2 		"/>
	</g>
</mask>
<path id="Fill-5" class="st5" d="M158.9,165.8c-1.8,2.3-4.8,3.6-8.1,3.6h-49.6c-3.3,0-6.3-1.3-8.1-3.6c-1.7-2.2-2-4.8-0.9-7.2
	l21.3-42.9c0.2-0.4,0.3-0.8,0.3-1.2v-4.9h8.6v-6.3h-8.6V94h8.6v-6.3h-8.6v-9.1h24.5v35.8c0,0.4,0.1,0.8,0.3,1.2l21.3,42.9
	C161,161,160.7,163.6,158.9,165.8 M165.7,156.2l-21-42.3V78.7h6.1V72h-49.5v6.7h6.1v35.2l-21,42.3c-2.1,4.3-1.6,9.2,1.5,13.1
	c3,3.8,8,6,13.3,6h49.6c5.4,0,10.3-2.2,13.3-6C167.2,165.4,167.8,160.5,165.7,156.2"/>
</svg>
