<?xml version="1.0" encoding="UTF-8"?>
<svg width="190px" height="17px" viewBox="0 0 190 17" version="1.1" xmlns="http://www.w3.org/2000/svg" xmlns:xlink="http://www.w3.org/1999/xlink">
    <!-- Generator: Sketch 53.1 (72631) - https://sketchapp.com -->
    <title>Group 8</title>
    <desc>Created with Sketch.</desc>
    <defs>
        <polygon id="path-1" points="0 16.1728462 189.998462 16.1728462 189.998462 -0.000230769231 0 -0.000230769231"></polygon>
    </defs>
    <g id="APX-Mobile" stroke="none" stroke-width="1" fill="none" fill-rule="evenodd">
        <g id="Home-Adaptive" transform="translate(-91.000000, -625.000000)">
            <g id="Group-8" transform="translate(91.000000, 625.000000)">
                <path d="M127.933308,10.0271538 L130.973308,10.0271538 L130.973308,2.821 L130.999462,2.821 L136.714077,10.0271538 L141.425615,10.0271538 L141.425615,0.110230769 L138.387154,0.110230769 L138.387154,7.31715385 L138.358692,7.31715385 L132.644846,0.110230769 L127.933308,0.110230769 L127.933308,10.0271538 Z M115.601,4.53407692 C115.601,3.30023077 115.902538,2.54638462 117.505615,2.54638462 L121.069462,2.54638462 C122.671769,2.54638462 122.974077,3.30023077 122.974077,4.53407692 L122.974077,5.60330769 C122.974077,7.04330769 122.671769,7.591 121.232538,7.591 L117.342538,7.591 C115.902538,7.591 115.601,7.04330769 115.601,5.60330769 L115.601,4.53407692 Z M112.480231,6.54946154 C112.480231,9.45330769 114.108692,10.1379231 116.848692,10.1379231 L121.725615,10.1379231 C124.466385,10.1379231 126.094846,9.45330769 126.094846,6.54946154 L126.094846,3.58792308 C126.094846,0.684076923 124.466385,0.000230769231 121.725615,0.000230769231 L116.848692,0.000230769231 C114.108692,0.000230769231 112.480231,0.684076923 112.480231,3.58792308 L112.480231,6.54946154 Z M99.7779231,2.57484615 L104.052538,2.57484615 L104.052538,10.0271538 L107.092538,10.0271538 L107.092538,2.57484615 L111.367923,2.57484615 L111.367923,0.110230769 L99.7779231,0.110230769 L99.7779231,2.57484615 Z M86.2979231,10.0271538 L89.3371538,10.0271538 L89.3371538,7.45176923 L94.1194615,7.45176923 C95.0648462,7.45176923 95.3663846,7.79407692 95.3663846,8.83484615 L95.3663846,10.0271538 L98.4063846,10.0271538 L98.4063846,8.34176923 C98.4063846,6.71253846 97.6533077,6.31407692 96.7494615,6.151 L96.7494615,6.12330769 C98.1463846,5.79484615 98.4479231,5.01330769 98.4479231,3.68484615 L98.4479231,3.05484615 C98.4479231,1.27484615 97.8186923,0.110230769 95.4771538,0.110230769 L86.2979231,0.110230769 L86.2979231,10.0271538 Z M89.3371538,2.57484615 L94.0925385,2.57484615 C95.0517692,2.57484615 95.4902308,2.73792308 95.4902308,3.61638462 L95.4902308,3.94638462 C95.4902308,4.65869231 95.1894615,4.98715385 94.3663846,4.98715385 L89.3371538,4.98715385 L89.3371538,2.57484615 Z M71.7479231,6.49561538 C71.7479231,8.95946154 73.021,10.1379231 75.8156154,10.1379231 L80.1725385,10.1379231 C82.9671538,10.1379231 84.241,8.95946154 84.241,6.49561538 L84.241,0.110230769 L81.2017692,0.110230769 L81.2017692,5.83715385 C81.2017692,7.09715385 80.7486923,7.591 79.5025385,7.591 L76.4871538,7.591 C75.2394615,7.591 74.7879231,7.09715385 74.7879231,5.83715385 L74.7879231,0.110230769 L71.7479231,0.110230769 L71.7479231,6.49561538 Z M60.2371538,2.49253846 L65.6233077,2.49253846 C66.1848462,2.49253846 66.5140769,2.69792308 66.5140769,3.27407692 C66.5140769,3.83561538 66.1848462,4.04330769 65.6233077,4.04330769 L60.2371538,4.04330769 L60.2371538,2.49253846 Z M60.2371538,6.09484615 L65.6917692,6.09484615 C66.3502308,6.09484615 66.7886923,6.24561538 66.7886923,6.91869231 C66.7886923,7.49407692 66.3502308,7.64484615 65.6917692,7.64484615 L60.2371538,7.64484615 L60.2371538,6.09484615 Z M57.1979231,10.0271538 L66.8833077,10.0271538 C68.6233077,10.0271538 69.9094615,9.57638462 69.9094615,7.39715385 C69.9094615,5.90407692 69.4163846,5.19330769 68.0894615,5.02792308 L68.0894615,4.98715385 C68.9371538,4.73946154 69.5533077,4.411 69.5533077,2.71176923 C69.5533077,0.767153846 68.3763846,0.110230769 65.9525385,0.110230769 L57.1979231,0.110230769 L57.1979231,10.0271538 Z M51.9379231,10.0271538 L54.9771538,10.0271538 L54.9771538,0.110230769 L51.9379231,0.110230769 L51.9379231,10.0271538 Z M40.6079231,10.0271538 L50.4840769,10.0271538 L50.4840769,7.47946154 L43.6471538,7.47946154 L43.6471538,0.110230769 L40.6079231,0.110230769 L40.6079231,10.0271538 Z M29.441,10.0271538 L39.3171538,10.0271538 L39.3171538,7.47946154 L32.4817692,7.47946154 L32.4817692,0.110230769 L29.441,0.110230769 L29.441,10.0271538 Z M20.9202308,2.41023077 L22.8917692,6.13869231 L19.001,6.13869231 L20.9202308,2.41023077 Z M13.5763846,10.0271538 L16.9733077,10.0271538 L17.8648462,8.27330769 L24.0286923,8.27330769 L24.9740769,10.0271538 L28.3579231,10.0271538 L22.9048462,0.110230769 L18.9463846,0.110230769 L13.5763846,10.0271538 Z M0.000230769231,10.0271538 L3.04023077,10.0271538 L3.04023077,6.27407692 L9.45330769,6.27407692 L9.45330769,10.0271538 L12.4933077,10.0271538 L12.4933077,0.110230769 L9.45330769,0.110230769 L9.45330769,3.64407692 L3.04023077,3.64407692 L3.04023077,0.110230769 L0.000230769231,0.110230769 L0.000230769231,10.0271538 Z" id="Fill-1" fill="#FFFFFF"></path>
                <mask id="mask-2" fill="white">
                    <use xlink:href="#path-1"></use>
                </mask>
                <g id="Clip-4"></g>
                <polygon id="Fill-3" fill="#FFFFFF" mask="url(#mask-2)" points="156.126923 16.1728462 157.157692 16.1728462 157.157692 0.194384615 156.126923 0.194384615"></polygon>
                <path d="M167.417615,3.90784615 L168.572231,1.664 L169.759154,3.90784615 L167.417615,3.90784615 Z M169.767615,0.280153846 L167.385308,0.280153846 L164.153,6.24784615 L166.197615,6.24784615 L166.733769,5.19246154 L170.443769,5.19246154 L171.012231,6.24784615 L173.048385,6.24784615 L169.767615,0.280153846 Z" id="Fill-5" fill="#FFFFFF" mask="url(#mask-2)"></path>
                <path d="M175.534692,3.26407692 L178.377769,3.26407692 C178.806231,3.26407692 178.971615,2.98484615 178.971615,2.63023077 L178.971615,2.39869231 C178.971615,1.99484615 178.773154,1.76407692 178.221615,1.76407692 L175.534692,1.76407692 L175.534692,3.26407692 Z M173.704692,0.280230769 L178.690846,0.280230769 C180.430077,0.280230769 180.850846,1.15407692 180.850846,2.32484615 L180.850846,2.83484615 C180.850846,3.72638462 180.463154,4.74792308 179.169308,4.74792308 L175.534692,4.74792308 L175.534692,6.24792308 L173.704692,6.24792308 L173.704692,0.280230769 Z" id="Fill-6" fill="#FFFFFF" mask="url(#mask-2)"></path>
                <polygon id="Fill-7" fill="#FFFFFF" mask="url(#mask-2)" points="189.998692 0.280307692 187.642538 0.280307692 185.562538 2.18569231 183.549462 0.340307692 181.193308 0.340307692 184.384846 3.26415385 181.193308 6.188 183.549462 6.188 185.562538 4.34261538 187.642538 6.248 189.998692 6.248 186.741 3.26415385"></polygon>
            </g>
        </g>
    </g>
</svg>