<?xml version="1.0" encoding="UTF-8"?>
<svg width="27px" height="27px" viewBox="0 0 27 27" version="1.1" xmlns="http://www.w3.org/2000/svg" xmlns:xlink="http://www.w3.org/1999/xlink">
    <!-- Generator: Sketch 52.5 (67469) - http://www.bohemiancoding.com/sketch -->
    <title>Bacteria</title>
    <desc>Created with Sketch.</desc>
    <g id="Solstice" stroke="none" stroke-width="1" fill="none" fill-rule="evenodd">
        <g id="Assets-Landing" transform="translate(-262.000000, -324.000000)">
            <g id="LocationCard-1" transform="translate(52.000000, 230.000000)">
                <g id="Bacteria" transform="translate(211.000000, 95.000000)">
                    <path d="M24.9024122,12.4620419 C24.9024122,19.3325738 19.3328014,24.9023363 12.4621178,24.9023363 C5.59158592,24.9023363 0.0218233694,19.3325738 0.0218233694,12.4620419 C0.0218233694,5.59151006 5.59158592,0.0217475139 12.4621178,0.0217475139 C19.3328014,0.0217475139 24.9024122,5.59151006 24.9024122,12.4620419" id="Fill-5" fill="#FFFFFF"></path>
                    <path d="M24.9024122,12.4620419 C24.9024122,19.3325738 19.3328014,24.9023363 12.4621178,24.9023363 C5.59158592,24.9023363 0.0218233694,19.3325738 0.0218233694,12.4620419 C0.0218233694,5.59151006 5.59158592,0.0217475139 12.4621178,0.0217475139 C19.3328014,0.0217475139 24.9024122,5.59151006 24.9024122,12.4620419 Z" id="Stroke-7" stroke="#000000"></path>
                    <path d="M11.9093591,4.116167 C11.802858,4.16911411 11.7851079,4.10888488 11.6491749,4.116167 C11.3917215,4.24936918 11.1465567,4.39425309 10.8681671,4.50667088 C10.6798939,4.75198741 10.4052972,4.91113215 10.1200807,5.05965713 C10.0351225,5.24580642 9.8579242,5.33971547 9.76204291,5.51509328 C9.55662634,5.56318564 9.25987981,5.95323438 9.17643881,5.93806329 C9.13092553,5.92971919 9.16323996,5.98949329 9.14382096,6.00314727 C8.63862364,6.35936448 8.21413652,6.87533327 7.77751253,7.30452343 C7.74186047,7.33956865 7.74808061,7.39661195 7.71242855,7.43469139 C7.49912301,7.66271288 7.12697616,7.80941733 7.06174047,8.18292959 C6.9411303,8.17185469 6.81429998,8.2985333 6.73632057,8.37802981 C6.42531321,8.69601588 6.20078107,9.06315627 5.92315011,9.38660393 C5.82863421,9.49674605 5.72592593,9.59839235 5.63019634,9.71187211 C5.17915982,10.2481702 4.7992757,10.8536484 4.39405587,11.4037522 C4.3401985,11.71658 4.13402337,12.0442756 4.06863597,12.3470906 C4.00552423,12.6395892 4.06818084,12.9788148 4.06863597,13.2581146 C4.06878768,13.3275982 4.02752232,13.3901031 4.03616984,13.4532148 C4.10914278,13.985265 4.49008887,14.3659076 4.71932405,14.689507 C4.90926611,14.7128705 5.14108038,14.8401559 5.23984418,14.8521411 C5.72213315,14.9108532 5.9245155,14.7403301 6.18333431,14.624423 C6.68140122,14.4015597 7.09966819,14.1870405 7.45209263,13.9412688 C7.43692154,13.854035 7.5100462,13.7903164 7.54979446,13.7460169 C7.71197342,13.5653292 7.92709948,13.4016331 8.10278071,13.2254967 C8.2819513,13.0461744 8.49631881,12.8782305 8.62345255,12.6398926 C9.03109976,12.3968518 9.31616455,12.0315319 9.66464451,11.7290203 C9.64416353,11.6293463 9.74065167,11.5452984 9.79466075,11.4686844 C10.0035667,11.1729999 10.2616269,10.9851818 10.477815,10.7204462 C10.5477537,10.6347296 10.5976666,10.5470407 10.6730669,10.460262 C10.8956268,10.204174 11.1021054,9.91319249 11.388839,9.74448996 C11.7760052,9.16662311 12.1590752,8.58435665 12.6899117,8.15031174 C12.7654637,7.70519194 13.0785951,7.49780313 13.3409032,7.23943945 C13.4093248,6.9507336 13.6390152,6.72726343 13.7312554,6.42611728 C13.8236473,6.12360573 13.8250127,5.72779197 13.7961877,5.41754316 C13.6563102,5.3151383 13.7098641,5.12185861 13.6660197,4.99457315 C13.6164102,4.85014437 13.4539278,4.60012479 13.3409032,4.50667088 C13.0606932,4.2747049 12.5961544,4.28001478 12.3321774,4.05108302 C12.2981942,4.21948213 11.960334,4.00253553 11.9093591,4.08370087 C11.9274127,4.08370087 11.9462248,4.10994685 11.9093591,4.116167 M3.67828381,13.1605645 C3.64809334,12.8079883 3.71545298,12.2924746 3.8409179,11.9893563 C3.56677629,11.8035104 3.18188572,11.6071965 2.89757948,11.5337684 C2.8645065,11.4301499 2.75588149,11.402235 2.8324955,11.2735842 C3.27549135,11.2779838 3.54356452,11.488862 3.97108586,11.5988524 C4.22535334,11.0071798 4.53454017,10.4705784 4.94704213,10.037292 C4.83113499,9.86039709 4.59992757,9.79880246 4.426522,9.67940598 C4.36492737,9.44835027 4.12962376,9.39085183 4.06863597,9.15888585 C4.25872974,9.10214598 4.47704174,9.22123904 4.65439179,9.35413779 C4.80913691,9.47019664 5.02047021,9.5211715 5.20737804,9.64693984 C5.56359525,9.21957022 5.84972203,8.78704242 6.28088443,8.37802981 C6.01144585,8.07612511 5.46483145,8.01650272 5.50033181,7.49962366 C5.69876967,7.43666363 5.67176513,7.58094071 5.89053226,7.56470764 C6.00325346,7.83156712 6.30682699,7.90742258 6.47613636,8.1176939 C6.89076227,7.72976911 7.31433913,7.35094697 7.71242855,6.9466374 C7.40839989,6.75411626 7.19812857,6.36027474 6.86664024,6.29594932 C6.85814443,6.14666579 6.83189844,6.13877682 6.86664024,6.00314727 C6.96616259,6.02666246 6.98527817,5.96992258 7.06174047,5.97068113 C7.05840283,6.08582971 7.16429704,5.94837963 7.12697616,6.13331523 C7.544788,6.11495821 7.67101147,6.5001522 7.97276447,6.68630148 C8.3139623,6.35511657 8.65303618,6.02180771 8.98118687,5.67772737 C8.83903375,5.22365662 8.45126067,5.01490242 8.23294867,4.63683883 C8.19820687,4.51516669 8.31381059,4.54399176 8.29818436,4.4415869 C8.65288446,4.61468904 9.00500548,5.05207159 9.33922461,5.35245918 C9.68694601,5.03128719 10.0155518,4.71375626 10.412731,4.37650292 C10.3233733,3.99601196 9.79101969,3.75994979 9.95729485,3.33546267 C10.2848387,3.50674428 10.3751067,3.91545347 10.6078312,4.18125098 C11.0218503,4.06382674 11.2275703,3.73795171 11.746725,3.72581483 C11.8409375,3.28873571 11.6722349,2.58843816 12.0070609,2.39197254 C12.3390044,2.56917088 12.157103,3.21454908 12.1369255,3.59564688 C12.4693241,3.61855522 12.9963677,3.70472702 13.3409032,3.95353291 C13.5584567,3.87297441 13.7970979,3.55605033 14.0239057,3.33546267 C14.1715204,3.19179244 14.2171854,3.16858067 14.3819435,3.04266062 C14.4673567,3.03295112 14.4075826,3.16873238 14.5119597,3.14021073 C14.5544388,3.31270603 14.4175955,3.30633418 14.4470274,3.46547892 C14.4040933,3.42648921 14.3957492,3.4527352 14.3493256,3.46547892 C14.1543771,3.76935586 13.8661264,3.98023403 13.6335536,4.24633496 C13.830626,4.51562182 13.9862814,4.82617405 14.0891414,5.18982509 C14.5284962,5.22866308 15.012454,5.03887274 15.487916,5.09227498 C15.5375254,5.31589686 15.2752173,5.41041275 15.13003,5.4500093 C14.8815275,5.51827921 14.5204555,5.45516747 14.2191577,5.54771112 C14.1602938,6.04441263 14.1874501,6.46313474 13.9915913,6.84908729 C14.1836573,7.05814492 14.3529667,7.28980747 14.6422794,7.40207355 C14.5831121,7.58033386 14.7986933,7.48384572 14.7396778,7.66240946 C14.4476343,7.72703831 14.0962718,7.37446216 13.7961877,7.23943945 C13.6112521,7.62918477 13.3283112,7.92107656 13.1453479,8.31309755 C13.3296766,8.59967945 13.7053128,8.74046717 13.8611199,8.96363392 C13.889945,9.06831444 13.7541637,9.00823692 13.7637215,9.09380188 C13.4314746,8.97046091 13.222417,8.72408239 12.9177815,8.57328175 C12.6196696,8.96909551 12.2001889,9.24369225 11.9742914,9.71187211 C11.869004,9.67166872 11.9495625,9.81715948 11.8442751,9.77695609 C11.9542655,9.91865408 12.074724,10.0650551 12.2346273,10.0697581 C12.3295983,10.2025052 12.4090948,10.3507267 12.6251312,10.3625602 C12.612084,10.4645099 12.7894341,10.5423376 12.7226813,10.5902783 C12.6419711,10.6819117 12.4623454,10.6174345 12.3972614,10.5902783 C12.1385943,10.4827152 11.9462248,10.1776246 11.6491749,10.102376 C11.1635483,10.5807205 10.796863,11.0220475 10.2827147,11.5013023 C10.5606491,11.7655827 10.9300652,11.9383814 11.0960369,12.3146244 C10.8991162,12.5191307 10.7701619,12.2196534 10.6406008,12.1193725 C10.4894967,12.0027068 10.2919691,11.8437138 10.1200807,11.7290203 C9.64871486,12.114366 9.35621623,12.6785789 8.94856902,13.1279466 C9.10907916,13.3359423 9.56102596,13.4993349 9.66464451,13.9412688 C9.60380843,13.9672114 9.54524802,13.995733 9.46939257,14.0063528 C9.20253308,13.7851583 9.01714235,13.4823433 8.72085095,13.2905807 C8.28984026,13.6402744 7.93256108,14.0638512 7.48486219,14.3967049 C7.63141492,14.6406561 7.69164415,14.970779 7.90768049,15.1449431 C7.94166373,15.2371834 7.94166373,15.2805727 7.90768049,15.3728129 C7.86975276,15.367503 7.84972692,15.3799433 7.84274822,15.4052791 C7.49305458,15.2669187 7.43510101,14.8368183 7.19190843,14.5919569 C6.78486806,14.8577544 6.20214646,15.0828934 5.72789817,15.177561 C5.6365682,15.5252824 5.89295964,16.1896244 5.66281419,16.3812353 L5.50033181,16.3812353 C5.37471518,16.0729588 5.47196187,15.5419706 5.40247827,15.177561 C5.3235886,15.170734 5.21268793,15.2174609 5.10982793,15.2100271 C5.0802443,15.2079032 5.02578009,15.1464602 5.01212611,15.1449431 C4.94886266,15.1385713 4.88302012,15.1364473 4.7519419,15.0800109 C4.61388497,15.0203885 4.42803911,14.9401334 4.39405587,14.754591 C4.3471772,14.7371442 4.31455935,14.8812696 4.29635404,14.7870571 C4.02145388,15.1737682 3.63383251,15.4474547 3.28793164,15.7631651 C3.03578811,15.5304405 3.34527837,15.3263894 3.51564971,15.2100271 C3.7727997,15.0344976 4.00264173,14.7083191 4.13371995,14.5268729 C3.99156683,14.2028184 3.77704761,13.95113 3.67828381,13.5833828 C3.23301229,13.713399 2.86572019,13.6211588 2.37690764,13.6809329 C2.36992894,13.5619915 2.33230464,13.5562265 2.37690764,13.4532148 C2.58642041,13.2464328 3.00908699,13.3850966 3.35301562,13.2905807 C3.47438435,13.2572043 3.53795122,13.1148995 3.67828381,13.1605645" id="Fill-9" fill="#CC00CC"></path>
                    <path d="M5.0970347,13.5997905 C5.11153904,13.4917891 5.23782146,13.4941167 5.26604188,13.4000809 C5.19147061,13.3515113 5.19919575,13.2217855 5.0970347,13.2003714 C4.83201504,13.2171302 4.77115984,13.6059975 5.0970347,13.5997905 M4.59001315,13.1339567 C4.83548347,13.0655248 4.84841126,12.8507633 5.0970347,12.8676773 C5.28369934,12.8804016 5.5737863,13.1801987 5.57047552,13.4000809 C5.56684944,13.6196528 5.35968951,13.6868434 5.26604188,13.8659147 C4.7516105,13.8831391 4.49494661,13.6277219 4.59001315,13.1339567" id="Fill-11" fill="#FF9900"></path>
                    <path d="M4.94710281,12.15196 C5.43348798,12.4474929 5.69640298,11.8737222 5.4351568,11.5012719 C5.08955935,11.5275179 4.85744166,11.7934671 4.94710281,12.15196 M5.1097369,11.2735539 C5.38327167,11.2245512 5.47793928,11.3034409 5.63025703,11.30602 C5.79076717,11.5152293 5.89104808,11.8810043 5.79289112,12.2496618 C5.48218718,12.6922025 4.59907799,12.6413794 4.65430076,11.9242419 C4.67690568,11.6320467 4.96682523,11.4569723 5.1097369,11.2735539" id="Fill-13" fill="#FF9900"></path>
                    <path d="M6.02063953,12.9977787 C5.95631411,13.2201868 5.96647874,13.5456067 6.15080749,13.6160006 C6.89616318,13.6988348 6.52325777,12.6019649 6.02063953,12.9977787 M5.79292146,13.5182988 C5.4555164,12.5204961 6.90071451,12.5362741 6.83396171,13.3231986 C6.79603398,13.7733248 5.974216,14.0544451 5.79292146,13.5182988" id="Fill-15" fill="#FF9900"></path>
                    <path d="M6.56652203,11.4640779 C6.773932,11.3943108 6.76046125,11.0757711 6.60911338,10.9443735 C6.27274075,10.9331208 6.21093377,11.4718683 6.56652203,11.4640779 M6.09920575,10.907326 C6.29829556,10.7662337 6.54750449,10.6833095 6.86406719,10.7215689 C7.2640297,11.1285725 6.94271262,11.857232 6.35415957,11.6868825 C6.04631324,11.597726 5.97578988,11.278667 6.09920575,10.907326" id="Fill-17" fill="#FF9900"></path>
                    <path d="M7.64737491,9.77703195 C7.68773001,9.88231932 7.54223925,9.80191254 7.58244264,9.9070482 C7.65450532,9.93117023 7.71625166,9.78734829 7.64737491,9.77703195 M6.8015866,9.80949808 C7.10864948,10.1766385 7.71230718,9.7944787 7.64737491,9.28897796 C7.57136775,9.17003661 7.44013781,9.24118902 7.38703899,9.06125989 C7.29191626,9.0906918 7.28721322,9.0906918 7.19193877,9.06125989 C7.03689022,9.29398442 6.77473377,9.49029833 6.8015866,9.80949808 M7.48489253,10.2975521 C7.26354632,10.306503 7.08938219,10.358995 6.93160285,10.2975521 C6.77352008,10.2358057 6.47738039,9.93511471 6.57371682,9.74456581 C6.62939472,9.63487883 6.58843278,9.40670562 6.60633466,9.35406194 C6.64289699,9.24634719 6.8210056,9.03122113 6.86667058,8.99632762 C6.9740819,8.91364517 7.3189208,8.77968444 7.45212297,8.80092397 C7.82609036,8.86054636 8.11509964,9.2047784 7.97279481,9.61439785 C7.86917626,9.91250979 7.6862129,10.088191 7.48489253,10.2975521" id="Fill-19" fill="#FF9900"></path>
                    <path d="M7.4521078,11.7289748 C7.41964167,11.8151466 7.21877643,11.9072351 7.1919236,11.9566929 C7.02428304,12.2648178 7.20117796,12.7065999 7.38702382,12.7700151 C7.81393832,12.9155058 7.89737932,12.4435332 8.03786362,12.1519448 C7.84761814,12.0839783 7.80043605,11.7314022 7.4521078,11.7289748 M7.80999383,11.5012568 C8.31291549,11.7075836 8.36373865,12.7025037 7.87507781,12.965267 C6.60510581,13.3932435 6.54138722,11.3375607 7.80999383,11.5012568" id="Fill-21" fill="#FF9900"></path>
                    <path d="M8.5908347,11.371104 C8.71265856,11.2790154 8.85283944,11.2491284 8.88363676,11.0783019 C8.91504091,10.9058066 8.78669349,10.760771 8.72085095,10.6228658 C8.24811976,10.4810161 8.07213511,11.3773241 8.5908347,11.371104 M9.07888869,11.30602 C8.8968356,11.4198032 8.71402396,11.599884 8.46081846,11.5663559 C8.23522434,11.5364689 8.01600208,11.3037443 8.03784845,10.9807518 C8.04467544,10.8783469 8.23492091,10.5175784 8.33049879,10.4602317 C8.55230013,10.3273329 8.70385933,10.4609902 8.94856902,10.4926978 C8.9509964,10.588124 9.02321079,10.6134597 9.07888869,10.6554836 C9.09800427,10.9918267 9.11287194,10.9825723 9.07888869,11.30602" id="Fill-23" fill="#FF9900"></path>
                    <path d="M8.55838374,9.38657358 C9.05098906,9.70486307 9.42556329,9.34045347 9.40417205,8.80096948 C9.09210271,8.44384201 8.44369029,8.75211857 8.55838374,9.38657358 M9.20907182,8.37815118 C9.36260326,8.51727008 9.54071187,8.63211524 9.66465968,8.80096948 C9.65692242,8.95935567 9.67755511,9.17781938 9.59927228,9.32148961 C9.58668027,9.34485309 9.5454149,9.31238695 9.53434001,9.35410745 C9.51932063,9.41054391 9.23622808,9.6622323 9.14383613,9.71199348 C8.80885845,9.89222604 8.30836416,9.74628015 8.29819953,9.25655734 C8.2880349,8.77077901 8.75439423,8.40530743 9.20907182,8.37815118" id="Fill-25" fill="#FF9900"></path>
                    <path d="M9.07419481,7.6817057 C9.10728429,7.53903272 8.99592548,7.54468744 9.02901495,7.40179697 C8.754542,7.35394932 8.67478789,7.50532188 8.71042271,7.77500861 C8.87120361,7.86483169 8.95944221,7.75978436 9.07419481,7.6817057 M8.43743454,7.96161443 C8.20750511,7.07730293 9.26318662,6.82545032 9.39299917,7.35525426 C9.49523717,7.77479112 8.91235334,8.32438659 8.43743454,7.96161443" id="Fill-27" fill="#FF9900"></path>
                    <path d="M9.66465968,8.24792254 C9.9667161,8.45212542 10.2567874,8.14703479 10.2499604,7.76002026 C9.85111238,7.56067213 9.48457883,7.92037869 9.66465968,8.24792254 M9.43663818,8.28038867 C9.20330681,7.57508466 10.1809319,7.18260855 10.4778301,7.72740242 C10.5233434,8.31604074 10.1815387,8.61384925 9.6969741,8.57334244 C9.6343175,8.45167029 9.46242904,8.43907828 9.43663818,8.28038867" id="Fill-29" fill="#FF9900"></path>
                    <path d="M10.347647,6.19833852 C10.2247612,6.05921962 10.0100902,6.04146944 9.85959302,6.16587239 C9.66934755,6.88285814 10.4678021,6.81883613 10.347647,6.19833852 M9.56694268,6.55622455 C9.44587738,6.28299321 9.7298802,6.1340131 9.76204291,5.90553647 C9.97110054,5.85971978 10.1059715,5.77673391 10.2827147,5.84045249 C10.4235025,5.89142735 10.578551,6.13446823 10.5755168,6.36097261 C10.5703586,6.7322092 10.2271886,7.08645417 9.89205916,6.94657672 C9.75688474,6.89014026 9.69574524,6.73554684 9.56694268,6.55622455" id="Fill-31" fill="#FF9900"></path>
                    <path d="M10.1341518,10.1307558 C10.267943,10.0607352 10.3341646,9.92467617 10.3870745,9.77501128 C10.209304,9.73552099 9.99109292,9.75592983 9.9172887,10.0240656 C9.97592767,10.0731796 10.0064267,10.1500031 10.1341518,10.1307558 M10.4955903,9.41910087 C10.871183,9.7401669 10.5565883,10.359899 10.1705484,10.4154841 C9.9474507,10.4475077 9.89807938,10.2575229 9.66470303,10.2019378 C9.65391885,9.65803373 9.95200027,9.41777347 10.4955903,9.41910087" id="Fill-33" fill="#FF9900"></path>
                    <path d="M11.377089,8.73665356 C11.4336339,8.59671763 11.3263436,8.49375592 11.4162354,8.35718128 C11.2264839,8.22927524 11.1219121,8.31790723 10.9107751,8.39521697 C10.7984102,8.73789193 11.139673,8.89746489 11.377089,8.73665356 M11.5327686,8.09163914 C11.6291849,8.25032755 11.6193982,8.51286222 11.6491205,8.73665356 C11.4564693,8.93709277 11.3462793,9.07985926 11.0664547,9.04005448 C10.3409768,8.93709277 10.6024968,7.81052891 11.5327686,8.09163914" id="Fill-35" fill="#FF9900"></path>
                    <path d="M11.5419428,6.54273716 C11.5959429,6.31588481 11.5414983,6.3727787 11.4943871,6.18088234 C11.3397202,6.15098894 11.272609,6.21607942 11.1606089,6.23247257 C11.0730532,6.58540759 11.3370536,6.65652495 11.5419428,6.54273716 M11.827721,6.64615869 C11.4210537,7.13771231 10.5383857,6.80430444 10.9701641,6.02562951 C11.3850536,5.70331113 11.9877212,5.90340407 11.827721,6.64615869" id="Fill-37" fill="#FF9900"></path>
                    <path d="M11.8930911,5.17004912 C11.8203276,5.15597228 11.8341067,5.05190418 11.7896267,5.00841678 C11.6274195,5.03782733 11.5331411,5.13686799 11.478508,5.2778878 C11.6003447,5.38874295 11.8768946,5.33369244 11.8930911,5.17004912 M12.0487713,4.79273942 C12.2010672,4.9955968 12.166015,5.38723472 12.0487713,5.60140385 C11.7661779,5.71980017 11.6303204,5.75247856 11.2710956,5.70924253 C10.912596,5.27989878 11.405261,4.49662294 12.0487713,4.79273942" id="Fill-39" fill="#FF9900"></path>
                    <path d="M12.1696647,6.88155342 C12.0168918,7.01187309 11.7557973,7.13005589 11.8442448,7.40207355 C11.916004,7.43878759 12.0237188,7.43939443 12.039345,7.5322415 C12.2288319,7.48430086 12.3125763,7.42498189 12.4298489,7.3694557 C12.3817565,7.15888096 12.5322537,7.14644067 12.4949329,6.9466374 C12.4357656,6.87578841 12.2288319,6.95240242 12.1696647,6.88155342 M11.5839089,7.40207355 C11.5326306,7.11989126 11.7421433,6.78992003 12.039345,6.68630148 C12.310149,6.5919373 12.6954947,6.6837224 12.7549654,6.97910354 C12.7977478,7.19028512 12.6082609,7.60051141 12.4298489,7.6948756 C12.0809138,7.87935606 11.648386,7.75601509 11.5839089,7.40207355" id="Fill-41" fill="#FF9900"></path>
                    <path d="M12.3647801,5.71031487 C12.7423885,5.85990183 13.0637122,5.55481119 12.9502325,5.12471077 C12.6430179,4.91914249 12.1918296,5.27657339 12.3647801,5.71031487 M13.2105684,4.99454281 C13.1837155,5.19935254 13.251682,5.39475619 13.2105684,5.54768078 C13.1922114,5.6161024 13.0376179,5.87431436 12.9502325,5.97065079 C12.9412815,5.98066371 12.9012298,5.9221033 12.8853002,5.93803295 C12.8721013,5.95123179 12.9004713,6.02602527 12.8853002,6.03573477 C12.9203454,6.01358498 12.6111586,6.1015773 12.5923464,6.10066704 C12.0510419,6.07517961 11.9465131,5.32496917 12.3321622,4.96207668 C12.5739894,4.73466203 12.9620659,4.74376468 13.2105684,4.99454281" id="Fill-43" fill="#FF9900"></path>
                    <path d="M7.58248816,9.90710888 C7.54213306,9.80182151 7.68762382,9.88238 7.64742043,9.77709263 C7.71629718,9.78725726 7.65455084,9.9310792 7.58248816,9.90710888" id="Fill-45" fill="#FFFFFF"></path>
                    <path d="M14.8560097,17.7893401 C14.8581337,17.8102762 14.9506773,18.1182494 14.9435469,18.1052022 C14.9570492,18.129476 15.0855483,18.2264192 15.1746026,18.3248796 C15.4444963,18.623295 15.5027533,18.6615261 15.7987413,18.6336113 C15.8944709,18.6243569 16.0082541,18.6557611 16.0574084,18.6469619 C16.5095069,18.5653414 16.8460017,18.2027523 16.9453723,17.8621613 C17.0016571,17.6696402 17.1102821,17.4161313 17.096173,17.2820188 C17.0731129,17.0646171 16.7649881,16.6994489 16.5952236,16.5987129 C16.5542616,16.5747426 16.4239419,16.5921893 16.3553686,16.5518342 C15.9528796,16.3162272 15.2970333,16.5852106 15.0495928,17.0556662 C14.9584146,17.2290717 14.8359839,17.5749726 14.8560097,17.7893401 M16.6100912,13.2785197 C16.2553911,13.7072547 16.2678314,14.2003152 16.2657075,14.5927913 C16.2646455,14.7904706 16.2455299,15.0110583 16.2579702,15.0767491 C16.3216888,15.4077823 16.6172216,15.5820981 16.6495361,15.8750519 C16.8523735,15.9243579 17.1287908,16.067573 17.1492718,16.2468953 C17.4071803,16.3456591 17.6270094,16.2682865 17.9550084,16.3919309 C18.6229915,16.2153394 19.2398481,16.1940999 19.6572048,15.5798224 C19.7139447,15.4963815 19.7898001,15.3760747 19.8283347,15.2774626 C19.9625989,14.9348994 19.8940255,13.9374002 19.6829957,13.7303148 C19.6505295,13.6986072 19.7013527,13.6629551 19.6873953,13.644143 C19.2081405,13.0013439 18.6537889,12.7516277 17.8911381,12.5832286 C17.7495918,12.686392 17.575276,12.6704624 17.402629,12.6621183 C17.1345558,12.8915052 16.8256724,13.0175769 16.6100912,13.2785197 M10.2420259,17.7083265 C9.96090557,17.8658024 9.61955603,18.3154735 9.53672187,18.64059 C9.52428158,18.6891375 9.5732842,18.7024881 9.56600208,18.7460291 C9.53383936,18.9374883 9.54734163,18.9576658 9.5482519,19.0910197 C9.54901045,19.1981276 9.49651848,19.2694317 9.50137323,19.3305712 C9.51335839,19.4815236 9.74274528,19.7222888 9.8723064,19.8515465 C10.6912419,20.6656272 11.5402161,20.2265758 12.0059686,19.0615878 C12.008396,18.6557611 12.0376762,18.1916774 11.7712718,17.9078263 C11.5858811,17.7106021 11.4774078,17.7034717 11.3678725,17.6795014 C11.1885502,17.6405117 11.0570169,17.6303471 10.9074299,17.5520642 C10.7061095,17.6453665 10.4394018,17.5974258 10.2420259,17.7083265 M10.8767843,17.1354661 C11.2087278,17.0043879 11.5517461,16.9118442 11.8959782,16.8246104 C12.0071823,16.76605 12.1089803,16.5935547 12.1871114,16.5453107 C12.3553588,16.4416921 12.4028443,16.4756754 12.5789807,16.3235093 C12.7144585,16.2063885 12.8593425,16.0106814 13.0368442,15.8280215 C13.1119411,15.7508006 13.2199593,15.6210878 13.3425417,15.6015171 C13.5288427,15.2073722 13.8301406,14.7671071 13.8738333,14.3489919 C13.8952245,14.2212513 13.9729005,14.2971067 14.0173518,14.252352 C14.1499471,13.7001243 14.6140308,13.0016473 15.054751,12.5760982 C15.1298479,12.5034287 15.2378661,12.4861336 15.322369,12.41665 C15.4237119,12.3336642 15.4379728,12.2000069 15.5608586,12.1522179 C15.7315334,12.0857685 15.8797549,11.9188865 15.9906556,11.8630569 C16.0913916,11.8123855 16.288009,11.7586798 16.4309206,11.7125597 C16.8455466,11.578599 17.289301,11.5657035 17.7424614,11.4340185 C18.5471361,11.5385473 19.3959586,11.9565108 19.9847486,12.5697263 C20.1238676,12.7146102 20.2696617,12.9279158 20.3895134,13.1095137 C20.5034482,13.2817056 20.6550074,13.4836328 20.6932386,13.5919544 C20.7311663,13.6984555 20.7073477,13.904934 20.7382967,14.0614997 C20.753923,14.1394791 20.7807758,14.1953087 20.7967054,14.2719227 C21.0039425,15.2692702 20.4791745,16.7278189 19.512776,17.7172774 C19.3610651,17.8726294 19.1541314,18.0144791 18.9877046,18.1746858 C18.800645,18.3546149 18.6436242,18.5700444 18.4770457,18.6847379 C18.0489175,18.9796639 17.4613411,19.1309197 16.9898236,19.3521142 C16.9663084,19.3630374 16.9576609,19.447692 16.9327803,19.4530019 C16.9180644,19.4561878 16.8784678,19.4080955 16.8655724,19.4149225 C16.8431192,19.4267559 16.8326511,19.5106521 16.8083774,19.5158102 C16.4787096,19.584687 16.0451198,19.8645936 15.6942125,19.9946099 C14.9441537,20.0587836 14.2961965,20.4048362 13.597416,20.4058981 C13.1705015,20.4368472 12.641789,20.6408983 12.1321921,20.642112 C11.5053226,20.6434774 10.923663,20.7613568 10.1249051,20.6600139 C9.82937221,20.6225413 9.43553069,20.57809 9.2185841,20.4577833 C8.89028169,20.2758819 8.75525899,19.903735 8.4105718,19.6898226 C8.43241817,19.5877212 8.38478095,19.4347966 8.36096234,19.3066009 C8.33001331,19.1409326 8.55955191,18.5023814 8.67287996,18.2851314 C8.98540443,17.6851147 9.27304831,17.5329487 9.74213844,17.3367865 C10.0775713,17.1963022 10.5592534,17.077816 10.8767843,17.1354661" id="Fill-47" fill="#FFFFFF"></path>
                    <path d="M9.97207149,19.5969756 C10.3343571,19.9984026 10.9276985,20.001892 11.3095549,19.8215077 C11.3881411,19.5701227 11.6213208,19.3618237 11.7091614,19.1154451 C11.8602654,18.6898961 11.6501458,18.1106638 11.2681378,17.9340723 C11.0030988,17.8111865 10.5151965,17.8325777 10.333902,17.9378651 C10.1070942,18.0693984 9.89454722,18.4101411 9.81019595,18.7065843 C9.79199064,19.0122817 9.76301386,19.3657681 9.97207149,19.5969756 M10.9073692,17.5520642 C11.0569562,17.6303471 11.1886413,17.6405117 11.3678118,17.6795014 C11.4773471,17.7034717 11.5859721,17.7106021 11.7712111,17.9078263 C12.0376155,18.1916774 12.0083353,18.6557611 12.0059079,19.0615878 C11.5401554,20.2265758 10.6911812,20.6656272 9.87239742,19.8515465 C9.7426846,19.7222888 9.51344942,19.4815236 9.50131254,19.3305712 C9.4964578,19.2694317 9.54894977,19.1981276 9.54819121,19.0910197 C9.54728095,18.9576658 9.53377868,18.9374883 9.56594139,18.7460291 C9.57322351,18.7024881 9.5243726,18.6891375 9.5368129,18.64059 C9.61964705,18.3154735 9.96099659,17.8658024 10.2419652,17.7083265 C10.4393411,17.5974258 10.7060489,17.6453665 10.9073692,17.5520642" id="Fill-49" fill="#6699FF"></path>
                    <path d="M10.5691449,18.0710521 C10.6805007,18.1628372 10.8185577,18.2474919 10.8484447,18.3621853 C10.7977733,18.4516948 10.7469501,18.5413559 10.696127,18.6311688 C10.5309138,18.5672985 10.1526985,18.5474243 10.4450454,18.1338604 C10.4946549,18.1426596 10.5384993,18.1297642 10.5691449,18.0710521" id="Fill-51" fill="#339900"></path>
                    <path d="M10.2851269,18.8867258 C10.5409115,18.9370938 10.5082937,19.0578557 10.6314829,19.2157867 C10.5365119,19.4183208 10.3659889,19.3491406 10.2104852,19.3326041 C10.1199138,19.2159385 10.1505594,19.0655929 10.2851269,18.8867258" id="Fill-53" fill="#339900"></path>
                    <path d="M10.8306339,18.7072366 C10.9850756,18.7278693 11.1554469,18.5791926 11.2765122,18.7820301 C11.1672804,18.8589475 11.1973191,18.9184182 11.2296335,19.0217333 C11.1314766,19.1450743 10.9944816,19.1274758 10.8755403,19.1764784 C10.8066635,19.0450968 10.632196,18.9689379 10.8306339,18.7072366" id="Fill-55" fill="#339900"></path>
                    <path d="M15.5758931,16.9098113 C15.1165125,17.0923195 15.2949245,17.9702705 15.4611997,18.1318427 C15.5634528,18.2312133 15.7318519,18.2547285 15.864599,18.3601676 C16.3494671,18.4144801 17.0223049,17.7284433 16.789277,17.1968483 C16.7475565,17.102029 16.4706841,16.915728 16.4764491,16.8865995 C16.0938342,16.8957022 15.8612614,16.7961798 15.5758931,16.9098113 M15.049608,17.0556055 C15.2970485,16.5853017 15.9528947,16.3161665 16.3553838,16.5519253 C16.4239571,16.5922804 16.5542768,16.5748336 16.5952387,16.5988039 C16.7650032,16.6993883 17.0731281,17.0645564 17.0961881,17.2819581 C17.1102973,17.4160706 17.0015205,17.6695795 16.9453875,17.8621007 C16.8460169,18.2026916 16.5095221,18.5654324 16.0574236,18.6470529 C16.0082692,18.6558521 15.894486,18.624448 15.7987565,18.6337023 C15.5027685,18.6614654 15.4445115,18.6232343 15.1744661,18.3249706 C15.0855635,18.2263585 14.9570643,18.129567 14.9435621,18.1051415 C14.9506925,18.1181887 14.8581488,17.8102155 14.8560249,17.7892794 C14.835999,17.5750636 14.9584297,17.229011 15.049608,17.0556055" id="Fill-57" fill="#6699FF"></path>
                    <path d="M17.5106623,13.2555658 C17.6019923,13.4192619 17.7315534,13.5721865 17.5513209,13.8111312 C17.3070663,13.9073159 17.0429376,13.6739845 17.2428926,13.4148623 C17.3163207,13.3197395 17.488816,13.4054562 17.5106623,13.2555658" id="Fill-59" fill="#339900"></path>
                    <path d="M17.3522762,14.319833 C17.5451007,14.4459048 17.5607269,14.6211309 17.6223216,14.7834616 C17.520827,14.9623287 17.364413,14.9439717 17.2303006,15.005718 C16.7689477,14.8239684 16.9905973,14.2879737 17.3522762,14.319833" id="Fill-61" fill="#339900"></path>
                    <path d="M15.9311697,17.0662708 C16.0854597,17.1368163 16.049656,17.260309 16.176638,17.3382884 C16.0941073,17.4274944 16.1417445,17.4804415 16.0959278,17.5591795 C15.7360695,17.7981242 15.3969956,17.2898926 15.9311697,17.0662708" id="Fill-63" fill="#339900"></path>
                    <path d="M18.0397238,13.7324842 C18.1378807,13.6783234 18.2246594,13.5818353 18.3263057,13.5398114 C18.5402181,13.6124809 18.5508378,13.7418903 18.5864899,13.864321 C18.4560185,13.974008 18.3134103,14.0384851 18.1462248,14.0146665 C18.0162086,13.9468518 18.137729,13.8090982 18.0397238,13.7324842" id="Fill-65" fill="#339900"></path>
                    <path d="M16.3794906,17.7640802 C16.3433834,17.9379409 16.2667694,17.9579668 16.1262851,17.9758687 C15.9680507,17.7935122 16.0933639,17.539093 16.3794906,17.7640802" id="Fill-67" fill="#339900"></path>
                    <path d="M17.9278673,14.557033 C18.0668345,14.5464133 18.1831968,14.4543247 18.3593332,14.5793345 C18.3147302,14.6293991 18.3494719,14.6574656 18.3884617,14.6846219 C18.2640587,14.9320624 18.1208436,15.0161102 17.9774768,14.9402548 C17.7975477,14.8446769 17.9797525,14.6802223 17.9278673,14.557033" id="Fill-69" fill="#339900"></path>
                    <path d="M18.1514285,15.2603344 C18.1907217,15.3249633 18.1559799,15.4103765 18.2098372,15.4710609 C18.0863446,15.6420391 17.8433037,15.685125 17.7067639,15.4970035 C17.7073707,15.2550246 17.9513218,15.1119612 18.1514285,15.2603344" id="Fill-71" fill="#339900"></path>
                    <path d="M18.7513086,14.3570932 C18.8285295,14.4315833 18.8556857,14.3244754 18.9092397,14.3132488 C19.0823418,14.435376 19.0184715,14.6233459 18.935334,14.8163221 C18.8474933,14.8060058 18.7781615,14.8624423 18.6766669,14.8029716 C18.6778805,14.7110348 18.5651593,14.5741915 18.7513086,14.3570932" id="Fill-73" fill="#339900"></path>
                    <path d="M9.74213844,17.3367258 C9.27304831,17.532888 8.98540443,17.685054 8.67287996,18.2850707 C8.55955191,18.5023207 8.33001331,19.1408719 8.36096234,19.3066919 C8.38478095,19.4348876 8.43241817,19.5876605 8.4105718,19.6899137 C8.75525899,19.9036743 8.89028169,20.2758212 9.2185841,20.4578743 C9.43553069,20.5780293 9.82937221,20.6224806 10.1249051,20.6601049 C10.923663,20.7614478 11.5053226,20.6434167 12.1321921,20.6420513 C12.641789,20.6408376 13.1705015,20.4369382 13.597416,20.4058374 C14.2961965,20.4047755 14.9441537,20.0587229 15.6942125,19.9947009 C16.0451198,19.8645329 16.4787096,19.584778 16.8083774,19.5157495 C16.8326511,19.5105914 16.8431192,19.426847 16.8655724,19.4148618 C16.8784678,19.4081865 16.9180644,19.4561272 16.9327803,19.4529412 C16.9576609,19.4477831 16.9663084,19.3629767 16.9898236,19.3522052 C17.4613411,19.1310107 18.0489175,18.9797549 18.4770457,18.6848289 C18.6436242,18.5699838 18.800645,18.3545543 18.9877046,18.1746251 C19.1541314,18.0145701 19.3610651,17.8727204 19.512776,17.7172167 C20.4791745,16.7279099 21.0039425,15.2693612 20.7967054,14.271862 C20.7807758,14.195248 20.753923,14.1395701 20.7382967,14.061439 C20.7073477,13.9048733 20.7311663,13.6983948 20.6932386,13.5918937 C20.6550074,13.4837239 20.5034482,13.2816449 20.3895134,13.1094531 C20.2696617,12.9278551 20.1238676,12.7147013 19.9847486,12.5696656 C19.3959586,11.9566019 18.5471361,11.5386383 17.7424614,11.4339578 C17.289301,11.5656429 16.8455466,11.57869 16.4309206,11.712499 C16.288009,11.7586191 16.0913916,11.8123248 15.9906556,11.8629962 C15.8797549,11.9189776 15.7315334,12.0857079 15.5608586,12.1521572 C15.4379728,12.1999462 15.4237119,12.3336035 15.322369,12.4167411 C15.2378661,12.4860729 15.1298479,12.5035197 15.054751,12.5761892 C14.6140308,13.0017383 14.1499471,13.7000636 14.0173518,14.2522913 C13.9729005,14.297046 13.8952245,14.2211906 13.8738333,14.3489312 C13.8301406,14.7671981 13.5288427,15.2074632 13.3425417,15.6014564 C13.2199593,15.6210271 13.1119411,15.7508917 13.0368442,15.8281125 C12.8593425,16.0106207 12.7144585,16.2063278 12.5789807,16.3234486 C12.4028443,16.4756147 12.3553588,16.4416314 12.1871114,16.5454017 C12.1089803,16.5936458 12.0071823,16.7659894 11.8959782,16.8247015 C11.5517461,16.9119352 11.2087278,17.0043272 10.8767843,17.1355571 C10.5592534,17.0777553 10.0775713,17.1962415 9.74213844,17.3367258 M14.7692311,10.7277435 C14.9074397,10.9151065 14.7000509,11.1138478 14.6707707,11.2934735 C14.6604543,11.3574955 14.6531722,11.5116338 14.6721361,11.6050877 C14.7058159,11.7712111 14.6885209,12.0087904 14.7800025,12.1985808 C15.2163231,11.9438582 15.4707423,11.6302717 15.922234,11.5134543 C15.8642804,11.2649518 15.8160363,11.0138703 15.7180311,10.7764427 C15.8369724,10.2691214 16.1180927,9.79821079 16.5081415,9.53711632 C16.5266502,9.74116749 16.3295778,9.92170347 16.2519018,10.1466907 C16.1186996,10.5323399 16.1322019,10.9786734 16.4005785,11.2959009 C16.7745458,11.2479602 17.1416862,11.1755941 17.530673,11.180904 C17.3211602,10.4842475 17.9908122,9.4075552 18.711439,9.40801034 C18.5372749,9.51102204 18.4209126,9.65332687 18.1863676,9.86541872 C17.8914415,10.1319748 17.7283523,10.7765944 17.9474229,11.1504101 C18.3439952,11.2361268 18.5102703,11.123709 18.9400673,11.3570404 C19.1008809,10.6649352 19.7180409,10.4904677 20.2678412,10.4218943 C20.2233899,10.4724141 20.2581317,10.5001772 20.2971214,10.5273334 C19.919513,10.8670141 19.3841252,10.8911362 19.2134504,11.4230346 C19.5478212,11.5635189 19.6655489,11.6976314 19.8095226,11.9382449 C20.16665,11.7117405 20.6531869,11.4561076 21.0350433,11.6550006 C20.9462924,11.8118697 20.7997396,11.7605914 20.6665375,11.757102 C20.47523,11.8848426 20.2620762,11.9339969 20.078506,12.0902592 C20.1508721,12.3508985 20.4130285,12.4693847 20.546079,12.7541461 C21.0444493,12.6758633 21.7964803,12.7800887 22.2097408,13.0299565 C22.0346664,13.0995918 21.8609574,12.9352889 21.6204957,13.0514995 C21.322232,12.8959958 21.116512,13.0741044 20.8441909,13.0117512 C20.9558502,13.3397502 21.2752016,13.6102508 21.3320932,13.9534208 C21.8101343,13.9816391 22.2632948,14.191607 22.4414034,14.5812006 C22.0240467,14.4828919 21.8268225,14.2184598 21.4050662,14.2166393 C21.4478486,14.4787957 21.3912605,14.7685635 21.3795787,15.0457394 C21.6614576,15.1432895 21.6999922,15.2437221 21.9322616,15.4025634 C21.9334753,15.6609271 22.308808,15.9549428 22.1173489,16.1734065 C21.9242209,15.7266179 21.6779941,15.4869147 21.3328518,15.2854426 C21.1899401,15.4811497 21.2105728,15.8637646 21.0106178,16.1684001 C21.3598563,16.5634553 21.6411283,17.0944435 21.5730101,17.6847506 C21.3738137,17.5415355 21.3489331,17.3500763 21.340589,17.1537624 C21.2222545,17.0457443 20.9271768,16.8083167 20.7926092,16.7106149 C20.6154109,16.9985622 20.4089323,17.305625 20.1546649,17.6812613 C20.3839,18.0899704 20.3218503,18.5795415 20.1510238,19.0993031 C19.9912722,18.7468787 20.2162595,18.287498 19.8444161,17.9939374 C19.6811751,18.0515876 19.5661783,18.2846155 19.4391962,18.4747093 C19.2521367,18.4470979 19.1382018,18.6830084 18.9755677,18.7450581 C18.9343023,19.0889868 18.9614586,19.6416696 18.7704545,20.0488617 C18.7053706,20.1869186 18.6073653,20.4200983 18.4412419,20.3953694 C18.7669652,19.8894135 18.6536371,19.5049781 18.4885757,19.1349552 C18.2614645,19.1364723 18.1062642,19.3283866 17.9196598,19.4344325 C17.7418546,19.535472 17.5282456,19.5946392 17.3845754,19.752722 C17.3604534,20.3122318 17.2313474,20.8189462 16.753458,21.2599699 C16.7903238,21.1079555 16.8933355,20.8186428 17.0054498,20.7365672 C16.9056241,20.4997465 16.9388488,20.2259083 16.7484516,20.0141199 C16.3793389,20.1488392 16.0302521,20.355166 15.6530988,20.4593914 C15.5959038,20.7590204 15.5751194,21.0481814 15.5035119,21.3514515 C15.4159747,21.427307 15.4065686,21.4077363 15.3599933,21.4479397 C15.3401192,21.5242503 15.2999158,21.578411 15.2459067,21.6495635 C15.1523011,21.772601 15.01121,21.9543507 14.8833177,21.9769556 C15.1321236,21.5866034 15.2930888,21.2208284 15.2668428,20.9069386 C15.2199642,20.8066577 14.9697929,20.7623581 15.0740183,20.6203567 C14.6914034,20.6373483 14.325325,20.7139623 13.9583363,20.7878455 C14.0266062,21.4285207 13.4273481,21.9552609 12.9341359,22.2054322 C12.9186614,21.9954643 13.169743,21.9628465 13.301428,21.7918683 C13.5147336,21.5145408 13.579059,21.1618129 13.6424742,20.8753827 C13.0811438,20.7927003 12.6181221,21.0653248 12.0766659,21.0542499 C12.0478408,21.1284365 12.0933541,21.1819904 12.1013948,21.2458607 C11.941188,21.5875137 11.6292704,21.9029207 11.3768235,22.2118041 C11.0586857,22.2727919 10.9383789,22.4166138 10.6211514,22.4496868 C10.7983498,22.2213619 11.1703449,22.1928402 11.3567976,21.9341731 C11.5136667,21.716468 11.5415815,21.427307 11.6219883,21.1519517 C11.3006646,21.0839852 11.0262196,21.1839627 10.7065647,21.1223681 C10.5113127,21.5303187 10.0463188,21.7917166 9.69450121,21.9698252 C9.59331004,21.9150576 9.48832609,21.9980434 9.34495928,22.0383985 C9.34222849,21.8885081 9.60635718,21.8256998 9.73698027,21.8162938 C9.92191586,21.529105 10.1772453,21.4966389 10.3571745,21.1907897 C10.101845,21.0545533 9.68251605,21.2102087 9.3410148,21.104011 C8.86555281,21.5040727 8.17162712,21.5394213 7.57343102,21.169095 C8.04221772,21.1219129 8.57593669,21.3095793 8.9668957,20.9811252 C8.76329966,20.7493109 8.41208891,20.686806 8.32257948,20.3943074 C7.80752095,20.4469511 7.21873091,20.2374383 6.90605473,19.681873 C6.99207482,19.6173959 7.15440549,19.8317634 7.20856628,19.8530029 C7.21038681,19.8536097 7.44280792,19.8965439 7.39562583,19.9145975 C7.49363108,19.8771249 7.42702999,19.9428158 7.65019673,20.0138165 C7.78552286,20.0573575 7.89763722,20.0106305 8.04767931,20.0171541 C8.07362188,19.8114341 7.96074896,19.6445521 8.02598465,19.4280606 C7.38424751,19.1026407 7.23314345,18.6746643 7.10555458,18.152627 C7.48073565,18.4185763 7.58101656,18.8048322 8.0906135,18.8432151 C8.17481305,18.5836377 8.17435792,18.3475756 8.35565245,18.0611454 C8.02325386,17.6539533 7.98320218,17.0681975 8.21471302,16.4279774 C8.22184343,16.548891 8.2658396,16.6594883 8.38857372,16.7480875 C8.32273119,16.9833911 8.37628514,17.3807219 8.55044926,17.6387822 C8.75738294,17.6011579 8.88679234,17.2843855 9.09008496,17.2340175 C9.17913926,16.8310733 9.10813856,16.0964891 9.65945599,15.9141326 C9.68342632,16.2569993 9.34465586,16.7004502 9.53474963,16.9971968 C9.89172539,16.9196725 10.2995243,16.8397209 10.583072,16.7917802 C10.4964451,16.4360181 10.2575004,15.9773961 10.6979172,15.5694454 C10.8522071,15.9329448 10.6326815,16.4000626 10.9852576,16.7084909 C11.2093346,16.698478 11.4042831,16.5842397 11.6168301,16.5335682 C11.5644899,16.315408 11.3825885,16.1995008 11.2983889,15.9981804 C11.2885277,15.9745135 11.2252643,15.7492228 11.2108517,15.6823183 C11.1644282,15.4681025 11.2581855,15.2161107 11.1410647,15.0216173 C11.1917362,14.9654843 11.2715361,15.0149421 11.3033954,14.8914494 C11.3619558,14.9008555 11.3112844,15.0689511 11.3853193,14.9820208 C11.4443348,15.152999 11.3860778,15.4143969 11.4551063,15.6428735 C11.4764975,15.7135708 11.5632762,15.7487677 11.5851225,15.8052042 C11.6263879,15.9129189 11.6291187,16.1612697 11.9079634,16.2542685 C12.3168243,16.39096 12.608716,15.7697038 12.9391424,15.3732832 C12.4814306,15.0956523 12.0053618,14.4479984 12.3726539,13.9429528 C12.4726314,14.323292 12.5832286,14.8462395 13.0955563,15.018128 C13.2616798,14.8207521 13.3668154,14.4247866 13.5948369,14.0577979 C13.2439296,13.5031429 12.9875382,12.9222418 13.1177061,12.2342328 C13.5244431,12.2776222 13.2351304,12.7461054 13.3745527,12.9568319 C13.5934715,13.14465 13.6489977,13.421219 13.846677,13.5343953 C14.0391982,13.1391884 14.2672197,12.8708118 14.4699054,12.5112569 C14.3069679,12.0147071 14.2943759,11.8206689 14.4310675,11.2467465 C14.6505931,11.2511462 14.4803735,10.7461005 14.7692311,10.7277435" id="Fill-75" fill="#339900"></path>
                    <path d="M16.5934334,13.935079 C16.5148471,14.1816092 16.5803862,14.3888463 16.5961642,14.5578523 C16.6016258,14.6159575 16.5570227,14.6905993 16.5680976,14.7640274 C16.6433463,15.2595152 17.2014907,15.9472208 17.7473465,16.0526598 C17.7870948,16.0602454 17.9218141,16.0261104 18.0780763,16.017918 C18.3614723,16.0024435 18.51379,16.0177663 18.6905332,15.87622 C18.7160207,15.8557391 18.7668438,15.8885086 18.7768567,15.8807714 C19.0267246,15.6864297 19.4009954,15.170916 19.4718444,14.8093889 C19.4845881,14.7444567 19.4490878,14.5458671 19.4413505,14.3926391 C19.424814,14.0653987 19.3808179,13.8763669 19.3422833,13.626499 C19.1543135,13.5462439 19.1353496,13.4192619 19.0296071,13.3164019 C18.6400135,13.1948815 18.5979896,13.1775864 18.3045807,12.9503235 C18.0503132,12.953206 17.7778404,12.890246 17.528276,12.9105752 C17.0981756,13.1798621 16.7405929,13.4741813 16.5934334,13.935079 M17.4026593,12.6620728 C17.5753064,12.6705686 17.7496222,12.6864982 17.8911685,12.5831831 C18.6538192,12.7515822 19.2080191,13.0012984 19.6874256,13.6440975 C19.701383,13.6630613 19.6504082,13.6985617 19.683026,13.7302693 C19.8940559,13.9375064 19.9626292,14.9348539 19.828365,15.2774171 C19.7896788,15.3760292 19.7138233,15.4963359 19.6572351,15.5797769 C19.2398784,16.1940544 18.6230219,16.2152939 17.9550388,16.3918854 C17.6268881,16.268241 17.4072107,16.3457653 17.1493021,16.2468498 C17.1288212,16.0676792 16.8524039,15.9243124 16.6495664,15.8751581 C16.617252,15.5820526 16.3217191,15.4078885 16.2580005,15.0767036 C16.2455603,15.0110127 16.2646758,14.7904251 16.2657378,14.5927458 C16.2678618,14.2004214 16.2552698,13.7073609 16.6099699,13.2784742 C16.8257028,13.0176831 17.1344345,12.8914597 17.4026593,12.6620728" id="Fill-77" fill="#6699FF"></path>
                    <path d="M18.5468478,5.19178216 C18.2168766,5.23137871 17.8196975,5.49065265 17.6485676,5.69075934 C17.4392065,5.93562074 17.3902039,6.49573741 17.4821407,6.85514055 C17.6107915,7.35745537 17.9079932,7.83655841 18.380421,8.01967348 C18.6997724,7.99206209 18.7545401,8.03818221 19.045825,8.05289817 C19.1762964,7.96065794 19.4193373,7.89147776 19.5448022,7.82002192 C19.798918,7.67574485 19.898592,7.52221341 20.0771558,7.42071882 C20.1440603,7.1770711 20.3126111,6.92735494 20.3434084,6.6888654 C20.3428016,6.69326501 20.2768073,6.62681564 20.2768073,6.62226431 C20.2760488,6.56780009 20.3522076,6.59920425 20.3434084,6.52259024 C20.3232309,6.34630217 20.1624173,6.20308707 20.2103579,5.95701198 C19.9157354,5.38172422 19.2043629,5.11274078 18.5468478,5.19178216 M16.1181079,6.72209009 C16.4570301,6.59890083 16.7659135,6.64046962 17.0829893,6.52259024 C17.1943451,5.83094022 16.2815006,5.99797393 16.3845123,5.42465841 C16.6841413,5.49095607 16.8652841,5.67543654 17.116214,5.79058511 C17.3108591,5.67467798 17.3877765,5.44119489 17.5487418,5.29160794 C17.4750103,4.92689492 16.9013913,4.79687867 17.2492644,4.45977703 C17.4106849,4.45386031 17.4340483,4.58539367 17.4821407,4.69265328 C17.6707173,4.78716917 17.7916309,4.99213061 17.8814438,5.09195639 C18.1296428,5.01109447 18.2871188,4.97271161 18.4137974,4.82585545 C18.3984746,4.43353105 18.410308,4.06821118 18.5134714,3.7945247 C18.6563831,3.76266541 18.6421223,3.88782691 18.7463477,3.89419877 C18.737245,4.1894282 18.7868545,4.44581963 18.7463477,4.82585545 C18.8454149,4.81387029 18.9155053,4.77275664 18.9793756,4.72602968 C19.0886075,4.7389251 19.1259284,4.82312466 19.2122519,4.85908014 C19.5746892,4.78216271 19.9171008,5.16841868 20.1105322,5.25823154 C20.1792572,5.40023295 20.2520784,5.53798645 20.4098578,5.59093356 C20.4726661,5.82760258 20.5538314,6.04606628 20.6759587,6.22311291 C20.7019013,6.66034375 20.6806618,6.68871369 20.7093351,7.1213932 C20.327327,7.73991857 19.7370199,8.31915081 18.9459992,8.41882488 C18.7680423,8.6180213 18.9904505,9.21743109 18.8129488,9.41693094 C18.7023515,9.4275507 18.7769933,9.25338658 18.6132972,9.31710516 C18.5826516,9.02612364 18.5513992,8.73574896 18.5468478,8.41882488 C18.4429259,8.42595529 18.0771509,8.28607783 17.9146685,8.41882488 C17.8222765,8.51470617 17.8260693,8.70722731 17.6817922,8.7515269 C17.7100105,8.93524881 17.6161014,8.9963883 17.4821407,9.01777954 C17.4578669,8.98683051 17.4217597,8.96741152 17.3824666,8.95117845 C17.3374085,8.66171404 17.533419,8.3566234 17.6817922,8.15272394 C17.5768083,8.01360504 17.4690936,7.87752036 17.3824666,7.72019615 C17.0892094,7.82593865 17.0324696,8.1688053 16.6504615,8.18594863 C16.493289,7.96596782 16.783512,7.84459909 16.783512,7.58714568 C16.9458426,7.5498248 17.0622049,7.46653551 17.1828151,7.38749413 C17.149287,7.28296531 17.178112,7.18799428 17.116214,7.05479211 C16.9708749,6.88138654 16.121749,7.14627378 16.1181079,6.72209009" id="Fill-79" fill="#FF1D25"></path>
                </g>
            </g>
        </g>
    </g>
</svg>