<?xml version="1.0" encoding="UTF-8"?>
<svg width="27px" height="15px" viewBox="0 0 27 15" version="1.1" xmlns="http://www.w3.org/2000/svg" xmlns:xlink="http://www.w3.org/1999/xlink">
    <!-- Generator: sketchtool 53.1 (72631) - https://sketchapp.com -->
    <title>856BAD95-E931-4EBD-B250-DB940FEC43C1</title>
    <desc>Created with sketchtool.</desc>
    <g id="Solstice" stroke="none" stroke-width="1" fill="none" fill-rule="evenodd">
        <g id="Solstice-Settings-Tank-List" transform="translate(-969.000000, -229.000000)" fill="#0A8FA1">
            <g id="Module" transform="translate(420.000000, 181.000000)">
                <g id="agGrid" transform="translate(549.000000, 48.000000)">
                    <g id="Group-Copy">
                        <path d="M25.6154937,10.3026225 L18.4626743,10.3026225 L18.4626743,13.9642857 L25.6154937,13.9642857 L25.6154937,10.3026225 Z M25.6154937,9.30262252 L25.6154937,6.01690823 L18.4626743,6.01690823 L18.4626743,9.30262252 L25.6154937,9.30262252 Z M25.6154937,5.01690823 L25.6154937,1.17022063 L18.4626743,1.17022063 L18.4626743,5.01690823 L25.6154937,5.01690823 Z M26.6154937,1.17022063 L26.6154937,13.9642857 L26.6154937,14.9642857 L1.17022063,14.9642857 L0.170220634,14.9642857 L0.170220634,1.17022063 L0.170220634,0.170220634 L26.6154937,0.170220634 L26.6154937,1.17022063 Z M8.89124571,13.9642857 L8.89124571,10.3026225 L1.17022063,10.3026225 L1.17022063,13.9642857 L8.89124571,13.9642857 Z M9.89124571,13.9642857 L17.4626743,13.9642857 L17.4626743,10.3026225 L9.89124571,10.3026225 L9.89124571,13.9642857 Z M1.17022063,9.30262252 L8.89124571,9.30262252 L8.89124571,6.01690823 L1.17022063,6.01690823 L1.17022063,9.30262252 Z M1.17022063,5.01690823 L8.89124571,5.01690823 L8.89124571,1.17022063 L1.17022063,1.17022063 L1.17022063,5.01690823 Z M9.89124571,9.30262252 L17.4626743,9.30262252 L17.4626743,6.01690823 L9.89124571,6.01690823 L9.89124571,9.30262252 Z M9.89124571,5.01690823 L17.4626743,5.01690823 L17.4626743,1.17022063 L9.89124571,1.17022063 L9.89124571,5.01690823 Z" id="Combined-Shape"></path>
                    </g>
                </g>
            </g>
        </g>
    </g>
</svg>