<?xml version="1.0" encoding="UTF-8"?>
<svg width="30px" height="14px" viewBox="0 0 30 14" version="1.1" xmlns="http://www.w3.org/2000/svg" xmlns:xlink="http://www.w3.org/1999/xlink">
    <!-- Generator: Sketch 52.5 (67469) - http://www.bohemiancoding.com/sketch -->
    <title>Group 10</title>
    <desc>Created with Sketch.</desc>
    <defs>
        <polygon id="path-1" points="9.95260664e-05 0.0655450237 29.8801422 0.0655450237 29.8801422 13.5070379 9.95260664e-05 13.5070379"></polygon>
    </defs>
    <g id="Solstice" stroke="none" stroke-width="1" fill="none" fill-rule="evenodd">
        <g id="Solstice-Contacts" transform="translate(-663.000000, -257.000000)">
            <g id="Contact-1" transform="translate(61.000000, 243.000000)">
                <g id="Request-Access" transform="translate(480.000000, 14.000000)">
                    <g id="Group-10" transform="translate(122.000000, 0.000000)">
                        <g id="Group-3" transform="translate(0.000000, 0.076621)">
                            <mask id="mask-2" fill="white">
                                <use xlink:href="#path-1"></use>
                            </mask>
                            <g id="Clip-2"></g>
                            <path d="M3.53412796,6.06035545 C3.34829858,6.24618483 3.23355924,6.50281991 3.23370142,6.78618483 C3.23355924,7.06969194 3.34844076,7.32632701 3.53412796,7.51201422 C3.71995735,7.6978436 3.97645024,7.81272512 4.25995735,7.81258294 C4.54346445,7.81272512 4.80009953,7.6978436 4.98578673,7.51201422 C5.17161611,7.32646919 5.28621327,7.06969194 5.28635545,6.78618483 C5.28635545,6.50267773 5.17161611,6.24604265 4.98578673,6.06035545 C4.80009953,5.87466825 4.54360664,5.75978673 4.25995735,5.75992891 C3.97645024,5.75978673 3.71981517,5.87466825 3.53412796,6.06035545 M13.0576351,4.54172986 L27.5740806,4.54187204 L29.8802417,6.66106635 L27.5740806,8.8328673 L13.1241754,8.8328673 C12.7944597,9.86580569 12.2217583,10.7901185 11.4731801,11.5385545 C10.2569716,12.754763 8.5766872,13.5070379 6.72081043,13.5070379 C4.86479147,13.5070379 3.18450711,12.754763 1.96829858,11.5386967 C0.752232227,10.3224882 -4.26540284e-05,8.64220379 9.95260664e-05,6.78618483 C9.95260664e-05,4.93030806 0.752374408,3.2500237 1.96844076,2.03395735 C3.18464929,0.817748815 4.86493365,0.0654739336 6.72066825,0.0654739336 C8.5766872,0.0654739336 10.2569716,0.817748815 11.4730379,2.03395735 C12.1735592,2.73433649 12.7199573,3.58869668 13.0576351,4.54172986" id="Fill-1" fill="#9B9B9B" mask="url(#mask-2)"></path>
                        </g>
                        <path d="M5.41620853,9.0497346 C4.77838863,9.0497346 4.20056872,8.791109 3.78255924,8.37295735 C3.36440758,7.95494787 3.10592417,7.37727014 3.10592417,6.73945024 C3.10592417,6.10163033 3.36440758,5.52395261 3.78270142,5.10594313 C4.20056872,4.68779147 4.77824645,4.42916588 5.41620853,4.4290237 C6.05374408,4.42916588 6.63156398,4.68779147 7.04957346,5.10594313 C7.46772512,5.52395261 7.72620853,6.10177251 7.72649289,6.73945024 C7.72635071,7.37727014 7.46772512,7.95494787 7.04971564,8.37295735 C6.63156398,8.791109 6.05388626,9.0497346 5.41620853,9.0497346" id="Fill-4" fill="#FFFFFF"></path>
                        <polygon id="Fill-6" fill="#9B9B9B" points="22.8597867 8.85499052 25.2651896 6.44958768 27.6704502 8.85484834 25.2650474 11.2602512"></polygon>
                        <polygon id="Fill-8" fill="#9B9B9B" points="22.8597867 8.85499052 20.4545261 6.44972986 18.0494076 8.85499052 20.4545261 11.2602512"></polygon>
                    </g>
                </g>
            </g>
        </g>
    </g>
</svg>