<?xml version="1.0" encoding="UTF-8"?>
<svg width="50px" height="50px" viewBox="0 0 50 50" version="1.1" xmlns="http://www.w3.org/2000/svg" xmlns:xlink="http://www.w3.org/1999/xlink">
    <!-- Generator: Sketch 53.1 (72631) - https://sketchapp.com -->
    <title>Hbug</title>
    <desc>Created with Sketch.</desc>
    <defs>
        <polygon id="path-1" points="0 0.921184211 49.0789474 0.921184211 49.0789474 50 0 50"></polygon>
    </defs>
    <g id="Solstice" stroke="none" stroke-width="1" fill="none" fill-rule="evenodd">
        <g id="Solstice-Settings-Gears-Hover" transform="translate(-512.000000, -344.000000)">
            <g id="Hbug" transform="translate(512.000000, 343.000000)">
                <g id="Group-3" transform="translate(0.000000, 0.394737)">
                    <mask id="mask-2" fill="white">
                        <use xlink:href="#path-1"></use>
                    </mask>
                    <g id="Clip-2"></g>
                    <path d="M37.1573684,18.9475 L35.0402632,36.4080263 L25.0402632,36.4080263 L26.0652632,27.9343421 L23.1981579,27.9343421 L22.1705263,36.4080263 L12.185,36.4080263 L14.5521053,16.9475 L24.5402632,16.9475 L23.5007895,25.4606579 L26.3692105,25.4606579 L27.4086842,16.9475 L35.2363158,16.9475 L37.3955263,16.9475 L47.5126316,16.9475 C44.0521053,7.60539474 35.0928947,0.921184211 24.5402632,0.921184211 C10.9863158,0.921184211 -0.000526315789,11.9080263 -0.000526315789,25.4606579 C-0.000526315789,39.0132895 10.9863158,50.0001316 24.5402632,50.0001316 C38.0915789,50.0001316 49.0797368,39.0132895 49.0797368,25.4606579 C49.0797368,23.1975 48.7507895,21.0264474 48.1705263,18.9475 L37.1573684,18.9475 Z" id="Fill-1" fill="#43494E" mask="url(#mask-2)"></path>
                </g>
                <path d="M35.2363158,17.3422368 L27.4086842,17.3422368 L26.3692105,25.8553947 L23.5007895,25.8553947 L24.5402632,17.3422368 L14.5521053,17.3422368 L12.1836842,36.8027632 L22.1705263,36.8027632 L23.1981579,28.3290789 L26.0652632,28.3290789 L25.0389474,36.8027632 L35.0271053,36.8027632 L37.1442105,19.3422368 L48.1573684,19.3422368 C47.9744737,18.6580263 47.7507895,18.0001316 47.5126316,17.3422368 L37.3955263,17.3422368 L35.2363158,17.3422368 Z" id="Fill-4" fill="#FFFFFF"></path>
            </g>
        </g>
    </g>
</svg>