<?xml version="1.0" encoding="UTF-8"?>
<svg width="23px" height="29px" viewBox="0 0 23 29" version="1.1" xmlns="http://www.w3.org/2000/svg" xmlns:xlink="http://www.w3.org/1999/xlink">
    <!-- Generator: Sketch 53.1 (72631) - https://sketchapp.com -->
    <title>SampleIcon</title>
    <desc>Created with Sketch.</desc>
    <g id="APX-Mobile" stroke="none" stroke-width="1" fill="none" fill-rule="evenodd">
        <g id="Asset-Tasks" transform="translate(-327.000000, -300.000000)" fill="#CC0000">
            <g id="ContentModule1" transform="translate(4.000000, 79.000000)">
                <g id="SampleIcon" transform="translate(323.000000, 221.000000)">
                    <path d="M11.0676539,21.3136846 C10.4128336,21.3136846 9.88192402,20.7827751 9.88192402,20.1279548 C9.88192402,19.4731345 10.4128336,18.9422249 11.0676539,18.9422249 C11.7224741,18.9422249 12.2533837,19.4731345 12.2533837,20.1279548 C12.2533837,20.7827751 11.7224741,21.3136846 11.0676539,21.3136846 M8.05233524,24.9199619 C6.90234886,24.9199619 5.97015931,23.9877723 5.97015931,22.8377859 C5.97015931,21.6877996 6.90234886,20.7551334 8.05233524,20.7551334 C9.20232162,20.7551334 10.1349877,21.6877996 10.1349877,22.8377859 C10.1349877,23.9877723 9.20232162,24.9199619 8.05233524,24.9199619 M18.524217,23.4873638 L17.3470656,21.1878676 L16.3019267,19.1504902 C16.3019267,19.1504902 16.2008919,20.6688725 12.5989039,18.5299837 C8.83392565,16.2938725 6.25563045,18.7282407 6.26039624,18.7434913 L5.90725082,19.4631264 L5.85196759,19.5651144 L3.90514025,23.4873638 C3.6525531,23.9963508 3.7178445,24.5506127 4.08433415,25.0086057 C4.45034722,25.4665986 5.03892293,25.7296705 5.69850899,25.7296705 L16.7308483,25.7296705 C17.3904344,25.7296705 17.9790101,25.4665986 18.3454997,25.0086057 C18.7115128,24.5506127 18.7768042,23.9963508 18.524217,23.4873638" id="Fill-1"></path>
                    <path d="M10.5326934,15.6082176 C10.5326934,16.1114856 10.1252179,16.5189611 9.62194989,16.5189611 C9.11868192,16.5189611 8.71072985,16.1114856 8.71072985,15.6082176 C8.71072985,15.1049496 9.11868192,14.6969975 9.62194989,14.6969975 C10.1252179,14.6969975 10.5326934,15.1049496 10.5326934,15.6082176" id="Fill-3"></path>
                    <g id="Group-7" transform="translate(0.000000, 0.137207)">
                        <path d="M20.2355188,26.0034654 C19.7355869,26.6287377 18.9234954,26.9871255 18.0079861,26.9871255 L4.42165714,26.9871255 C3.5056713,26.9871255 2.69405637,26.6287377 2.19412446,26.0034654 C1.71897467,25.4096473 1.63319036,24.6938249 1.95821759,24.0390046 L7.78821487,12.2913194 C7.84063862,12.1859954 7.86685049,12.0739992 7.86685049,11.9586669 L7.86685049,10.6128064 L10.2287786,10.6128064 L10.2287786,8.89187772 L7.86685049,8.89187772 L7.86685049,6.36171705 L10.2287786,6.36171705 L10.2287786,4.6407884 L7.86685049,4.6407884 L7.86685049,2.16114515 L14.5623162,2.16114515 L14.5623162,11.9586669 C14.5623162,12.0744758 14.5890046,12.1864719 14.6409518,12.2913194 L20.4714257,24.0390046 C20.7959763,24.6938249 20.710192,25.4096473 20.2355188,26.0034654 M22.0789284,23.373223 L16.3270901,11.7842388 L16.3270901,2.16114515 L17.9960716,2.16114515 L17.9960716,0.339181645 L4.43357162,0.339181645 L4.43357162,2.16114515 L6.10207653,2.16114515 L6.10207653,11.7842388 L0.350714869,23.373223 C-0.235954521,24.5546637 -0.0796364379,25.892899 0.76724537,26.9523352 C1.58982162,27.9807938 2.95569853,28.5946283 4.42165714,28.5946283 L18.0079861,28.5946283 C19.4734681,28.5946283 20.8398216,27.9807938 21.6619213,26.9523352 C22.5092797,25.892899 22.6651212,24.5546637 22.0789284,23.373223" id="Fill-5"></path>
                    </g>
                </g>
            </g>
        </g>
    </g>
</svg>