<?xml version="1.0" encoding="utf-8"?>
<!-- Generator: Adobe Illustrator 24.0.3, SVG Export Plug-In . SVG Version: 6.00 Build 0)  -->
<svg version="1.1" id="Layer_1" xmlns="http://www.w3.org/2000/svg" xmlns:xlink="http://www.w3.org/1999/xlink" x="0px" y="0px"
	 viewBox="0 0 252 252" style="enable-background:new 0 0 252 252;" xml:space="preserve">
<style type="text/css">
	.st0{fill-rule:evenodd;clip-rule:evenodd;fill:#FFFFFF;}
	.st1{fill:#666666;}
	.st2{fill:#CC0000;}
	.st3{fill:#43494E;}
	.st4{fill-rule:evenodd;clip-rule:evenodd;fill:#FEFEFE;}
	.st5{fill-rule:evenodd;clip-rule:evenodd;fill:#CB2026;}
</style>
<title>icon</title>
<desc>Created with Sketch.</desc>
<path class="st0" d="M251,126c0,69-56,125-125,125C57,251,1,195,1,126C1,57,57,1,126,1C195,1,251,57,251,126z"/>
<path class="st1" d="M126,252C56.5,252,0,195.5,0,126S56.5,0,126,0s126,56.5,126,126S195.5,252,126,252z M126,2C57.6,2,2,57.6,2,126
	s55.6,124,124,124s124-55.6,124-124S194.4,2,126,2z"/>
<g id="Stroke-7">
	<path class="st2" d="M126,226.5c-55.4,0-100.5-45.1-100.5-100.5S70.6,25.5,126,25.5S226.5,70.6,226.5,126S181.4,226.5,126,226.5z
		 M126,26.5c-54.9,0-99.5,44.6-99.5,99.5s44.6,99.5,99.5,99.5s99.5-44.6,99.5-99.5S180.9,26.5,126,26.5z"/>
</g>
<g id="Stroke-1">
	<path class="st3" d="M120.8,183.1l-10.6-19.2l-18.8,11.7l12.8-52.2l29.7,6.6L120.8,183.1z M112,156.9l7,12.6l8.8-35.8l-19.9-4.4
		l-8.7,35.6L112,156.9z"/>
</g>
<g id="Stroke-3_1_">
	<path class="st3" d="M132.8,183.1l-13.1-53.2l29.7-6.6l12.8,52.2l-18.8-11.7L132.8,183.1z M125.8,133.7l8.8,35.8l7-12.6l12.8,8
		l-8.7-35.6L125.8,133.7z"/>
</g>
<path id="Fill-5" class="st4" d="M162.5,111.5c0,19.9-16.1,36-36,36c-19.9,0-36-16.1-36-36c0-19.9,16.1-36,36-36
	C146.4,75.5,162.5,91.6,162.5,111.5"/>
<g id="Stroke-7_1_">
	<path class="st3" d="M126.5,151c-21.8,0-39.5-17.7-39.5-39.5S104.7,72,126.5,72S166,89.7,166,111.5S148.3,151,126.5,151z M126.5,79
		C108.6,79,94,93.6,94,111.5c0,17.9,14.6,32.5,32.5,32.5c17.9,0,32.5-14.6,32.5-32.5C159,93.6,144.4,79,126.5,79z"/>
</g>
<path id="Fill-9" class="st4" d="M157.6,111.4c0,17-13.8,30.8-30.8,30.8s-30.7-13.8-30.7-30.8s13.8-30.8,30.7-30.8
	C143.5,80.7,157.6,94.8,157.6,111.4"/>
<path id="Fill-11" class="st5" d="M150.5,121.1v-3.9h0l-4.4-1.7c0-9.4-5.9-17.3-13.9-19.8v-3h-10.8v3c-8,2.5-13.9,10.4-13.9,19.8
	l-4.4,1.7h0v3.9H150.5z"/>
<path id="Fill-13" class="st4" d="M139.1,117.4h-24.6c-0.7,0-1.3-0.6-1.3-1.3c0-0.7,0.6-1.3,1.3-1.3h24.6c0.7,0,1.3,0.6,1.3,1.3
	C140.3,116.8,139.8,117.4,139.1,117.4"/>
<path id="Fill-15" class="st4" d="M121.4,95.6V110c0,0.5-0.3,0.8-0.6,0.8h-0.2c-0.3,0-0.7-0.4-0.8-0.8l-2.3-12.3
	c-0.1-0.4,0-1.1,0.3-1.4l1.6-2.2c0.2-0.3,0.6-0.3,0.9,0C120.3,94.1,121.5,95.6,121.4,95.6"/>
<path id="Fill-17" class="st4" d="M132.2,95.6V110c0,0.5,0.3,0.8,0.6,0.8h0.2c0.3,0,0.6-0.4,0.7-0.8l2.1-12.3c0.1-0.4,0-1.1-0.3-1.4
	l-1.5-2.2c-0.2-0.3-0.6-0.3-0.8,0C133.2,94.1,132.1,95.6,132.2,95.6"/>
</svg>
