<?xml version="1.0" encoding="UTF-8"?>
<svg width="21px" height="35px" viewBox="0 0 21 35" version="1.1" xmlns="http://www.w3.org/2000/svg" xmlns:xlink="http://www.w3.org/1999/xlink">
    <!-- Generator: Sketch 53.1 (72631) - https://sketchapp.com -->
    <title>Fill 1</title>
    <desc>Created with Sketch.</desc>
    <g id="Solstice" stroke="none" stroke-width="1" fill="none" fill-rule="evenodd">
        <g id="Stim-Manage-Landing" transform="translate(-649.000000, -740.000000)" fill="#CC0000">
            <g id="WellCard-4" transform="translate(52.000000, 655.500000)">
                <g id="barrel" transform="translate(597.000000, 84.500000)">
                    <path d="M20.3241866,22.2363881 C20.3241866,23.1390746 19.2950821,23.7340746 16.990306,24.1645224 C15.1598582,24.5098209 12.7349328,24.6999701 10.1606045,24.6999701 C7.58941045,24.6999701 5.16396269,24.5098209 3.33403731,24.1645224 C1.02560448,23.7340746 0.000156716418,23.1390746 0.000156716418,22.2363881 C0.000156716418,21.7709403 0.288514925,21.4256418 0.683962687,21.1691493 L0.68030597,20.2554925 L0.68030597,14.287209 C1.41687313,14.6502687 2.3326194,14.8717612 3.19142537,15.0321343 C5.05530597,15.3837015 7.53090299,15.5769851 10.1606045,15.5769851 C12.7923955,15.5769851 15.2685149,15.3837015 17.1313507,15.0321343 C17.9896343,14.8717612 18.9048582,14.6502687 19.6393358,14.2882537 L19.6393358,20.2570597 L19.6367239,21.172806 L19.6393358,21.1942239 L19.6393358,21.1916119 C19.6393358,21.1853433 19.6367239,21.1790746 19.6367239,21.172806 C20.0358284,21.4319104 20.3241866,21.7740746 20.3241866,22.2363881 M19.6393358,11.2866119 L19.6393358,10.3698209 L19.6393358,4.40832836 C18.9236642,4.75676119 18.0241119,4.97616418 17.1323955,5.14385075 C15.2507537,5.49541791 12.7751567,5.68870149 10.1606045,5.68870149 C7.54814179,5.68870149 5.07358955,5.49541791 3.19299254,5.14385075 C2.29918657,4.97616418 1.39806716,4.75676119 0.68030597,4.40728358 L0.68030597,10.367209 L0.683962687,11.2808657 C0.288514925,11.5373582 0.000156716418,11.8795224 0.000156716418,12.3481045 C0.000156716418,13.2502687 1.02560448,13.845791 3.33403731,14.2762388 C5.16396269,14.6215373 7.58941045,14.8085522 10.1606045,14.8085522 C12.7349328,14.8085522 15.1598582,14.6215373 16.990306,14.2762388 C19.2950821,13.845791 20.3241866,13.2502687 20.3241866,12.3481045 C20.3241866,11.8873582 20.0379179,11.5457164 19.6393358,11.2866119 M18.4273955,2.46034328 C18.4273955,1.6678806 14.7262761,1.02586567 10.1606045,1.02586567 C5.59493284,1.02586567 1.89381343,1.6678806 1.89381343,2.46034328 C1.89381343,3.25228358 5.59493284,3.8948209 10.1606045,3.8948209 C14.7262761,3.8948209 18.4273955,3.25228358 18.4273955,2.46034328 M20.3241866,2.46034328 C20.3241866,3.36250746 19.2950821,3.95437313 16.990306,4.38847761 C15.1598582,4.7301194 12.7349328,4.92026866 10.1606045,4.92026866 C7.58941045,4.92026866 5.16396269,4.7301194 3.33403731,4.38847761 C1.02560448,3.95437313 0.000156716418,3.36250746 0.000156716418,2.46034328 C0.000156716418,1.55765672 1.02560448,0.962134328 3.33403731,0.531686567 C5.16396269,0.186910448 7.58941045,-0.000104477612 10.1606045,-0.000104477612 C12.7349328,-0.000104477612 15.1598582,0.186910448 16.990306,0.531686567 C19.2950821,0.962134328 20.3241866,1.55765672 20.3241866,2.46034328 M20.3241866,32.127806 C20.3241866,33.0268358 19.2950821,33.6223582 16.990306,34.0559403 C15.1598582,34.3975821 12.7349328,34.5877313 10.1606045,34.5877313 C7.58941045,34.5877313 5.16396269,34.3975821 3.33403731,34.0559403 C1.02560448,33.6223582 0.000156716418,33.0268358 0.000156716418,32.127806 C0.000156716418,31.6602687 0.286947761,31.3160149 0.68030597,31.0600448 L0.68030597,24.1754925 C1.41687313,24.5385522 2.3326194,24.7595224 3.19142537,24.9198955 C5.0673209,25.2735522 7.54239552,25.468403 10.1606045,25.468403 C12.780903,25.468403 15.2570224,25.2735522 17.1313507,24.9204179 C17.9896343,24.7595224 18.9048582,24.5385522 19.6393358,24.1765373 L19.6393358,31.0631791 C20.0379179,31.3222836 20.3241866,31.6665373 20.3241866,32.127806" id="Fill-1"></path>
                </g>
            </g>
        </g>
    </g>
</svg>