<svg id="Layer_3" enable-background="new 0 0 64 64" height="512" viewBox="0 0 64 64" width="512" xmlns="http://www.w3.org/2000/svg"><g><path d="m22 19h4v16h-4z" fill="#f4b2b0"/><path d="m52.5 19h-5c-.828 0-1.5-.672-1.5-1.5 0-.828.672-1.5 1.5-1.5h5c.828 0 1.5.672 1.5 1.5 0 .828-.672 1.5-1.5 1.5z" fill="#f4b2b0"/><path d="m40.5 19h-5c-.828 0-1.5-.672-1.5-1.5 0-.828.672-1.5 1.5-1.5h5c.828 0 1.5.672 1.5 1.5 0 .828-.672 1.5-1.5 1.5z" fill="#f4b2b0"/><g fill="#b3404a"><path d="m3 36.815v2.184s0 0 0 0v3c0 2.206 1.794 4 4 4h3c.553 0 1-.447 1-1v-1h2.813c-.514.884-.813 1.907-.813 3.001 0 3.308 2.691 6 6 6 3.308 0 6-2.691 6-6 0-1.094-.299-2.117-.812-3h1.812v1c0 1.654 1.346 3 3 3h1.091c.478 2.833 2.942 5 5.91 5 2.967 0 5.431-2.167 5.909-5h1.09c1.654 0 3-1.346 3-3v-1h1.813c-.514.883-.813 1.906-.813 3 0 3.308 2.691 6 6 6 3.308 0 6-2.691 6-6 0-1.101-.303-2.13-.823-3.018 1.57-.094 2.822-1.388 2.822-2.982v-1h1c.553 0 1-.447 1-1v-4c0-.553-.447-1-1-1h-1.726c1.667-1.467 2.726-3.61 2.726-6 0-4.412-3.588-8-7.999-8h-1v-.513c.603-.457.999-1.173.999-1.987 0-1.379-1.121-2.5-2.499-2.5h-5c-1.379 0-2.5 1.122-2.5 2.5 0 .813.396 1.53 1 1.987v.513h-4v-.513c.603-.457.999-1.173.999-1.987 0-1.379-1.121-2.5-2.499-2.5h-5c-1.379 0-2.5 1.122-2.5 2.5 0 .813.396 1.53 1 1.987v.513h-1c-2.391 0-4.533 1.059-6 2.727v-3.727c0-.553-.447-1-1-1h-1v-3c0-.266-.105-.52-.292-.708l-3-3-1.415 1.415 2.707 2.707v2.586h-1c-.553 0-1 .447-1 1v1h-7.343c-1.336 0-2.591.52-3.536 1.464l-5.657 5.657c-.944.944-1.464 2.2-1.464 3.536v.527c-1.162.414-2 1.514-2 2.816s.838 2.401 2 2.815zm3.999-.816v-3h10v1.101c-1.955.399-3.49 1.945-3.89 3.899h-8.109v-1h1c.552 0 .999-.447.999-1zm2 5.001h-3.999v-1h4v1zm-1.999 2.999c-.737 0-1.375-.405-1.722-1h3.721v1zm12 7c-2.206 0-4-1.794-4-4s1.794-4 4-4 4 1.794 4 4c-.001 2.206-1.795 4-4 4zm9-5.999v-1h2.813c-.353.608-.6 1.282-.722 2h-1.091c-.552-.001-1-.449-1-1zm8 5.999c-2.206 0-4-1.794-4-4s1.794-4 4-4 4 1.794 4 4-1.794 4-4 4zm7.999-5.999c0 .551-.448 1-1 1h-1.09c-.121-.718-.369-1.392-.722-2h2.812zm9.001 5.999c-2.206 0-4-1.794-4-4s1.794-4 4-4 4 1.794 4 4-1.794 4-4 4zm5.999-9.999c0 .551-.448 1-1 1h-1.691c-.949-.63-2.086-1-3.308-1-1.223 0-2.36.369-3.31 1h-10.381c-.949-.631-2.087-1-3.309-1-1.223 0-2.36.369-3.31 1h-10.381c-.949-.631-2.087-1-3.309-1-1.223 0-2.36.369-3.309 1h-4.691v-2h11 36.999zm-34-21v14h-1.999v-13c0-.001 0-.002 0-.002v-.998zm11.001 0h4l.001 2h-4.001zm.999 3.999h2v1h-2zm2.001 3v1h-2v-1zm0 3v1h-2v-1zm0 3v1h-2v-1zm-8.001 5v-2h22.001v2zm-1.999 0h-6v-2h6zm31.999 0h-6v-2h6zm-8.998-16h-4.001v-2h4zm-4.501-4.999h5c.275 0 .499.224.499.5 0 .275-.224.499-.499.499h-5c-.276 0-.5-.224-.5-.5 0-.275.224-.499.5-.499zm-1.5 4.999c0 1.103.897 2 2 2h4c1.102 0 1.999-.897 1.999-2h1.001c3.308 0 5.999 2.691 5.999 6 0 3.308-2.691 5.999-5.999 5.999h-14v-1h1v-2h-1v-1h1v-2h-1v-1h1v-2h-1v-1.278c.595-.347 1-.985 1-1.722h4zm-10.5-4.999h5c.275 0 .499.224.499.5 0 .275-.224.499-.499.499h-5c-.276 0-.5-.224-.5-.5 0-.275.224-.499.5-.499zm-2.5 5h1c0 .737.405 1.375 1 1.721v1.279h-1v2h1v1h-1v2h1v1h-1v2h1v1h-2c-3.309 0-6-2.691-6-6s2.691-6 6-6zm-5.274 12h-.727v-.727c.227.257.469.5.727.727zm-14.069-12h7.343v13s0 0 0 0v3h-5.816c.414-1.161 1.514-2 2.815-2 .553 0 1-.447 1-1v-3-8c0-.553-.447-1-1-1h-6.585l.121-.121c.567-.567 1.32-.879 2.122-.879zm-7.779 6.535 3.536-3.535h7.585v6h-10.999-1v-.343c0-.802.312-1.555.878-2.122zm-1.878 4.465h1v2h-1c-.552 0-1-.448-1-1s.448-1 1-1z"/><path d="m19 45c-1.103 0-2 .897-2 2s.897 2 2 2 2-.897 2-2c-.001-1.104-.898-2-2-2z"/><path d="m36 45c-1.103 0-2 .897-2 2s.897 2 2 2 2-.897 2-2c0-1.104-.897-2-2-2z"/><path d="m53 45c-1.103 0-2 .897-2 2s.897 2 2 2 2-.897 2-2c0-1.104-.897-2-2-2z"/><path d="m59.999 28h-2c0 1.654-1.345 2.999-2.999 2.999v2c2.756 0 4.999-2.243 4.999-4.999z"/><path d="m9 34h4v2h-4z"/></g></g></svg>