<?xml version="1.0" encoding="utf-8"?>
<!-- Generator: Adobe Illustrator 23.0.6, SVG Export Plug-In . SVG Version: 6.00 Build 0)  -->
<svg version="1.1" id="Layer_1" xmlns="http://www.w3.org/2000/svg" xmlns:xlink="http://www.w3.org/1999/xlink" x="0px" y="0px"
	 viewBox="0 0 252 252" style="enable-background:new 0 0 252 252;" xml:space="preserve">
<style type="text/css">
	.st0{fill-rule:evenodd;clip-rule:evenodd;fill:#FFFFFF;stroke:#666666;stroke-width:2;}
	.st1{fill:none;stroke:#CC0000;}
	.st2{enable-background:new    ;}
	.st3{fill:#999999;}
</style>
<title>Temp Icon</title>
<desc>Created with Sketch.</desc>
<g id="Solstice">
	<g id="CustomerAsset" transform="translate(1067.000000, 187.000000)">
		<g id="icon" transform="translate(30.000000, 79.000000)">
			<path id="Stroke-3" class="st0" d="M-846-140c0,69-56,125-125,125s-125-56-125-125s56-125,125-125S-846-209-846-140z"/>
			<path id="Stroke-7" class="st1" d="M-871-140c0,55.2-44.8,100-100,100c-55.2,0-100-44.8-100-100s44.8-100,100-100
				C-915.8-240-871-195.2-871-140z"/>
			<g class="st2">
				<path class="st3" d="M-1015.4-141.3c-0.1-1.4-1-2.1-2.5-2.1c-1.7,0-2.7,1.7-2.7,3.8s1,3.8,2.7,3.8c1.4,0,2.4-0.9,2.5-2.1h1.2
					c-0.3,2.1-1.5,3.1-3.5,3.1c-2.7,0-4-2.3-4-4.8c0-2.4,1.4-4.8,4-4.8c1.9,0,3.4,1.1,3.5,3h-1.2V-141.3z"/>
				<path class="st3" d="M-1004.3-139.5c0,2.4-1.3,4.8-4.2,4.8s-4.2-2.4-4.2-4.8s1.3-4.8,4.2-4.8S-1004.3-141.9-1004.3-139.5z
					 M-1008.5-143.3c-2.2,0-3,2.1-3,3.8c0,1.7,0.9,3.8,3,3.8s3-2.1,3-3.8C-1005.5-141.2-1006.3-143.3-1008.5-143.3z"/>
				<path class="st3" d="M-1001-142.7L-1001-142.7c0.7-1.1,1.7-1.6,2.9-1.6c1.4,0,2.5,0.8,2.9,2c0.7-1.1,1.7-2,3.1-2
					c3,0,3.2,2.6,3.2,3.7v5.7h-1.1v-5.8c0-1.6-0.9-2.5-2.4-2.5c-1.8,0-2.6,1.5-2.6,3.1v5.2h-1v-5.8c0-1.6-0.9-2.5-2.4-2.5
					c-1.8,0-2.6,1.5-2.6,3.1v5.2h-1.1v-7c0-0.7-0.1-1.4-0.1-2h1.1L-1001-142.7z"/>
				<path class="st3" d="M-984.9-146.6h-1.3v-1.4h1.3V-146.6z M-985-144v9h-1.1v-9H-985z"/>
				<path class="st3" d="M-981-135h-1.1v-7c0-0.7-0.1-1.4-0.1-2h1.1l0.1,1.3l0,0c0.6-1.1,1.7-1.6,2.8-1.6c3,0,3.2,2.6,3.2,3.7v5.7
					h-1v-5.8c0-1.6-0.9-2.5-2.4-2.5c-1.8,0-2.6,1.5-2.6,3.1V-135z"/>
				<path class="st3" d="M-965.8-144h1.1c0,0.6-0.1,1.3-0.1,2v5.4c0,1.8,0.1,3.7-1.9,4.6c-0.7,0.3-1.2,0.4-2.1,0.4
					c-1.6,0-3.6-0.6-3.6-2.4h1.2c0.1,1.1,1.4,1.4,2.6,1.4c1.4,0,2.7-1,2.7-2.5v-1.7l0,0c-0.5,1.1-1.8,1.7-2.9,1.7
					c-2.7,0-3.9-2.1-3.9-4.6c0-2.4,1.1-4.7,3.9-4.7c1.3,0,2.2,0.6,3,1.7v-0.1V-144z M-968.7-143.3c-2,0-2.8,2-2.8,3.6
					c0,1.6,0.8,3.7,2.8,3.7c2.1,0,2.9-1.9,2.9-3.7C-965.8-141.4-966.8-143.3-968.7-143.3z"/>
				<path class="st3" d="M-954.1-144.3c1.7,0,3.2,0.6,3.3,2.5h-1.2c-0.1-1.1-1.1-1.5-2.2-1.5c-1,0-2,0.4-2,1.5
					c0,1.3,1.7,1.2,4.2,2.1c0.9,0.3,1.5,1.1,1.5,2.1c0,2-1.9,3-3.8,3c-1.6,0-3.4-0.7-3.4-2.7h1.2c0.1,1.4,1.3,1.7,2.5,1.7
					s2.4-0.5,2.4-1.8s-1.4-1.5-2.9-1.8c-1.4-0.3-2.9-0.8-2.9-2.4C-957.4-143.7-955.6-144.3-954.1-144.3z"/>
				<path class="st3" d="M-940.3-139.5c0,2.4-1.3,4.8-4.2,4.8s-4.2-2.4-4.2-4.8s1.3-4.8,4.2-4.8S-940.3-141.9-940.3-139.5z
					 M-944.5-143.3c-2.2,0-3,2.1-3,3.8c0,1.7,0.9,3.8,3,3.8s3-2.1,3-3.8C-941.5-141.2-942.3-143.3-944.5-143.3z"/>
				<path class="st3" d="M-930.3-139.5c0,2.4-1.3,4.8-4.2,4.8s-4.2-2.4-4.2-4.8s1.3-4.8,4.2-4.8S-930.3-141.9-930.3-139.5z
					 M-934.5-143.3c-2.2,0-3,2.1-3,3.8c0,1.7,0.9,3.8,3,3.8s3-2.1,3-3.8C-931.4-141.2-932.3-143.3-934.5-143.3z"/>
				<path class="st3" d="M-927-135h-1v-7c0-0.7-0.1-1.4-0.1-2h1.1l0.1,1.3l0,0c0.6-1.1,1.7-1.6,2.8-1.6c3,0,3.2,2.6,3.2,3.7v5.7
					h-1.1v-5.8c0-1.6-0.9-2.5-2.4-2.5c-1.8,0-2.6,1.5-2.6,3.1V-135z"/>
			</g>
		</g>
	</g>
</g>
</svg>
