<?xml version="1.0" encoding="UTF-8"?>
<svg width="45px" height="23px" viewBox="0 0 45 23" version="1.1" xmlns="http://www.w3.org/2000/svg" xmlns:xlink="http://www.w3.org/1999/xlink">
    <!-- Generator: Sketch 53.1 (72631) - https://sketchapp.com -->
    <title>Group 4</title>
    <desc>Created with Sketch.</desc>
    <defs>
        <polygon id="path-1" points="0.000157894737 0.0419605263 44.5051579 0.0419605263 44.5051579 20.5263158 0.000157894737 20.5263158"></polygon>
        <polygon id="path-3" points="0.330947368 0.231315789 25.1060526 0.231315789 25.1060526 12.9333553 0.330947368 12.9333553"></polygon>
    </defs>
    <g id="Solstice" stroke="none" stroke-width="1" fill="none" fill-rule="evenodd">
        <g id="Assets-Landing" transform="translate(-1240.000000, -610.000000)">
            <g id="LocationCard-7" transform="translate(728.000000, 513.500000)">
                <g id="Group-4" transform="translate(512.000000, 96.500000)">
                    <g id="Group-7" transform="translate(0.000000, 0.500000)">
                        <g id="Group-3" transform="translate(0.000000, 1.347789)">
                            <mask id="mask-2" fill="white">
                                <use xlink:href="#path-1"></use>
                            </mask>
                            <g id="Clip-2"></g>
                            <path d="M35.1254211,18.6376184 C33.7639737,18.6376184 32.6563421,17.5295921 32.6563421,16.1681447 C32.6563421,14.8063026 33.7639737,13.6986711 35.1254211,13.6986711 C36.4868684,13.6986711 37.5948947,14.8063026 37.5948947,16.1681447 C37.5948947,17.5295921 36.4868684,18.6376184 35.1254211,18.6376184 L35.1254211,18.6376184 Z M17.3543684,14.05275 C17.3543684,14.6985395 16.8289737,15.2235395 16.1835789,15.2235395 L12.1126579,15.2235395 C11.6796316,13.2735395 9.93923684,11.81025 7.86094737,11.81025 C5.78226316,11.81025 4.04186842,13.2735395 3.60844737,15.2235395 L3.29818421,15.2235395 C2.52094737,15.2235395 1.88897368,14.5915658 1.88897368,13.8143289 L1.88897368,10.0749868 C1.88897368,9.29775 2.52094737,8.66538158 3.29818421,8.66538158 L5.59357895,8.66538158 L5.92239474,8.66538158 L12.9013421,8.66538158 C14.2387105,8.66538158 15.3266053,7.57748684 15.3266053,6.24011842 L15.3266053,1.93077632 L16.7618684,1.93077632 C17.0887105,1.93077632 17.3543684,2.19643421 17.3543684,2.52288158 L17.3543684,14.05275 Z M7.86094737,18.6376184 C6.49910526,18.6376184 5.39147368,17.5295921 5.39147368,16.1681447 C5.39147368,14.8063026 6.49910526,13.6986711 7.86094737,13.6986711 C9.22239474,13.6986711 10.3304211,14.8063026 10.3304211,16.1681447 C10.3304211,17.5295921 9.22239474,18.6376184 7.86094737,18.6376184 L7.86094737,18.6376184 Z M9.97239474,2.51143421 C10.1002895,2.16406579 10.4354211,1.93077632 10.8056842,1.93077632 L13.4381842,1.93077632 L13.4381842,6.24011842 C13.4381842,6.53617105 13.197,6.77696053 12.9013421,6.77696053 L8.40094737,6.77696053 L9.97239474,2.51143421 Z M43.5605526,15.2235395 L39.3771316,15.2235395 C38.9445,13.2735395 37.2041053,11.81025 35.1254211,11.81025 C33.0467368,11.81025 31.3063421,13.2735395 30.8737105,15.2235395 L19.0095,15.2235395 C19.1598947,14.86275 19.2435789,14.4676184 19.2435789,14.05275 L19.2435789,2.52288158 C19.2435789,1.15511842 18.1300263,0.0419605263 16.7618684,0.0419605263 L10.8056842,0.0419605263 C9.64752632,0.0419605263 8.60028947,0.771828947 8.19963158,1.85853947 L6.54923684,6.33959211 C6.45252632,6.60090789 6.20107895,6.77696053 5.92239474,6.77696053 L5.59357895,6.77696053 L3.29818421,6.77696053 C1.47963158,6.77696053 0.000157894737,8.25643421 0.000157894737,10.0749868 L0.000157894737,13.8143289 C0.000157894737,15.6328816 1.47963158,17.1123553 3.29818421,17.1123553 L3.60844737,17.1123553 C4.04186842,19.06275 5.78226316,20.5264342 7.86094737,20.5264342 C9.93923684,20.5264342 11.6796316,19.06275 12.1126579,17.1123553 L16.1835789,17.1123553 L30.8737105,17.1123553 C31.3063421,19.06275 33.0467368,20.5264342 35.1254211,20.5264342 C37.2041053,20.5264342 38.9445,19.06275 39.3771316,17.1123553 L43.5605526,17.1123553 C44.0823947,17.1123553 44.5051579,16.6895921 44.5051579,16.1681447 C44.5051579,15.6463026 44.0823947,15.2235395 43.5605526,15.2235395 L43.5605526,15.2235395 Z" id="Fill-1" fill="#CC0000" mask="url(#mask-2)"></path>
                        </g>
                        <g id="Group-6" transform="translate(19.736842, 0.163579)">
                            <mask id="mask-4" fill="white">
                                <use xlink:href="#path-3"></use>
                            </mask>
                            <g id="Clip-5"></g>
                            <path d="M23.2173947,7.18756579 C23.2173947,9.31440789 21.4868684,11.0445395 19.3604211,11.0445395 L6.07673684,11.0445395 C3.94989474,11.0445395 2.22015789,9.31440789 2.22015789,7.18756579 L2.22015789,6.97164474 C2.22015789,4.84480263 3.94989474,3.11506579 6.07673684,3.11506579 L19.3604211,3.11506579 C21.4868684,3.11506579 23.2173947,4.84480263 23.2173947,6.97164474 L23.2173947,7.18756579 Z M19.3604211,1.22585526 L14.9295,1.22585526 C14.9295,1.22467105 14.9298947,1.22348684 14.9298947,1.22190789 L14.9298947,1.17927632 C14.9298947,0.655855263 14.5055526,0.231118421 13.9817368,0.231118421 L11.4554211,0.231118421 C10.932,0.231118421 10.5072632,0.655855263 10.5072632,1.17927632 L10.5072632,1.22190789 C10.5072632,1.22348684 10.5076579,1.22467105 10.5076579,1.22585526 L6.07673684,1.22585526 C2.90857895,1.22585526 0.330947368,3.80348684 0.330947368,6.97164474 L0.330947368,7.18756579 C0.330947368,10.3557237 2.90857895,12.9333553 6.07673684,12.9333553 L19.3604211,12.9333553 C22.5285789,12.9333553 25.1062105,10.3557237 25.1062105,7.18756579 L25.1062105,6.97164474 C25.1062105,3.80348684 22.5285789,1.22585526 19.3604211,1.22585526 L19.3604211,1.22585526 Z" id="Fill-4" fill="#CC0000" mask="url(#mask-4)"></path>
                        </g>
                    </g>
                </g>
            </g>
        </g>
    </g>
</svg>