<?xml version="1.0" encoding="UTF-8"?>
<svg width="132px" height="132px" viewBox="0 0 132 132" version="1.1" xmlns="http://www.w3.org/2000/svg" xmlns:xlink="http://www.w3.org/1999/xlink">
    <!-- Generator: Sketch 53.1 (72631) - https://sketchapp.com -->
    <title>Batch</title>
    <desc>Created with Sketch.</desc>
    <g id="APX-Mobile" stroke="none" stroke-width="1" fill="none" fill-rule="evenodd">
        <g id="Delivery-Selection" transform="translate(-122.000000, -247.000000)">
            <g id="Batch" transform="translate(122.000000, 247.000000)">
                <g>
                    <path d="M66,1.97014925 C30.7343284,1.97014925 1.97014925,30.7343284 1.97014925,66 C1.97014925,101.265672 30.7343284,130.029851 66,130.029851 C101.265672,130.029851 130.029851,101.265672 130.029851,66 C130.029851,30.7343284 101.265672,1.97014925 66,1.97014925 M66,132 C29.6507463,132 0,102.349254 0,66 C0,29.6507463 29.6507463,0 66,0 C102.349254,0 132,29.6507463 132,66 C132,102.349254 102.349254,132 66,132" id="Fill-1" fill="#CC0000"></path>
                    <path d="M65.5074627,15.761194 C92.9821791,15.761194 115.253731,38.0327463 115.253731,65.5074627 C115.253731,92.9821791 92.9821791,115.253731 65.5074627,115.253731 C38.0327463,115.253731 15.761194,92.9821791 15.761194,65.5074627 C15.761194,38.0327463 38.0327463,15.761194 65.5074627,15.761194" id="Fill-3" fill-opacity="0.5" fill="#CC0000"></path>
                    <path d="M65.5074627,16.3523373 C38.4179104,16.3523373 16.3522388,38.418009 16.3522388,65.5075612 C16.3522388,92.5971134 38.4179104,114.662785 65.5074627,114.662785 C92.5970149,114.662785 114.662687,92.5971134 114.662687,65.5075612 C114.662687,38.418009 92.5970149,16.3523373 65.5074627,16.3523373 M65.5074627,115.844875 C37.7283582,115.844875 15.1701493,93.2866657 15.1701493,65.5075612 C15.1701493,37.7284567 37.7283582,15.1702478 65.5074627,15.1702478 C93.2865672,15.1702478 115.844776,37.7284567 115.844776,65.5075612 C115.844776,93.2866657 93.2865672,115.844875 65.5074627,115.844875" id="Fill-5" fill="#FFFFFF"></path>
                    <path d="M85.4677343,54.4744299 L80.1483313,54.4744299 L80.1483313,54.3759224 C80.1483313,53.7848776 79.655794,53.2923403 78.9652567,53.2923403 L75.9125104,53.2923403 C75.3214657,53.2923403 74.7304209,53.7848776 74.7304209,54.3759224 L74.7304209,54.4744299 L69.4110179,54.4744299 C65.5692269,54.4744299 62.5154955,57.5281612 62.5154955,61.1729373 L62.5154955,61.4684597 C62.5154955,65.2117433 65.6677343,68.1669672 69.4110179,68.1669672 L85.4677343,68.1669672 C89.3085403,68.1669672 92.3632567,65.1132358 92.3632567,61.4684597 L92.3632567,61.1729373 C92.3632567,57.4296537 89.3085403,54.4744299 85.4677343,54.4744299 L85.4677343,54.4744299 Z M90.0975851,61.3699522 C90.0975851,63.8326388 88.0289284,65.9012955 85.4677343,65.9012955 L69.4110179,65.9012955 C66.8498239,65.9012955 64.7811672,63.8326388 64.7811672,61.3699522 L64.7811672,61.0744299 C64.7811672,58.6117433 66.8498239,56.5430866 69.4110179,56.5430866 L85.4677343,56.5430866 C88.0289284,56.5430866 90.0975851,58.6117433 90.0975851,61.0744299 L90.0975851,61.3699522 Z" id="Fill-7" fill="#FFFFFF"></path>
                    <path d="M80.3816955,70.5309493 C82.2533373,70.5309493 83.8294567,72.1080537 83.8294567,73.9787104 C83.8294567,75.8503522 82.2533373,77.4264716 80.3816955,77.4264716 C78.5110388,77.4264716 76.9339343,75.8503522 76.9339343,73.9787104 C76.9339343,72.1080537 78.5110388,70.5309493 80.3816955,70.5309493 L80.3816955,70.5309493 Z M59.6951284,71.5160239 C59.6951284,72.600591 58.8095463,73.3876657 57.8244716,73.3876657 L52.602591,73.3876657 L52.5040836,72.9936358 C52.0115463,70.8274567 50.1399045,69.2503522 47.8742328,69.2503522 C45.7070687,69.2503522 43.7369194,70.8274567 43.2443821,72.9936358 L43.1458746,73.3876657 L42.3578149,73.3876657 C41.1757254,73.3876657 40.1906507,72.402591 40.1906507,71.2205015 L40.1906507,66.7876657 C40.1906507,65.6055761 41.1757254,64.6205015 42.3578149,64.6205015 L53.8841731,64.6205015 C55.1637851,64.6205015 56.2473672,63.5369194 56.2473672,62.2573075 L56.2473672,56.641397 L58.4145313,56.641397 C59.1040836,56.641397 59.5966209,57.1339343 59.5966209,57.8244716 L59.5966209,71.5160239 L59.6951284,71.5160239 Z M47.7757254,77.4264716 C45.9040836,77.4264716 44.3279642,75.8503522 44.3279642,73.9787104 C44.3279642,72.1080537 45.9040836,70.5309493 47.7757254,70.5309493 C49.6473672,70.5309493 51.2234866,72.1080537 51.2234866,73.9787104 C51.2234866,75.8503522 49.7458746,77.4264716 47.7757254,77.4264716 L47.7757254,77.4264716 Z M49.8443821,57.5279642 C50.041397,56.9369194 50.6324418,56.5428896 51.321994,56.5428896 L54.9667701,56.5428896 L54.9667701,62.1578149 C54.9667701,62.7498448 54.4742328,63.3399045 53.7846806,63.3399045 L47.6772179,63.3399045 L49.8443821,57.5279642 Z M60.9757254,71.5160239 L60.9757254,57.7249791 C60.9757254,56.3468597 59.8921433,55.2622925 58.5130388,55.2622925 L51.4214866,55.2622925 C50.2384119,55.2622925 49.1548299,56.0503522 48.7608,57.1339343 L46.7906507,62.4533373 C46.5936358,62.9458746 46.1010985,63.3399045 45.6085612,63.3399045 L42.3578149,63.3399045 C40.4861731,63.3399045 38.9100537,64.9160239 38.9100537,66.7876657 L38.9100537,71.2205015 C38.9100537,73.0931284 40.4861731,74.6682627 42.3578149,74.6682627 L43.1458746,74.6682627 L43.2443821,75.0632776 C43.7369194,77.2304418 45.6085612,78.8055761 47.8742328,78.8055761 C50.041397,78.8055761 52.0115463,77.2304418 52.5040836,75.0632776 L52.602591,74.6682627 L75.8503522,74.6682627 L75.9488597,75.0632776 C76.441397,77.2304418 78.3130388,78.8055761 80.5787104,78.8055761 C82.7458746,78.8055761 84.7160239,77.2304418 85.2085612,75.0632776 L85.3070687,74.6682627 L90.7249791,74.6682627 C91.119009,74.6682627 91.317009,74.3727403 91.317009,74.078203 C91.317009,73.7826806 91.0214866,73.4861731 90.7249791,73.4861731 L85.3070687,73.4861731 L85.2085612,73.0931284 C84.7160239,70.9249791 82.8443821,69.3498448 80.5787104,69.3498448 C78.4115463,69.3498448 76.441397,70.9249791 75.9488597,73.0931284 L75.8503522,73.4861731 L60.3846806,73.4861731 L60.680203,72.797606 C60.8772179,72.3050687 60.9757254,71.9100537 60.9757254,71.5160239 L60.9757254,71.5160239 Z" id="Fill-9" fill="#FFFFFF"></path>
                </g>
            </g>
        </g>
    </g>
</svg>