<?xml version="1.0" encoding="UTF-8"?>
<svg width="33px" height="27px" viewBox="0 0 33 27" version="1.1" xmlns="http://www.w3.org/2000/svg" xmlns:xlink="http://www.w3.org/1999/xlink">
    <!-- Generator: Sketch 53.1 (72631) - https://sketchapp.com -->
    <title>WellIcon Copy</title>
    <desc>Created with Sketch.</desc>
    <defs>
        <polygon id="path-1" points="0 0 33 0 33 27 0 27"></polygon>
    </defs>
    <g id="Solstice" stroke="none" stroke-width="1" fill="none" fill-rule="evenodd">
        <g id="Assets-Landing" transform="translate(-738.000000, -524.000000)">
            <g id="LocationCard-7" transform="translate(728.000000, 513.500000)">
                <g id="WellIcon-Copy" transform="translate(10.000000, 10.500000)">
                    <mask id="mask-2" fill="white">
                        <use xlink:href="#path-1"></use>
                    </mask>
                    <g id="Clip-2"></g>
                    <path d="M28.7747084,22.1280835 L26.8096847,22.1280835 L26.8096847,23.6766846 L28.1182139,23.6766846 L28.1182139,24.7543688 L26.8096847,24.7543688 L26.8096847,25.4199436 L22.4635303,25.4199436 L18.1048883,11.4228139 L21.6014353,8.53212217 L28.7747084,14.8464214 L28.7747084,22.1280835 Z M14.4410958,21.6580782 L18.04245,19.1886133 L19.8241726,24.9102774 L14.4410958,21.6580782 Z M13.641885,25.4199436 L13.9603206,22.9258615 L18.0888327,25.4199436 L13.641885,25.4199436 Z M11.2705661,25.4199436 L7.68303758,25.4199436 L7.68303758,23.7081399 L7.19958645,23.7081399 L7.19958645,21.6457697 C7.5019664,21.2550864 7.68303758,20.7618316 7.68303758,20.2252689 C7.68303758,20.1646377 7.67991567,20.1053742 7.67545579,20.0461107 L12.4622464,16.0886758 L11.2705661,25.4199436 Z M6.30894814,23.7081399 L4.57137837,23.7081399 L4.57137837,22.3391528 C4.83897125,22.4535769 5.13243145,22.5173992 5.44060925,22.5173992 C5.74834106,22.5173992 6.04135526,22.4535769 6.30894814,22.3391528 L6.30894814,23.7081399 Z M5.44060925,19.5063569 C5.82906491,19.5063569 6.14393253,19.8282034 6.14393253,20.2252689 C6.14393253,20.6223344 5.82906491,20.9441809 5.44060925,20.9441809 C5.05215358,20.9441809 4.73683997,20.6223344 4.73683997,20.2252689 C4.73683997,19.8282034 5.05215358,19.5063569 5.44060925,19.5063569 L5.44060925,19.5063569 Z M14.7630992,16.6361794 L17.6062736,17.7872592 L17.628127,17.8570078 L14.3175571,20.127712 L14.7630992,16.6361794 Z M15.1127539,13.8968376 L16.1322828,13.0539281 L17.0920492,16.1360866 L14.9383725,15.2640012 L15.1127539,13.8968376 Z M31.5108456,25.4199436 L31.5108456,24.7543688 L30.2014245,24.7543688 L30.2014245,23.6766846 L31.5108456,23.6766846 L31.5108456,22.1280835 L29.5453759,22.1280835 L29.5453759,14.2633596 L30.3508305,13.6009759 L24.5525388,2.77034123 L20.1212007,0 L17.6009217,2.02954733 L19.5931507,6.69085046 L5.92941224,17.9882993 C5.77197843,17.9522853 5.60874677,17.9326827 5.44060925,17.9326827 C4.20165421,17.9326827 3.19728893,18.9593091 3.19728893,20.2252689 C3.19728893,20.7618316 3.3788061,21.2546305 3.68074007,21.6453138 L3.68074007,23.7081399 L2.98232265,23.7081399 L2.98232265,24.5419319 L1.58950171,24.5419319 L1.58950171,25.4199436 L0,25.4199436 L0,27 L33,27 L33,25.4199436 L31.5108456,25.4199436 Z" id="Fill-1" fill="#43494E" mask="url(#mask-2)"></path>
                </g>
            </g>
        </g>
    </g>
</svg>