<?xml version="1.0" encoding="UTF-8"?>
<svg width="35px" height="35px" viewBox="0 0 35 35" version="1.1" xmlns="http://www.w3.org/2000/svg" xmlns:xlink="http://www.w3.org/1999/xlink">
    <!-- Generator: Sketch 53.1 (72631) - https://sketchapp.com -->
    <title>Add Analysis Copy</title>
    <desc>Created with Sketch.</desc>
    <g id="APX-Mobile" stroke="none" stroke-width="1" fill="none" fill-rule="evenodd">
        <g id="Delivery-List" transform="translate(-335.000000, -37.000000)" fill="#FFFFFF">
            <g id="Add-Analysis-Copy" transform="translate(335.000000, 37.000000)">
                <path d="M33.4931004,17.4196271 C33.4931004,8.54249252 26.2968223,1.34615385 17.4196271,1.34615385 C8.54256432,1.34615385 1.34615385,8.54256432 1.34615385,17.4196271 C1.34615385,26.2966899 8.54256432,33.4931004 17.4196271,33.4931004 C26.2968223,33.4931004 33.4931004,26.2967617 33.4931004,17.4196271 Z M34.8392542,17.4196271 C34.8392542,27.0402194 27.0402851,34.8392542 17.4196271,34.8392542 C7.79910408,34.8392542 0,27.0401501 0,17.4196271 C0,7.79910408 7.79910408,0 17.4196271,0 C27.0402851,0 34.8392542,7.79903481 34.8392542,17.4196271 Z" id="Stroke-7" fill-rule="nonzero"></path>
                <polygon id="+" points="16.3653781 8.07692308 19.1682373 8.07692308 19.1682373 16.3653781 27.4566923 16.3653781 27.4566923 19.1682373 19.1682373 19.1682373 19.1682373 27.4566923 16.3653781 27.4566923 16.3653781 19.1682373 8.07692308 19.1682373 8.07692308 16.3653781 16.3653781 16.3653781"></polygon>
            </g>
        </g>
    </g>
</svg>