<?xml version="1.0" encoding="utf-8"?>
<!-- Generator: Adobe Illustrator 24.0.3, SVG Export Plug-In . SVG Version: 6.00 Build 0)  -->
<svg version="1.1" id="Layer_1" xmlns="http://www.w3.org/2000/svg" xmlns:xlink="http://www.w3.org/1999/xlink" x="0px" y="0px"
	 viewBox="0 0 252 252" style="enable-background:new 0 0 252 252;" xml:space="preserve">
<style type="text/css">
	.st0{fill-rule:evenodd;clip-rule:evenodd;fill:#FFFFFF;}
	.st1{fill:#666666;}
	.st2{fill:#CC0000;}
	.st3{opacity:0.5006;fill:#43494E;enable-background:new    ;}
</style>
<title>icon</title>
<desc>Created with Sketch.</desc>
<path class="st0" d="M251,126c0,69-56,125-125,125C57,251,1,195,1,126C1,57,57,1,126,1C195,1,251,57,251,126z"/>
<path class="st1" d="M126,252C56.5,252,0,195.5,0,126S56.5,0,126,0s126,56.5,126,126S195.5,252,126,252z M126,2C57.6,2,2,57.6,2,126
	s55.6,124,124,124s124-55.6,124-124S194.4,2,126,2z"/>
<g id="Stroke-7">
	<path class="st2" d="M126,226.5c-55.4,0-100.5-45.1-100.5-100.5S70.6,25.5,126,25.5S226.5,70.6,226.5,126S181.4,226.5,126,226.5z
		 M126,26.5c-54.9,0-99.5,44.6-99.5,99.5s44.6,99.5,99.5,99.5s99.5-44.6,99.5-99.5S180.9,26.5,126,26.5z"/>
</g>
<path id="comingsoon" class="st3" d="M82.8,124.7h-1.2c-0.1-1.4-1-2.1-2.5-2.1c-1.7,0-2.7,1.7-2.7,3.8c0,2.1,1,3.8,2.7,3.8
	c1.4,0,2.4-0.9,2.5-2.1h1.2c-0.3,2.1-1.5,3.1-3.5,3.1c-2.7,0-4-2.3-4-4.8c0-2.4,1.3-4.8,4-4.8C81.2,121.7,82.7,122.8,82.8,124.7z
	 M91.5,126.5c0-1.7-0.9-3.8-3-3.8c-2.2,0-3,2.1-3,3.8s0.9,3.8,3,3.8C90.7,130.3,91.5,128.2,91.5,126.5z M88.5,121.7
	c2.9,0,4.2,2.4,4.2,4.8s-1.3,4.8-4.2,4.8c-2.9,0-4.2-2.4-4.2-4.8S85.6,121.7,88.5,121.7z M95.9,122l0.1,1.3l0,0
	c0.6-1.1,1.7-1.6,2.8-1.6c1.4,0,2.5,0.8,2.9,2c0.7-1.1,1.7-2,3.1-2c3,0,3.2,2.6,3.2,3.7v5.7H107v-5.8c0-1.6-0.9-2.5-2.4-2.5
	c-1.8,0-2.6,1.5-2.6,3.1v5.2H101v-5.8c0-1.6-0.9-2.5-2.4-2.5c-1.8,0-2.6,1.5-2.6,3.1v5.2h-1.1v-7c0-0.7-0.1-1.4-0.1-2H95.9z
	 M110.9,122h1.1v9h-1.1V122z M112.1,118v1.3h-1.3V118H112.1z M116,125.8v5.2h-1.1v-7c0-0.7-0.1-1.4-0.1-2h1.1l0.1,1.3l0,0
	c0.6-1.1,1.7-1.6,2.8-1.6c3,0,3.2,2.6,3.2,3.7v5.7H121v-5.8c0-1.6-0.9-2.5-2.4-2.5C116.8,122.7,116,124.2,116,125.8z M131.2,126.3
	c0-1.7-1-3.6-2.9-3.6c-2,0-2.8,2-2.8,3.6s0.8,3.7,2.8,3.7C130.4,130,131.2,128,131.2,126.3z M131.2,123.3l0.1-1.3h1.1
	c0,0.6-0.1,1.3-0.1,2v5.4c0,1.8,0.1,3.7-1.9,4.6c-0.7,0.3-1.2,0.4-2.1,0.4c-1.6,0-3.6-0.6-3.6-2.4h1.2c0.1,1.1,1.4,1.4,2.6,1.4
	c1.4,0,2.7-1,2.7-2.5v-1.7h0c-0.5,1.1-1.8,1.7-2.9,1.7c-2.7,0-3.9-2.1-3.9-4.6c0-2.4,1.1-4.7,3.9-4.7
	C129.5,121.7,130.4,122.3,131.2,123.3L131.2,123.3z M139.6,124.2c0-1.9,1.7-2.5,3.3-2.5c1.7,0,3.1,0.6,3.3,2.5h-1.2
	c-0.1-1.1-1.1-1.5-2.2-1.5c-1,0-2,0.4-2,1.5c0,1.3,1.7,1.2,4.2,2.1c0.9,0.3,1.5,1.1,1.5,2.1c0,2-1.9,3-3.8,3c-1.6,0-3.4-0.7-3.4-2.7
	h1.2c0.1,1.4,1.3,1.7,2.5,1.7c1.2,0,2.4-0.5,2.4-1.8c0-1.3-1.4-1.5-2.9-1.8C141.1,126.3,139.6,125.9,139.6,124.2z M155.5,126.5
	c0-1.7-0.9-3.8-3-3.8c-2.2,0-3,2.1-3,3.8s0.9,3.8,3,3.8C154.7,130.3,155.5,128.2,155.5,126.5z M152.5,121.7c2.9,0,4.2,2.4,4.2,4.8
	s-1.3,4.8-4.2,4.8c-2.9,0-4.2-2.4-4.2-4.8S149.6,121.7,152.5,121.7z M165.6,126.5c0-1.7-0.9-3.8-3-3.8s-3,2.1-3,3.8s0.9,3.8,3,3.8
	S165.6,128.2,165.6,126.5z M162.5,121.7c2.9,0,4.2,2.4,4.2,4.8s-1.3,4.8-4.2,4.8s-4.2-2.4-4.2-4.8S159.6,121.7,162.5,121.7z
	 M170,125.8v5.2H169v-7c0-0.7-0.1-1.4-0.1-2h1.1l0.1,1.3l0,0c0.6-1.1,1.7-1.6,2.8-1.6c3,0,3.2,2.6,3.2,3.7v5.7H175v-5.8
	c0-1.6-0.9-2.5-2.4-2.5C170.8,122.7,170,124.2,170,125.8z"/>
</svg>
