<?xml version="1.0" encoding="UTF-8"?>
<svg width="50px" height="50px" viewBox="0 0 50 50" version="1.1" xmlns="http://www.w3.org/2000/svg" xmlns:xlink="http://www.w3.org/1999/xlink">
    <!-- Generator: Sketch 53.1 (72631) - https://sketchapp.com -->
    <title>Group 6 Copy</title>
    <desc>Created with Sketch.</desc>
    <defs>
        <polygon id="path-1" points="6.25e-05 0 50 0 50 49.999875 6.25e-05 49.999875"></polygon>
    </defs>
    <g id="Solstice" stroke="none" stroke-width="1" fill="none" fill-rule="evenodd">
        <g id="Solstice-Settings-Grid-Hover" transform="translate(-512.000000, -263.000000)">
            <g id="Module" transform="translate(471.000000, 180.000000)">
                <g id="Group-6-Copy" transform="translate(41.000000, 83.000000)">
                    <g id="Group-3">
                        <mask id="mask-2" fill="white">
                            <use xlink:href="#path-1"></use>
                        </mask>
                        <g id="Clip-2"></g>
                        <path d="M50.0000625,24.999875 C50.0000625,38.80675 38.8069375,49.999875 25.0000625,49.999875 C11.1931875,49.999875 6.25e-05,38.80675 6.25e-05,24.999875 C6.25e-05,11.193 11.1931875,-0.000125 25.0000625,-0.000125 C38.8069375,-0.000125 50.0000625,11.193 50.0000625,24.999875" id="Fill-1" fill="#43494E" mask="url(#mask-2)"></path>
                    </g>
                    <path d="M36.378875,33.412375 L36.378875,32.908 L35.386375,32.908 L35.386375,32.09175 L36.378875,32.09175 L36.378875,30.918625 L34.8895,30.918625 L34.8895,24.9605 L35.500125,24.458625 L31.107,16.253625 L27.750125,14.154875 L25.841375,15.692375 L27.350125,19.223625 L16.998875,27.782375 C16.8795,27.754875 16.75575,27.7405 16.62825,27.7405 C15.6895,27.7405 14.928875,28.518 14.928875,29.477375 C14.928875,29.883625 15.066375,30.25675 15.295125,30.553 L15.295125,32.1155 L14.76575,32.1155 L14.76575,32.747375 L13.71075,32.747375 L13.71075,33.412375 L12.507,33.412375 L12.507,34.609875 L37.507,34.609875 L37.507,33.412375 L36.378875,33.412375 Z M23.95575,24.683 L24.72825,24.04425 L25.455125,26.37925 L23.823875,25.718625 L23.95575,24.683 Z M23.69075,26.758 L25.845125,27.6305 L25.861375,27.683 L23.35325,29.403 L23.69075,26.758 Z M16.62825,28.932375 C16.922625,28.932375 17.161375,29.176125 17.161375,29.477375 C17.161375,29.778 16.922625,30.02175 16.62825,30.02175 C16.3345,30.02175 16.095125,29.778 16.095125,29.477375 C16.095125,29.176125 16.3345,28.932375 16.62825,28.932375 L16.62825,28.932375 Z M17.286375,32.1155 L15.970125,32.1155 L15.970125,31.078625 C16.172625,31.1655 16.395125,31.213625 16.62825,31.213625 C16.861375,31.213625 17.08325,31.1655 17.286375,31.078625 L17.286375,32.1155 Z M21.045125,33.412375 L18.327625,33.412375 L18.327625,32.1155 L17.96075,32.1155 L17.96075,30.553 C18.190125,30.257375 18.327625,29.883625 18.327625,29.477375 C18.327625,29.431125 18.325125,29.386125 18.321375,29.341125 L21.94825,26.343 L21.045125,33.412375 Z M22.841375,33.412375 L23.08325,31.523 L26.210125,33.412375 L22.841375,33.412375 Z M23.447,30.562375 L26.17575,28.69175 L27.525125,33.026125 L23.447,30.562375 Z M34.306375,30.918625 L32.817625,30.918625 L32.817625,32.09175 L33.808875,32.09175 L33.808875,32.908 L32.817625,32.908 L32.817625,33.412375 L29.5245,33.412375 L26.222625,22.808625 L28.871375,20.618625 L34.306375,25.402375 L34.306375,30.918625 Z" id="Fill-4" fill="#FFFFFF"></path>
                </g>
            </g>
        </g>
    </g>
</svg>