<?xml version="1.0" encoding="UTF-8"?>
<svg width="20px" height="20px" viewBox="0 0 20 20" version="1.1" xmlns="http://www.w3.org/2000/svg" xmlns:xlink="http://www.w3.org/1999/xlink">
    <!-- Generator: Sketch 53.1 (72631) - https://sketchapp.com -->
    <title></title>
    <desc>Created with Sketch.</desc>
    <defs>
        <polygon id="path-1" points="0.000148148148 0 20 0 20 19.9997037 0.000148148148 19.9997037"></polygon>
        <polygon id="path-3" points="0 20 20 20 20 0 0 0"></polygon>
    </defs>
    <g id="Solstice" stroke="none" stroke-width="1" fill="none" fill-rule="evenodd">
        <g id="Solstice-Home-Back" transform="translate(-922.000000, -283.000000)">
            <g id="Group-8" transform="translate(922.000000, 283.000000)">
                <g id="Group-3">
                    <mask id="mask-2" fill="white">
                        <use xlink:href="#path-1"></use>
                    </mask>
                    <g id="Clip-2"></g>
                    <path d="M10.0001481,0.740444444 C4.88903704,0.740444444 0.740888889,4.88933333 0.740888889,9.9997037 C0.740888889,15.1108148 4.88903704,19.258963 10.0001481,19.258963 C15.1105185,19.258963 19.2594074,15.1108148 19.2594074,9.9997037 C19.2594074,4.88933333 15.1105185,0.740444444 10.0001481,0.740444444 M10.0001481,19.9997037 C4.51866667,19.9997037 0.000148148148,15.4811852 0.000148148148,9.9997037 C0.000148148148,4.51896296 4.51866667,-0.000296296296 10.0001481,-0.000296296296 C15.4808889,-0.000296296296 20.0001481,4.51896296 20.0001481,9.9997037 C20.0001481,15.4811852 15.4808889,19.9997037 10.0001481,19.9997037" id="Fill-1" fill="#CC0000" mask="url(#mask-2)"></path>
                </g>
                <path d="M10.0001481,2.5922963 C14.0905185,2.5922963 17.4075556,5.90933333 17.4075556,9.9997037 C17.4075556,14.0908148 14.0905185,17.4071111 10.0001481,17.4071111 C5.90903704,17.4071111 2.59274074,14.0908148 2.59274074,9.9997037 C2.59274074,5.90933333 5.90903704,2.5922963 10.0001481,2.5922963" id="Fill-4" fill="#CC0000"></path>
                <mask id="mask-4" fill="white">
                    <use xlink:href="#path-3"></use>
                </mask>
                <g id="Clip-7"></g>
                <polygon id="Fill-6" fill="#FFFFFF" mask="url(#mask-4)" points="5.18518519 11.0866667 14.8148148 11.0866667 14.8148148 9.66 5.18518519 9.66"></polygon>
            </g>
        </g>
    </g>
</svg>