<?xml version="1.0" encoding="UTF-8"?>
<svg width="134px" height="134px" viewBox="0 0 134 134" version="1.1" xmlns="http://www.w3.org/2000/svg" xmlns:xlink="http://www.w3.org/1999/xlink">
    <!-- Generator: Sketch 53.1 (72631) - https://sketchapp.com -->
    <title>Deliveries</title>
    <desc>Created with Sketch.</desc>
    <g id="APX-Mobile" stroke="none" stroke-width="1" fill="none" fill-rule="evenodd">
        <g id="Home" transform="translate(-120.000000, -250.000000)">
            <g id="Group-2" transform="translate(121.000000, 251.000000)">
                <g id="Deliveries">
                    <g>
                        <path d="M132,66 C132,102.450454 102.451992,132 66,132 C29.5500583,132 0,102.450454 0,66 C0,29.5500583 29.5500583,0 66,0 C102.451992,0 132,29.5500583 132,66 Z" id="Stroke-3" stroke="#CC0000" stroke-width="2"></path>
                        <path d="M116,65.5 C116,93.3901646 93.3913963,116 65.5,116 C37.6098354,116 15,93.3901646 15,65.5 C15,37.6098354 37.6098354,15 65.5,15 C93.3913963,15 116,37.6098354 116,65.5 Z" id="Stroke-7" stroke="#FFFFFF" stroke-width="1.2" fill-opacity="0.5" fill="#CC0000"></path>
                        <g id="DeliveryIcon" transform="translate(38.000000, 52.797297)" fill="#FFFFFF">
                            <g id="Group-3" transform="translate(0.000000, 1.718750)" stroke="#CC0000">
                                <path d="M42.6342569,22.628727 C40.98177,22.628727 39.6373577,21.283425 39.6373577,19.6304337 C39.6373577,17.9769632 40.98177,16.6321405 42.6342569,16.6321405 C44.2867438,16.6321405 45.6316352,17.9769632 45.6316352,19.6304337 C45.6316352,21.283425 44.2867438,22.628727 42.6342569,22.628727 L42.6342569,22.628727 Z M21.0642486,17.0620428 C21.0642486,17.8461233 20.4265391,18.4835482 19.643177,18.4835482 L14.7020065,18.4835482 C14.1764112,16.1159701 12.0639686,14.339328 9.54139878,14.339328 C7.01834983,14.339328 4.90590722,16.1159701 4.37983283,18.4835482 L4.00324405,18.4835482 C3.05985564,18.4835482 2.2927836,17.716242 2.2927836,16.7725657 L2.2927836,12.232471 C2.2927836,11.2887946 3.05985564,10.5210092 4.00324405,10.5210092 L6.7893302,10.5210092 L7.18843764,10.5210092 L15.6592894,10.5210092 C17.2825499,10.5210092 18.6030062,9.20014979 18.6030062,7.57639378 L18.6030062,2.34423783 L20.3450886,2.34423783 C20.7418005,2.34423783 21.0642486,2.66678441 21.0642486,3.06313807 L21.0642486,17.0620428 Z M9.54139878,22.628727 C7.8884328,22.628727 6.54402046,21.283425 6.54402046,19.6304337 C6.54402046,17.9769632 7.8884328,16.6321405 9.54139878,16.6321405 C11.1938856,16.6321405 12.5387771,17.9769632 12.5387771,19.6304337 C12.5387771,21.283425 11.1938856,22.628727 9.54139878,22.628727 L9.54139878,22.628727 Z M12.1042147,3.04923933 C12.2594498,2.62748453 12.6662232,2.34423783 13.1156383,2.34423783 L16.3108934,2.34423783 L16.3108934,7.57639378 C16.3108934,7.9358439 16.0181507,8.22819666 15.6592894,8.22819666 L10.1968357,8.22819666 L12.1042147,3.04923933 Z M52.8725845,18.4835482 L47.7948646,18.4835482 C47.2697485,16.1159701 45.1573059,14.339328 42.6342569,14.339328 C40.111208,14.339328 37.9987653,16.1159701 37.4736492,18.4835482 L23.0732012,18.4835482 C23.2557461,18.0454983 23.3573197,17.5657523 23.3573197,17.0620428 L23.3573197,3.06313807 C23.3573197,1.40247852 22.0057205,0.0509460637 20.3450886,0.0509460637 L13.1156383,0.0509460637 C11.7098985,0.0509460637 10.4387916,0.937110427 9.95248424,2.256532 L7.94928111,7.69716902 C7.83189657,8.01444366 7.52669676,8.22819666 7.18843764,8.22819666 L6.7893302,8.22819666 L4.00324405,8.22819666 C1.79593556,8.22819666 0.00019164823,10.0244887 0.00019164823,12.232471 L0.00019164823,16.7725657 C0.00019164823,18.9805479 1.79593556,20.77684 4.00324405,20.77684 L4.37983283,20.77684 C4.90590722,23.1448974 7.01834983,24.9220188 9.54139878,24.9220188 C12.0639686,24.9220188 14.1764112,23.1448974 14.7020065,20.77684 L19.643177,20.77684 L37.4736492,20.77684 C37.9987653,23.1448974 40.111208,24.9220188 42.6342569,24.9220188 C45.1573059,24.9220188 47.2697485,23.1448974 47.7948646,20.77684 L52.8725845,20.77684 C53.5059819,20.77684 54.01912,20.2635452 54.01912,19.6304337 C54.01912,18.996843 53.5059819,18.4835482 52.8725845,18.4835482 L52.8725845,18.4835482 Z" id="Fill-1"></path>
                            </g>
                            <g id="Group-6" transform="translate(24.062500, 0.000000)">
                                <path d="M28.4322393,8.53523437 C28.4322393,11.0608594 26.3130205,13.1153906 23.7089531,13.1153906 L7.44162891,13.1153906 C4.83707813,13.1153906 2.71882617,11.0608594 2.71882617,8.53523437 L2.71882617,8.27882813 C2.71882617,5.75320313 4.83707813,3.69914063 7.44162891,3.69914063 L23.7089531,3.69914063 C26.3130205,3.69914063 28.4322393,5.75320313 28.4322393,8.27882813 L28.4322393,8.53523437 Z M23.7089531,1.45570313 L18.2828057,1.45570313 C18.2828057,1.45429688 18.2832891,1.45289063 18.2832891,1.45101563 L18.2832891,1.40039062 C18.2832891,0.778828125 17.7636357,0.274453125 17.122166,0.274453125 L14.028416,0.274453125 C13.3874297,0.274453125 12.867293,0.778828125 12.867293,1.40039062 L12.867293,1.45101563 C12.867293,1.45289063 12.8677764,1.45429688 12.8677764,1.45570313 L7.44162891,1.45570313 C3.56187305,1.45570313 0.40528125,4.51664063 0.40528125,8.27882813 L0.40528125,8.53523438 C0.40528125,12.2974219 3.56187305,15.3583594 7.44162891,15.3583594 L23.7089531,15.3583594 C27.588709,15.3583594 30.7453008,12.2974219 30.7453008,8.53523438 L30.7453008,8.27882813 C30.7453008,4.51664063 27.588709,1.45570313 23.7089531,1.45570313 L23.7089531,1.45570313 Z" id="Fill-4"></path>
                            </g>
                        </g>
                    </g>
                </g>
            </g>
        </g>
    </g>
</svg>