<?xml version="1.0" encoding="UTF-8"?>
<svg width="60px" height="60px" viewBox="0 0 60 60" version="1.1" xmlns="http://www.w3.org/2000/svg" xmlns:xlink="http://www.w3.org/1999/xlink">
    <!-- Generator: Sketch 52.5 (67469) - http://www.bohemiancoding.com/sketch -->
    <title>microsoft-word-vector-logo</title>
    <desc>Created with Sketch.</desc>
    <defs>
        <polygon id="path-1" points="0 0.072608945 60 0.072608945 60 59.0578555 0 59.0578555"></polygon>
    </defs>
    <g id="Solstice" stroke="none" stroke-width="1" fill="none" fill-rule="evenodd">
        <g id="Document-Download" transform="translate(-688.000000, -220.000000)">
            <g id="Module" transform="translate(420.000000, 89.000000)">
                <g id="microsoft-word-vector-logo" transform="translate(268.000000, 131.767287)">
                    <g id="Group-3">
                        <mask id="mask-2" fill="white">
                            <use xlink:href="#path-1"></use>
                        </mask>
                        <g id="Clip-2"></g>
                        <path d="M35.4341538,0.072608945 L35.4341538,5.56000287 C42.7275385,5.60118406 50.6919231,5.48452982 57.9785385,5.60118406 C59.1993077,5.58864392 59.9070769,6.12570241 59.9318462,7.45751147 C60.0476923,20.9702838 59.9046154,35.2538876 60,48.76666 C59.958,49.6198538 60.0193846,51.1765338 59.8864615,52.0369266 C59.7168462,53.1352724 59.2303846,53.3452036 58.1357692,53.494137 C57.5235385,53.5773509 56.4981538,53.5670556 55.8966154,53.5955419 C49.9128462,53.5655849 43.9343077,53.5723194 37.9518462,53.5744868 L35.4341538,53.5679071 L35.4341538,59.0625 L0.003,53.5749513 C-0.00376923077,37.5722649 0.003,21.5695011 0.003,5.57370413 L35.4341538,0.072608945" id="Fill-1" fill="#27366A" mask="url(#mask-2)"></path>
                    </g>
                    <path d="M35.625,7.5 C43.1248718,7.5 50.6250513,7.5 58.125,7.5 C58.125,22.1851691 58.125,36.8773309 58.125,51.5625 C50.6250513,51.5625 43.1248718,51.5625 35.625,51.5625 C35.625,49.7243676 35.625,47.8928393 35.625,46.0546292 C41.5362726,46.0546292 47.440774,46.0546292 53.3522004,46.0546292 C53.3522004,45.1390593 53.3522004,44.2164191 53.3522004,43.3008492 C47.440774,43.3008492 41.5362726,43.3008492 35.625,43.3008492 C35.625,42.1509482 35.625,41.0081174 35.625,39.8583717 C41.5362726,39.8583717 47.440774,39.8583717 53.3522004,39.8583717 C53.3522004,38.9428018 53.3522004,38.0202393 53.3522004,37.1045917 C47.440774,37.1045917 41.5362726,37.1045917 35.625,37.1045917 C35.625,35.9547684 35.625,34.8118599 35.625,33.6621919 C41.5362726,33.6621919 47.440774,33.6621919 53.3522004,33.6621919 C53.3522004,32.746389 53.3522004,31.8238264 53.3522004,30.9081788 C47.440774,30.9081788 41.5362726,30.9081788 35.625,30.9081788 C35.625,29.7585109 35.625,28.6156024 35.625,27.465779 C41.5362726,27.465779 47.440774,27.465779 53.3522004,27.465779 C53.3522004,26.5501315 53.3522004,25.6275689 53.3522004,24.7119213 C47.440774,24.7119213 41.5362726,24.7119213 35.625,24.7119213 C35.625,23.562098 35.625,22.4192672 35.625,21.2695215 C41.5362726,21.2695215 47.440774,21.2695215 53.3522004,21.2695215 C53.3522004,20.3537963 53.3522004,19.4312337 53.3522004,18.5155862 C47.440774,18.5155862 41.5362726,18.5155862 35.625,18.5155862 C35.625,17.3658405 35.625,16.222932 35.625,15.0731863 C41.5362726,15.0731863 47.440774,15.0731863 53.3522004,15.0731863 C53.3522004,14.1576165 53.3522004,13.2350539 53.3522004,12.319251 C47.440774,12.319251 41.5362726,12.319251 35.625,12.319251 C35.625,10.715139 35.625,9.1041897 35.625,7.5" id="Fill-4" fill="#FFFFFE"></path>
                    <path d="M14.0675511,19.5686805 C15.3518179,19.4916775 16.6360846,19.4357614 17.9203514,19.3657084 C18.8193228,24.0895881 19.7386613,28.8065179 20.7119305,33.5093106 C21.4758083,28.6525908 22.3206966,23.809692 23.1385813,18.9598432 C24.4905093,18.9107981 25.842361,18.8339531 27.1875,18.75 C25.6598206,25.531243 24.3215469,32.3687179 22.6519086,39.1080238 C21.5231025,39.7168612 19.8332498,39.0800658 18.4948235,39.1779979 C17.5959283,34.5451002 16.5482089,29.9402395 15.7438259,25.2863338 C14.9529446,29.8072414 13.9255159,34.286212 13.0198317,38.7790826 C11.721987,38.7091086 10.4174295,38.6252345 9.11287199,38.5341735 C7.99077862,32.3755889 6.6727194,26.2590994 5.625,20.0865358 C6.78088584,20.0306198 7.94348441,19.9815748 9.09929397,19.9396377 C9.79558685,24.3975213 10.5863919,28.8345549 11.1947328,33.2994674 C12.1478637,28.7225648 13.1212092,24.1455832 14.0675511,19.5686805" id="Fill-5" fill="#FFFFFE"></path>
                </g>
            </g>
        </g>
    </g>
</svg>