<?xml version="1.0" encoding="UTF-8"?>
<svg width="27px" height="27px" viewBox="0 0 27 27" version="1.1" xmlns="http://www.w3.org/2000/svg" xmlns:xlink="http://www.w3.org/1999/xlink">
    <!-- Generator: Sketch 52.5 (67469) - http://www.bohemiancoding.com/sketch -->
    <title>UploadIcon</title>
    <desc>Created with Sketch.</desc>
    <g id="Solstice" stroke="none" stroke-width="1" fill="none" fill-rule="evenodd">
        <g id="Document-Upload" transform="translate(-968.000000, -137.000000)">
            <g id="Module" transform="translate(420.000000, 88.000000)">
                <g id="Tech-Survey" transform="translate(331.000000, 49.000000)">
                    <g id="group">
                        <g id="UploadIcon" transform="translate(217.000000, 0.000000)">
                            <g id="checkedradio-copy-7" fill="#A8AFB5" fill-rule="nonzero">
                                <path d="M13.5,27 C6.04415588,27 0,20.9558441 0,13.5 C0,6.04415588 6.04415588,0 13.5,0 C20.9558441,0 27,6.04415588 27,13.5 C27,20.9558441 20.9558441,27 13.5,27 Z M13.5,26 C20.4035594,26 26,20.4035594 26,13.5 C26,6.59644063 20.4035594,1 13.5,1 C6.59644063,1 1,6.59644063 1,13.5 C1,20.4035594 6.59644063,26 13.5,26 Z" id="radio-1-copy-5"></path>
                            </g>
                            <path d="M13.7435063,19.2299721 L18.3338128,11.2735355 L15.1969903,11.2735355 L15.1969903,5 L12.1368224,5 L12.1368224,11.2735355 L9,11.2735355 L13.7433969,19.2299721 L13.7435063,19.2299721 Z M7,22.1642778 L20,22.1642778 L20,20.3332072 L7,20.3332072 L7,22.1642778 Z" id="Fill-1" fill="#999999"></path>
                        </g>
                    </g>
                </g>
            </g>
        </g>
    </g>
</svg>