<?xml version="1.0" encoding="UTF-8"?>
<svg width="27px" height="27px" viewBox="0 0 27 27" version="1.1" xmlns="http://www.w3.org/2000/svg" xmlns:xlink="http://www.w3.org/1999/xlink">
    <!-- Generator: Sketch 52.5 (67469) - http://www.bohemiancoding.com/sketch -->
    <title>Gas Copy</title>
    <desc>Created with Sketch.</desc>
    <defs>
        <path d="M7.09749139,0.198286156 C7.09749139,0.198286156 4.83548176,0.58514897 4.24244382,2.62945345 C4.24244382,2.62945345 1.35993658,2.20132527 0.353182993,4.48047823 C-0.654025722,6.7596312 1.45642471,9.12161831 2.6148892,9.46706405 C3.77365711,9.81250979 5.02876145,9.96437241 6.24244871,9.13557572 C6.24244871,9.13557572 9.73210301,12.0778571 14.8904256,10.5169035 C14.8904256,10.5169035 10.6974395,11.207795 7.98029716,8.70744754 C7.98029716,8.70744754 7.37330182,8.06495184 7.18032554,7.78883799 C6.98719756,7.51242072 5.7527259,6.49049605 4.88387754,7.25693955 C4.88387754,7.25693955 4.1115173,7.9141512 5.00099836,8.63128866 C5.00099836,8.63128866 2.89767833,8.9697557 2.82880158,7.05652944 C2.75962141,5.1434549 4.73914533,4.9154334 5.56657662,5.05364204 C6.39415962,5.19185068 7.30457678,5.70281301 8.27689198,6.97369529 C9.2493589,8.24457756 10.2421551,9.11463961 12.1179087,9.51530812 C13.9939658,9.91612834 17.9246437,10.2958607 22.0486013,7.62999667 C22.0486013,7.62999667 18.1315774,9.49482715 14.1731364,8.51401613 C14.1731364,8.51401613 12.049032,8.04431916 11.1525722,6.63537996 C10.2561125,5.22628905 10.393866,4.97080789 9.78717407,4.71532672 C9.18017873,4.45954213 8.51826404,4.99826756 8.65616925,5.44050485 C8.65616925,5.44050485 7.83541324,4.3492483 8.7458304,3.39604866 C9.65609584,2.44300074 11.0491054,3.05758163 11.4491671,3.90018401 C11.8489253,4.74278639 12.2627927,5.88243873 13.1317927,6.61459557 C14.0007928,7.3466007 16.5660725,8.50703743 19.4969756,7.20171678 C19.4969756,7.20171678 16.1867953,7.68506773 14.738563,6.3591144 C14.738563,6.3591144 16.3385062,5.29546923 15.74562,3.66548724 C15.1522786,2.03550525 12.8351979,1.57961397 11.5524822,2.42236806 C11.5524822,2.42236806 10.6300799,0.112872915 8.00305379,0.112721204 C7.72117493,0.112721204 7.41972535,0.139422324 7.09749139,0.198286156" id="path-1"></path>
        <linearGradient x1="-1.7053329%" y1="55.2755533%" x2="102.843977%" y2="55.2755533%" id="linearGradient-3">
            <stop stop-color="#666633" offset="0%"></stop>
            <stop stop-color="#66CC66" offset="100%"></stop>
        </linearGradient>
    </defs>
    <g id="Solstice" stroke="none" stroke-width="1" fill="none" fill-rule="evenodd">
        <g id="Assets-Landing" transform="translate(-895.000000, -466.000000)">
            <g id="LocationCard-6" transform="translate(728.000000, 372.000000)">
                <g id="Gas-Copy" transform="translate(168.000000, 94.500000)">
                    <g id="Group-11" transform="translate(0.000000, 0.075855)">
                        <path d="M24.9024122,12.5378974 C24.9024122,19.4084293 19.3328014,24.9781918 12.4621178,24.9781918 C5.59158592,24.9781918 0.0218233694,19.4084293 0.0218233694,12.5378974 C0.0218233694,5.66736552 5.59158592,0.0976029677 12.4621178,0.0976029677 C19.3328014,0.0976029677 24.9024122,5.66736552 24.9024122,12.5378974" id="Fill-5" fill="#FFFFFF"></path>
                        <path d="M24.9024122,12.5378974 C24.9024122,19.4084293 19.3328014,24.9781918 12.4621178,24.9781918 C5.59158592,24.9781918 0.0218233694,19.4084293 0.0218233694,12.5378974 C0.0218233694,5.66736552 5.59158592,0.0976029677 12.4621178,0.0976029677 C19.3328014,0.0976029677 24.9024122,5.66736552 24.9024122,12.5378974 Z" id="Stroke-7" stroke="#339900"></path>
                        <path d="M21.4152915,14.0600433 C21.4152915,14.0600433 18.1051112,14.5435459 16.6568789,13.2174409 C16.6568789,13.2174409 18.2568221,12.1537957 17.6636324,10.5238137 C17.0705945,8.89383173 14.7535138,8.43794045 13.4707981,9.28069454 C13.4707981,9.28069454 12.339945,6.44885874 9.0158073,7.05661264 C9.0158073,7.05661264 6.75379767,7.44347545 6.16075973,9.48777993 C6.16075973,9.48777993 3.27810078,9.05965175 2.27119548,11.3388047 C1.2644419,13.6179577 3.37474062,15.9800965 4.53335682,16.3255422 C5.6916696,16.6708363 6.94692565,16.8226989 8.16076462,15.9939022 C8.16076462,15.9939022 11.6502672,18.9363353 16.8085898,17.3753817 C16.8085898,17.3753817 12.6156037,18.0661215 9.89846136,15.565774 C9.89846136,15.565774 9.29161773,14.9232783 9.09848974,14.6470128 C8.90551347,14.3707472 7.6708901,13.3486708 6.80219345,14.115266 C6.80219345,14.115266 6.02983322,14.7724777 6.91931427,15.4896151 C6.91931427,15.4896151 4.81599424,15.8280822 4.74696578,13.9148559 C4.67808903,12.0017814 6.65730953,11.7737599 7.48489253,11.9119685 C8.31232382,12.0500254 9.22274098,12.5612912 10.1950562,13.8321735 C11.1673714,15.102904 12.160471,15.9731178 14.0362246,16.3736346 C15.91213,16.7743031 19.8429596,17.1543389 23.9667655,14.4883232 C23.9667655,14.4883232 20.0498933,16.3531536 16.0913006,15.3723426 C16.0913006,15.3723426 13.9673479,14.9026456 13.0707364,13.4937064 C12.1742767,12.0847672 12.3121819,11.8291344 11.7053383,11.5735015 C11.0984946,11.3180203 10.4364282,11.8567458 10.5743335,12.2988313 C10.5743335,12.2988313 9.75372915,11.2074231 10.6639946,10.2543751 C11.57426,9.30117551 12.9674213,9.91605982 13.3673313,10.7585105 C13.7672412,11.6011129 14.1811086,12.7407652 15.0501086,13.472922 C15.918957,14.2050789 18.4843885,15.3653639 21.4152915,14.0600433" id="Fill-9" fill="#CCCCCC"></path>
                    </g>
                    <g id="Group-14" transform="translate(1.829340, 6.355708)">
                        <mask id="mask-2" fill="white">
                            <use xlink:href="#path-1"></use>
                        </mask>
                        <g id="Clip-13"></g>
                        <path d="M7.09749139,0.198286156 C7.09749139,0.198286156 4.83548176,0.58514897 4.24244382,2.62945345 C4.24244382,2.62945345 1.35993658,2.20132527 0.353182993,4.48047823 C-0.654025722,6.7596312 1.45642471,9.12161831 2.6148892,9.46706405 C3.77365711,9.81250979 5.02876145,9.96437241 6.24244871,9.13557572 C6.24244871,9.13557572 9.73210301,12.0778571 14.8904256,10.5169035 C14.8904256,10.5169035 10.6974395,11.207795 7.98029716,8.70744754 C7.98029716,8.70744754 7.37330182,8.06495184 7.18032554,7.78883799 C6.98719756,7.51242072 5.7527259,6.49049605 4.88387754,7.25693955 C4.88387754,7.25693955 4.1115173,7.9141512 5.00099836,8.63128866 C5.00099836,8.63128866 2.89767833,8.9697557 2.82880158,7.05652944 C2.75962141,5.1434549 4.73914533,4.9154334 5.56657662,5.05364204 C6.39415962,5.19185068 7.30457678,5.70281301 8.27689198,6.97369529 C9.2493589,8.24457756 10.2421551,9.11463961 12.1179087,9.51530812 C13.9939658,9.91612834 17.9246437,10.2958607 22.0486013,7.62999667 C22.0486013,7.62999667 18.1315774,9.49482715 14.1731364,8.51401613 C14.1731364,8.51401613 12.049032,8.04431916 11.1525722,6.63537996 C10.2561125,5.22628905 10.393866,4.97080789 9.78717407,4.71532672 C9.18017873,4.45954213 8.51826404,4.99826756 8.65616925,5.44050485 C8.65616925,5.44050485 7.83541324,4.3492483 8.7458304,3.39604866 C9.65609584,2.44300074 11.0491054,3.05758163 11.4491671,3.90018401 C11.8489253,4.74278639 12.2627927,5.88243873 13.1317927,6.61459557 C14.0007928,7.3466007 16.5660725,8.50703743 19.4969756,7.20171678 C19.4969756,7.20171678 16.1867953,7.68506773 14.738563,6.3591144 C14.738563,6.3591144 16.3385062,5.29546923 15.74562,3.66548724 C15.1522786,2.03550525 12.8351979,1.57961397 11.5524822,2.42236806 C11.5524822,2.42236806 10.6300799,0.112872915 8.00305379,0.112721204 C7.72117493,0.112721204 7.41972535,0.139422324 7.09749139,0.198286156" id="Fill-12" fill="url(#linearGradient-3)" mask="url(#mask-2)"></path>
                    </g>
                </g>
            </g>
        </g>
    </g>
</svg>