<?xml version="1.0" encoding="UTF-8"?>
<svg width="247px" height="22px" viewBox="0 0 247 22" version="1.1" xmlns="http://www.w3.org/2000/svg" xmlns:xlink="http://www.w3.org/1999/xlink">
    <!-- Generator: Sketch 53.1 (72631) - https://sketchapp.com -->
    <title>Group 8</title>
    <desc>Created with Sketch.</desc>
    <defs>
        <polygon id="path-1" points="0 21.0247 246.998 21.0247 246.998 -0.0003 0 -0.0003"></polygon>
    </defs>
    <g id="Symbols" stroke="none" stroke-width="1" fill="none" fill-rule="evenodd">
        <g id="HEADER" transform="translate(-38.000000, -27.000000)">
            <g id="Group-8" transform="translate(38.000000, 27.000000)">
                <path d="M166.3133,13.0353 L170.2653,13.0353 L170.2653,3.6673 L170.2993,3.6673 L177.7283,13.0353 L183.8533,13.0353 L183.8533,0.1433 L179.9033,0.1433 L179.9033,9.5123 L179.8663,9.5123 L172.4383,0.1433 L166.3133,0.1433 L166.3133,13.0353 Z M150.2813,5.8943 C150.2813,4.2903 150.6733,3.3103 152.7573,3.3103 L157.3903,3.3103 C159.4733,3.3103 159.8663,4.2903 159.8663,5.8943 L159.8663,7.2843 C159.8663,9.1563 159.4733,9.8683 157.6023,9.8683 L152.5453,9.8683 C150.6733,9.8683 150.2813,9.1563 150.2813,7.2843 L150.2813,5.8943 Z M146.2243,8.5143 C146.2243,12.2893 148.3413,13.1793 151.9033,13.1793 L158.2433,13.1793 C161.8063,13.1793 163.9233,12.2893 163.9233,8.5143 L163.9233,4.6643 C163.9233,0.8893 161.8063,0.0003 158.2433,0.0003 L151.9033,0.0003 C148.3413,0.0003 146.2243,0.8893 146.2243,4.6643 L146.2243,8.5143 Z M129.7113,3.3473 L135.2683,3.3473 L135.2683,13.0353 L139.2203,13.0353 L139.2203,3.3473 L144.7783,3.3473 L144.7783,0.1433 L129.7113,0.1433 L129.7113,3.3473 Z M112.1873,13.0353 L116.1383,13.0353 L116.1383,9.6873 L122.3553,9.6873 C123.5843,9.6873 123.9763,10.1323 123.9763,11.4853 L123.9763,13.0353 L127.9283,13.0353 L127.9283,10.8443 C127.9283,8.7263 126.9493,8.2083 125.7743,7.9963 L125.7743,7.9603 C127.5903,7.5333 127.9823,6.5173 127.9823,4.7903 L127.9823,3.9713 C127.9823,1.6573 127.1643,0.1433 124.1203,0.1433 L112.1873,0.1433 L112.1873,13.0353 Z M116.1383,3.3473 L122.3203,3.3473 C123.5673,3.3473 124.1373,3.5593 124.1373,4.7013 L124.1373,5.1303 C124.1373,6.0563 123.7463,6.4833 122.6763,6.4833 L116.1383,6.4833 L116.1383,3.3473 Z M93.2723,8.4443 C93.2723,11.6473 94.9273,13.1793 98.5603,13.1793 L104.2243,13.1793 C107.8573,13.1793 109.5133,11.6473 109.5133,8.4443 L109.5133,0.1433 L105.5623,0.1433 L105.5623,7.5883 C105.5623,9.2263 104.9733,9.8683 103.3533,9.8683 L99.4333,9.8683 C97.8113,9.8683 97.2243,9.2263 97.2243,7.5883 L97.2243,0.1433 L93.2723,0.1433 L93.2723,8.4443 Z M78.3083,3.2403 L85.3103,3.2403 C86.0403,3.2403 86.4683,3.5073 86.4683,4.2563 C86.4683,4.9863 86.0403,5.2563 85.3103,5.2563 L78.3083,5.2563 L78.3083,3.2403 Z M78.3083,7.9233 L85.3993,7.9233 C86.2553,7.9233 86.8253,8.1193 86.8253,8.9943 C86.8253,9.7423 86.2553,9.9383 85.3993,9.9383 L78.3083,9.9383 L78.3083,7.9233 Z M74.3573,13.0353 L86.9483,13.0353 C89.2103,13.0353 90.8823,12.4493 90.8823,9.6163 C90.8823,7.6753 90.2413,6.7513 88.5163,6.5363 L88.5163,6.4833 C89.6183,6.1613 90.4193,5.7343 90.4193,3.5253 C90.4193,0.9973 88.8893,0.1433 85.7383,0.1433 L74.3573,0.1433 L74.3573,13.0353 Z M67.5193,13.0353 L71.4703,13.0353 L71.4703,0.1433 L67.5193,0.1433 L67.5193,13.0353 Z M52.7903,13.0353 L65.6293,13.0353 L65.6293,9.7233 L56.7413,9.7233 L56.7413,0.1433 L52.7903,0.1433 L52.7903,13.0353 Z M38.2733,13.0353 L51.1123,13.0353 L51.1123,9.7233 L42.2263,9.7233 L42.2263,0.1433 L38.2733,0.1433 L38.2733,13.0353 Z M27.1963,3.1333 L29.7593,7.9803 L24.7013,7.9803 L27.1963,3.1333 Z M17.6493,13.0353 L22.0653,13.0353 L23.2243,10.7553 L31.2373,10.7553 L32.4663,13.0353 L36.8653,13.0353 L29.7763,0.1433 L24.6303,0.1433 L17.6493,13.0353 Z M0.0003,13.0353 L3.9523,13.0353 L3.9523,8.1563 L12.2893,8.1563 L12.2893,13.0353 L16.2413,13.0353 L16.2413,0.1433 L12.2893,0.1433 L12.2893,4.7373 L3.9523,4.7373 L3.9523,0.1433 L0.0003,0.1433 L0.0003,13.0353 Z" id="Fill-1" fill="#FFFFFF"></path>
                <mask id="mask-2" fill="white">
                    <use xlink:href="#path-1"></use>
                </mask>
                <g id="Clip-4"></g>
                <polygon id="Fill-3" fill="#FFFFFF" mask="url(#mask-2)" points="202.965 21.0247 204.305 21.0247 204.305 0.2527 202.965 0.2527"></polygon>
                <path d="M217.6429,5.0802 L219.1439,2.1632 L220.6869,5.0802 L217.6429,5.0802 Z M220.6979,0.3642 L217.6009,0.3642 L213.3989,8.1222 L216.0569,8.1222 L216.7539,6.7502 L221.5769,6.7502 L222.3159,8.1222 L224.9629,8.1222 L220.6979,0.3642 Z" id="Fill-5" fill="#FFFFFF" mask="url(#mask-2)"></path>
                <path d="M228.1951,4.2433 L231.8911,4.2433 C232.4481,4.2433 232.6631,3.8803 232.6631,3.4193 L232.6631,3.1183 C232.6631,2.5933 232.4051,2.2933 231.6881,2.2933 L228.1951,2.2933 L228.1951,4.2433 Z M225.8161,0.3643 L232.2981,0.3643 C234.5591,0.3643 235.1061,1.5003 235.1061,3.0223 L235.1061,3.6853 C235.1061,4.8443 234.6021,6.1723 232.9201,6.1723 L228.1951,6.1723 L228.1951,8.1223 L225.8161,8.1223 L225.8161,0.3643 Z" id="Fill-6" fill="#FFFFFF" mask="url(#mask-2)"></path>
                <polygon id="Fill-7" fill="#FFFFFF" mask="url(#mask-2)" points="246.9983 0.3644 243.9353 0.3644 241.2313 2.8414 238.6143 0.4424 235.5513 0.4424 239.7003 4.2434 235.5513 8.0444 238.6143 8.0444 241.2313 5.6454 243.9353 8.1224 246.9983 8.1224 242.7633 4.2434"></polygon>
            </g>
        </g>
    </g>
</svg>