<?xml version="1.0" encoding="UTF-8"?>
<svg width="296px" height="22px" viewBox="0 0 296 22" version="1.1" xmlns="http://www.w3.org/2000/svg" xmlns:xlink="http://www.w3.org/1999/xlink">
    <!-- Generator: Sketch 52.5 (67469) - http://www.bohemiancoding.com/sketch -->
    <title>HAL logo</title>
    <desc>Created with Sketch.</desc>
    <defs>
        <polygon id="path-1" points="0 21.0247 295.954 21.0247 295.954 -0.0003 0 -0.0003"></polygon>
    </defs>
    <g id="Solstice" stroke="none" stroke-width="1" fill="none" fill-rule="evenodd">
        <g id="Solstice-Home-Version2" transform="translate(-38.000000, -27.000000)">
            <g id="HEADER">
                <g id="HAL-logo" transform="translate(38.000000, 27.000000)">
                    <path d="M166.3133,13.0351 L170.2653,13.0351 L170.2653,3.6671 L170.2993,3.6671 L177.7283,13.0351 L183.8533,13.0351 L183.8533,0.1431 L179.9033,0.1431 L179.9033,9.5121 L179.8663,9.5121 L172.4383,0.1431 L166.3133,0.1431 L166.3133,13.0351 Z M150.2813,5.8941 C150.2813,4.2901 150.6733,3.3111 152.7573,3.3111 L157.3903,3.3111 C159.4733,3.3111 159.8663,4.2901 159.8663,5.8941 L159.8663,7.2841 C159.8663,9.1561 159.4733,9.8681 157.6023,9.8681 L152.5453,9.8681 C150.6733,9.8681 150.2813,9.1561 150.2813,7.2841 L150.2813,5.8941 Z M146.2243,8.5141 C146.2243,12.2891 148.3413,13.1791 151.9033,13.1791 L158.2433,13.1791 C161.8063,13.1791 163.9233,12.2891 163.9233,8.5141 L163.9233,4.6641 C163.9233,0.8891 161.8063,0.0001 158.2433,0.0001 L151.9033,0.0001 C148.3413,0.0001 146.2243,0.8891 146.2243,4.6641 L146.2243,8.5141 Z M129.7113,3.3471 L135.2683,3.3471 L135.2683,13.0351 L139.2203,13.0351 L139.2203,3.3471 L144.7783,3.3471 L144.7783,0.1431 L129.7113,0.1431 L129.7113,3.3471 Z M112.1873,13.0351 L116.1383,13.0351 L116.1383,9.6871 L122.3553,9.6871 C123.5843,9.6871 123.9763,10.1331 123.9763,11.4851 L123.9763,13.0351 L127.9283,13.0351 L127.9283,10.8451 C127.9283,8.7261 126.9493,8.2091 125.7743,7.9961 L125.7743,7.9601 C127.5903,7.5331 127.9823,6.5171 127.9823,4.7901 L127.9823,3.9711 C127.9823,1.6571 127.1643,0.1431 124.1203,0.1431 L112.1873,0.1431 L112.1873,13.0351 Z M116.1383,3.3471 L122.3203,3.3471 C123.5673,3.3471 124.1373,3.5591 124.1373,4.7011 L124.1373,5.1311 C124.1373,6.0561 123.7463,6.4831 122.6763,6.4831 L116.1383,6.4831 L116.1383,3.3471 Z M93.2723,8.4441 C93.2723,11.6481 94.9273,13.1791 98.5603,13.1791 L104.2243,13.1791 C107.8573,13.1791 109.5133,11.6481 109.5133,8.4441 L109.5133,0.1431 L105.5623,0.1431 L105.5623,7.5881 C105.5623,9.2261 104.9733,9.8681 103.3533,9.8681 L99.4333,9.8681 C97.8113,9.8681 97.2243,9.2261 97.2243,7.5881 L97.2243,0.1431 L93.2723,0.1431 L93.2723,8.4441 Z M78.3083,3.2401 L85.3103,3.2401 C86.0403,3.2401 86.4683,3.5081 86.4683,4.2561 C86.4683,4.9861 86.0403,5.2561 85.3103,5.2561 L78.3083,5.2561 L78.3083,3.2401 Z M78.3083,7.9231 L85.3993,7.9231 C86.2553,7.9231 86.8253,8.1191 86.8253,8.9941 C86.8253,9.7421 86.2553,9.9381 85.3993,9.9381 L78.3083,9.9381 L78.3083,7.9231 Z M74.3573,13.0351 L86.9483,13.0351 C89.2103,13.0351 90.8823,12.4491 90.8823,9.6171 C90.8823,7.6751 90.2413,6.7511 88.5163,6.5361 L88.5163,6.4831 C89.6183,6.1621 90.4193,5.7351 90.4193,3.5251 C90.4193,0.9971 88.8893,0.1431 85.7383,0.1431 L74.3573,0.1431 L74.3573,13.0351 Z M67.5193,13.0351 L71.4703,13.0351 L71.4703,0.1431 L67.5193,0.1431 L67.5193,13.0351 Z M52.7903,13.0351 L65.6293,13.0351 L65.6293,9.7231 L56.7413,9.7231 L56.7413,0.1431 L52.7903,0.1431 L52.7903,13.0351 Z M38.2733,13.0351 L51.1123,13.0351 L51.1123,9.7231 L42.2263,9.7231 L42.2263,0.1431 L38.2733,0.1431 L38.2733,13.0351 Z M27.1963,3.1331 L29.7593,7.9801 L24.7013,7.9801 L27.1963,3.1331 Z M17.6493,13.0351 L22.0653,13.0351 L23.2243,10.7551 L31.2373,10.7551 L32.4663,13.0351 L36.8653,13.0351 L29.7763,0.1431 L24.6303,0.1431 L17.6493,13.0351 Z M0.0003,13.0351 L3.9523,13.0351 L3.9523,8.1561 L12.2893,8.1561 L12.2893,13.0351 L16.2413,13.0351 L16.2413,0.1431 L12.2893,0.1431 L12.2893,4.7371 L3.9523,4.7371 L3.9523,0.1431 L0.0003,0.1431 L0.0003,13.0351 Z" id="Fill-1" fill="#FFFFFF"></path>
                    <mask id="mask-2" fill="white">
                        <use xlink:href="#path-1"></use>
                    </mask>
                    <g id="Clip-4"></g>
                    <polygon id="Fill-3" fill="#FFFFFF" mask="url(#mask-2)" points="202.965 21.0247 204.305 21.0247 204.305 0.2527 202.965 0.2527"></polygon>
                    <polygon id="Fill-5" fill="#FFFFFF" mask="url(#mask-2)" points="213.9729 0.2197 217.6269 0.2197 220.3169 5.2137 223.0059 0.2197 226.6599 0.2197 226.6599 7.9787 224.3449 7.9787 224.3449 2.4077 224.3239 2.4077 221.2049 7.9787 219.4269 7.9787 216.3089 2.4077 216.2869 2.4077 216.2869 7.9787 213.9729 7.9787"></polygon>
                    <path d="M235.4939,7.9785 L233.4369,7.9785 L233.4369,7.0995 L233.4139,7.0995 C233.0509,7.8605 232.3319,8.0635 231.2289,8.0635 C229.9539,8.0635 228.1759,8.0105 228.1759,5.6525 L228.1759,2.5125 L230.2329,2.5125 L230.2329,5.6525 C230.2329,6.1895 230.6609,6.4565 231.5609,6.4565 L232.0329,6.4565 C232.9109,6.4565 233.4369,6.0485 233.4369,5.2675 L233.4369,2.5125 L235.4939,2.5125 L235.4939,7.9785 Z" id="Fill-6" fill="#FFFFFF" mask="url(#mask-2)"></path>
                    <polygon id="Fill-7" fill="#FFFFFF" mask="url(#mask-2)" points="237.028 7.9787 239.085 7.9787 239.085 0.2197 237.028 0.2197"></polygon>
                    <path d="M241.1111,3.9922 L240.0831,3.9922 L240.0831,2.5132 L241.1111,2.5132 L241.1111,1.2272 L243.1691,1.2272 L243.1691,2.5132 L246.3621,2.5132 L246.3621,3.9922 L243.1691,3.9922 L243.1691,6.0932 C243.1691,6.4992 243.4681,6.5862 243.9621,6.5862 C244.6271,6.5862 244.8081,6.4352 244.8081,5.9312 L244.8081,5.5672 L246.6081,5.5672 L246.6081,6.2312 C246.6081,7.2712 245.9221,8.0632 244.2841,8.0632 L243.4681,8.0632 C242.2041,8.0632 241.1111,7.6682 241.1111,6.1562 L241.1111,3.9922 Z" id="Fill-8" fill="#FFFFFF" mask="url(#mask-2)"></path>
                    <path d="M247.886,7.9787 L249.943,7.9787 L249.943,2.5127 L247.886,2.5127 L247.886,7.9787 Z M247.886,1.8267 L249.943,1.8267 L249.943,0.2197 L247.886,0.2197 L247.886,1.8267 Z" id="Fill-9" fill="#FFFFFF" mask="url(#mask-2)"></path>
                    <polygon id="Fill-10" fill="#FFFFFF" mask="url(#mask-2)" points="251.648 6.2317 254.648 6.2317 254.648 4.3037 251.648 4.3037"></polygon>
                    <path d="M256.1609,2.9424 C256.1609,0.6704 257.4349,0.1344 259.5789,0.1344 L262.3759,0.1344 C265.7619,0.1344 266.2009,0.8624 266.1799,3.0594 L263.7999,3.0594 L263.7999,2.8454 C263.7999,2.2884 263.3929,2.1284 262.6859,2.1284 L260.0939,2.1284 C258.8399,2.1284 258.6039,2.7164 258.6039,3.6814 L258.6039,4.5164 C258.6039,5.6424 258.8399,6.0714 259.9639,6.0714 L262.5039,6.0714 C263.5759,6.0714 263.8969,5.9634 263.8969,4.9994 L266.2759,4.9994 L266.2759,5.7284 C266.2759,7.0344 265.8049,8.0634 263.4149,8.0634 L259.5789,8.0634 C257.4349,8.0634 256.1609,7.5284 256.1609,5.2554 L256.1609,2.9424 Z" id="Fill-11" fill="#FFFFFF" mask="url(#mask-2)"></path>
                    <path d="M267.6189,0.2197 L269.6749,0.2197 L269.6749,3.3927 L269.6969,3.3927 C270.0609,2.6307 270.7799,2.4277 271.8829,2.4277 C273.1579,2.4277 274.9359,2.4817 274.9359,4.8387 L274.9359,7.9787 L272.8789,7.9787 L272.8789,4.8387 C272.8789,4.3037 272.4509,4.0347 271.5509,4.0347 L271.0789,4.0347 C270.2009,4.0347 269.6749,4.4427 269.6749,5.2247 L269.6749,7.9787 L267.6189,7.9787 L267.6189,0.2197 Z" id="Fill-12" fill="#FFFFFF" mask="url(#mask-2)"></path>
                    <path d="M281.1541,4.4853 C281.1541,3.8313 280.8541,3.7133 279.6541,3.7133 C278.3151,3.7133 278.1541,3.8313 278.1541,4.4853 L281.1541,4.4853 Z M276.0971,4.9463 C276.0971,2.8783 277.1261,2.4273 278.6261,2.4273 L280.0611,2.4273 C282.2481,2.4273 283.1471,2.8883 283.1471,4.7853 L283.1471,5.7063 L278.1541,5.7063 L278.1541,6.0393 C278.1541,6.6173 278.5611,6.7783 279.4191,6.7783 L280.0511,6.7783 C281.1661,6.7783 281.2191,6.4783 281.2191,6.1563 L283.1471,6.1563 L283.1471,6.3913 C283.1471,7.7633 281.9261,8.0633 280.4371,8.0633 L278.8941,8.0633 C277.5331,8.0633 276.0971,7.8063 276.0971,5.4703 L276.0971,4.9463 Z" id="Fill-13" fill="#FFFFFF" mask="url(#mask-2)"></path>
                    <path d="M284.2102,2.5127 L286.1702,2.5127 L286.1702,3.5847 L286.1912,3.5847 C286.2992,2.8017 287.0072,2.4277 288.0132,2.4277 L288.7962,2.4277 C289.7712,2.4277 290.4362,2.8457 290.8202,3.7017 C291.1632,2.7167 291.6032,2.4277 292.7712,2.4277 L293.4042,2.4277 C295.2782,2.4277 295.9542,3.3387 295.9542,4.9027 L295.9542,7.9787 L293.8962,7.9787 L293.8962,5.0427 C293.8962,4.2907 293.7042,4.0347 292.5032,4.0347 C291.5182,4.0347 291.1092,4.2497 291.1092,4.9667 L291.1092,7.9787 L289.0522,7.9787 L289.0522,4.8817 C289.0522,4.2057 288.8062,4.0347 287.5632,4.0347 C286.6852,4.0347 286.2672,4.2497 286.2672,5.0967 L286.2672,7.9787 L284.2102,7.9787 L284.2102,2.5127 Z" id="Fill-14" fill="#FFFFFF" mask="url(#mask-2)"></path>
                </g>
            </g>
        </g>
    </g>
</svg>