<?xml version="1.0" encoding="UTF-8"?>
<svg width="28px" height="33px" viewBox="0 0 28 33" version="1.1" xmlns="http://www.w3.org/2000/svg" xmlns:xlink="http://www.w3.org/1999/xlink">
    <!-- Generator: Sketch 52.5 (67469) - http://www.bohemiancoding.com/sketch -->
    <title>Notification</title>
    <desc>Created with Sketch.</desc>
    <defs>
        <polygon id="path-1" points="0 0.0728285714 27.96304 0.0728285714 27.96304 25.9586857 0 25.9586857"></polygon>
        <polygon id="path-3" points="0.0270675676 0.107152174 9.88098649 0.107152174 9.88098649 6 0.0270675676 6"></polygon>
    </defs>
    <g id="Symbols" stroke="none" stroke-width="1" fill="none" fill-rule="evenodd">
        <g id="HEADER" transform="translate(-1300.000000, -24.000000)">
            <g id="Notifications" transform="translate(1300.000000, 19.000000)">
                <g id="Notification" transform="translate(0.000000, 5.000000)">
                    <g id="BellIcon">
                        <g id="Group-3" transform="translate(0.000000, 3.000000)">
                            <mask id="mask-2" fill="white">
                                <use xlink:href="#path-1"></use>
                            </mask>
                            <g id="Clip-2"></g>
                            <path d="M1.66446,24.2602571 L26.29858,24.2602571 L26.29858,21.2672571 C24.58652,20.8782571 23.30258,19.3162571 23.30258,17.4536857 L23.30258,11.2825429 C23.30258,6.03782857 19.12106,1.77125714 13.98152,1.77125714 C8.84184,1.77125714 4.66046,6.03782857 4.66046,11.2825429 L4.66046,17.4536857 C4.66046,19.3162571 3.37652,20.8782571 1.66446,21.2672571 L1.66446,24.2602571 Z M27.13074,25.9586857 L0.8323,25.9586857 C0.37254,25.9586857 0,25.5785429 0,25.1094 L0,20.5108286 C0,20.0418286 0.37254,19.6616857 0.8323,19.6616857 C2.02524,19.6616857 2.99614,18.6711143 2.99614,17.4536857 L2.99614,11.2825429 C2.99614,5.1014 7.92414,0.0728285714 13.98152,0.0728285714 C20.0389,0.0728285714 24.9669,5.1014 24.9669,11.2825429 L24.9669,17.4536857 C24.9669,18.6711143 25.93766,19.6616857 27.13074,19.6616857 C27.5905,19.6616857 27.96304,20.0418286 27.96304,20.5108286 L27.96304,25.1094 C27.96304,25.5785429 27.5905,25.9586857 27.13074,25.9586857 Z" id="Fill-1" fill="#FEFEFE" mask="url(#mask-2)"></path>
                        </g>
                        <g id="Group-6" transform="translate(9.000000, 27.000000)">
                            <mask id="mask-4" fill="white">
                                <use xlink:href="#path-3"></use>
                            </mask>
                            <g id="Clip-5"></g>
                            <path d="M1.66125676,1.6578913 C1.8722027,3.23054348 3.26841892,4.44919565 4.95395946,4.44919565 C6.63977027,4.44919565 8.03612162,3.23054348 8.24693243,1.6578913 L1.66125676,1.6578913 Z M4.95395946,6.00006522 C2.23733784,6.00006522 0.0270675676,3.86667391 0.0270675676,1.24454348 L0.0270675676,0.882586957 C0.0270675676,0.45423913 0.386662162,0.107152174 0.830445946,0.107152174 L9.07774324,0.107152174 C9.52139189,0.107152174 9.88098649,0.45423913 9.88098649,0.882586957 L9.88098649,1.24454348 C9.88098649,3.86667391 7.67085135,6.00006522 4.95395946,6.00006522 Z" id="Fill-4" fill="#FEFEFE" mask="url(#mask-4)"></path>
                        </g>
                        <path d="M11.8015751,4 C11.3588478,4 11,3.65602378 11,3.23164426 L11,2.39632885 C11,1.07510341 12.12145,0 13.5000674,0 C14.8784152,0 16,1.07510341 16,2.39632885 L16,3.14607032 C16,3.57044984 15.6412871,3.91442606 15.19829,3.91442606 C14.7555627,3.91442606 14.3967149,3.57044984 14.3967149,3.14607032 L14.3967149,2.39632885 C14.3967149,1.92244054 13.9945788,1.53684074 13.5000674,1.53684074 C13.0056909,1.53684074 12.6031502,1.92244054 12.6031502,2.39632885 L12.6031502,3.23164426 C12.6031502,3.65602378 12.2443024,4 11.8015751,4" id="Fill-7" fill="#FEFEFE"></path>
                    </g>
                </g>
            </g>
        </g>
    </g>
</svg>