<?xml version="1.0" encoding="utf-8"?>
<!-- Generator: Adobe Illustrator 23.1.1, SVG Export Plug-In . SVG Version: 6.00 Build 0)  -->
<svg version="1.1" id="Layer_1" xmlns="http://www.w3.org/2000/svg" xmlns:xlink="http://www.w3.org/1999/xlink" x="0px" y="0px"
	 viewBox="0 0 28 28" style="enable-background:new 0 0 28 28;" xml:space="preserve">
<style type="text/css">
	.st0{fill:#CC0000;}
	.st1{fill-rule:evenodd;clip-rule:evenodd;fill:#CC0000;}
	.st2{enable-background:new    ;}
	.st3{fill:#FFFFFF;}
</style>
<title>Remove</title>
<desc>Created with Sketch.</desc>
<g id="radio-1-copy-6">
	<path class="st0" d="M14,27.5C6.6,27.5,0.5,21.4,0.5,14S6.6,0.5,14,0.5c7.4,0,13.5,6.1,13.5,13.5S21.4,27.5,14,27.5z M14,1.5
		C7.1,1.5,1.5,7.1,1.5,14c0,6.9,5.6,12.5,12.5,12.5S26.5,20.9,26.5,14C26.5,7.1,20.9,1.5,14,1.5z"/>
</g>
<circle id="selected-copy-4" class="st1" cx="14" cy="14" r="10"/>
<g class="st2">
	<path class="st3" d="M10.3,20H8.3l4.5-6.1l-4-5.5h2l3.1,4.5l3.1-4.5H19L14.9,14l4.3,6h-2l-3.4-5L10.3,20z"/>
</g>
</svg>
