<?xml version="1.0" encoding="UTF-8"?>
<svg width="26px" height="42px" viewBox="0 0 26 42" version="1.1" xmlns="http://www.w3.org/2000/svg" xmlns:xlink="http://www.w3.org/1999/xlink">
    <!-- Generator: Sketch 53.1 (72631) - https://sketchapp.com -->
    <title>Stim</title>
    <desc>Created with Sketch.</desc>
    <defs>
        <polygon id="path-1" points="0 0 26 0 26 42 0 42"></polygon>
    </defs>
    <g id="Solstice" stroke="none" stroke-width="1" fill="none" fill-rule="evenodd">
        <g id="Stim-Manage-Landing" transform="translate(-1319.000000, -450.000000)">
            <g id="WellCard-6" transform="translate(728.000000, 372.000000)">
                <g id="Stim" transform="translate(591.000000, 78.000000)">
                    <mask id="mask-2" fill="white">
                        <use xlink:href="#path-1"></use>
                    </mask>
                    <g id="Clip-2"></g>
                    <path d="M8.16260241,4.39796115 L5.80400517,2.01383929 L10.5218225,2.01383929 L8.16260241,4.39796115 Z M8.64279212,15.6912682 L12.5590476,11.7339122 L13.7878599,20.8907822 L8.64279212,15.6912682 Z M7.68116706,15.6912682 L2.53672208,20.8914045 L3.75930628,11.7283113 L7.68116706,15.6912682 Z M4.20399559,8.39887982 L5.03046999,2.20427033 L7.68178987,4.88337359 L4.20399559,8.39887982 Z M8.64341494,4.88337359 L11.2822785,2.2167168 L12.1099986,8.38705567 L8.64341494,4.88337359 Z M11.9474441,9.19483175 L4.37776074,9.19483175 L8.16260241,5.37003067 L11.9474441,9.19483175 Z M12.0987879,11.2279631 L8.16260241,15.2058558 L4.22579409,11.2279631 L12.0987879,11.2279631 Z M14.0014852,22.4826861 L2.32371964,22.4826861 L2.38662387,22.0146987 L8.16260241,16.1779253 L13.9385809,22.015321 L14.0014852,22.4826861 Z M17.899679,30.0208923 C17.7340104,30.02027 17.4992095,29.9928877 17.4151296,29.8858481 C17.1012313,29.483827 16.8359124,29.0438442 16.5313563,28.585814 C18.2889379,28.0593282 19.991089,27.5484005 21.6932401,27.0387174 C21.6072917,26.9827083 21.5406506,26.9926655 21.4746323,27.0069789 C19.853447,27.3536132 18.2328846,27.7046037 16.6092081,28.0412808 C16.4715661,28.0699077 16.2367652,28.0537273 16.1782207,27.9684689 C15.8568486,27.5029709 15.5759594,27.0088459 15.2676664,26.5028968 C16.2392565,26.0436219 17.1678724,25.6055061 18.1182868,25.1568107 C17.8785033,24.3757946 17.6474393,23.6215383 17.4157524,22.8672821 C17.4481387,23.4398198 17.5160255,24.0042674 17.644948,24.5550238 C17.7215542,24.884233 17.6362286,25.0192772 17.3260672,25.1356517 C16.3507402,25.5009557 15.3884923,25.9004875 14.3814018,26.3018862 C15.0789537,27.5427996 15.7553299,28.7463735 16.4429167,29.9704841 L9.36899344,29.9704841 C9.36899344,26.6329624 9.36837062,27.0785461 9.36837062,24.5151951 L16.324582,24.5151951 L13.3076702,2.01383929 L13.8052987,2.01383929 C14.3596033,2.01383929 14.813012,1.56016536 14.813012,1.00691965 C14.813012,0.453051608 14.3596033,0 13.8052987,0 L2.5199061,0 C1.96560149,0 1.51219278,0.453051608 1.51219278,1.00691965 C1.51219278,1.56016536 1.96560149,2.01383929 2.5199061,2.01383929 L3.00320989,2.01383929 L0,24.5151951 L7.30436449,24.5151951 C7.30374168,26.8153032 7.30062761,28.7880692 7.30747856,29.5753086 C7.31931203,30.8647631 8.16384803,31.8418113 9.42753797,32.0322423 C9.63929478,32.0639808 9.85478848,32.0670924 10.1500024,32.0901184 C9.60877689,32.5357021 9.13356968,32.927766 8.63843242,33.335388 C8.971638,33.6229015 8.87074211,33.8344915 8.66645906,34.0827987 C8.16758492,34.6889419 7.6961146,35.3168665 7.21405644,35.9354561 L7.27945192,35.9939546 C7.84745844,35.4911171 8.41484214,34.9882796 9.01025248,34.4611715 C9.42816078,35.1202122 9.82676185,35.7487591 10.2253629,36.3779283 C10.2459158,36.3642371 10.2670915,36.3517907 10.2882671,36.3387219 C9.93886839,35.4039918 9.58946965,34.4686393 9.23072869,33.5108833 C9.85727974,33.0908148 10.4607867,32.668257 11.0860921,32.2780601 C11.2729363,32.1610633 11.5183251,32.0795389 11.7369329,32.0789166 C15.0440761,32.0664701 18.3505965,32.0708264 21.6577397,32.0708264 L22.0114981,32.0708264 C22.0171034,32.0969639 22.0227088,32.1224792 22.0283141,32.1486168 C20.9645475,32.6346516 19.9007809,33.120064 18.8040052,33.6210345 C19.340871,34.3771578 19.8459733,35.0884737 20.3766109,35.837129 C18.127629,36.8857443 15.9110334,37.9194239 13.6664112,38.9674169 C14.3533752,39.9954956 15.0222776,40.9980589 15.6905572,42 C15.717961,41.9825749 15.744742,41.9651499 15.7721458,41.9483471 C15.225315,40.9912134 14.679107,40.034702 14.1204427,39.0557869 C15.7528386,38.3544281 17.3229531,37.6798293 18.9210942,36.9934063 C19.3178269,37.6729837 19.7151823,38.3258012 20.0801514,38.9960438 C20.2159249,39.2449733 20.3448474,39.2854243 20.6039381,39.1895865 C21.3457098,38.9163864 22.0986921,38.6718132 22.8566569,38.4129266 C22.9675178,38.5871772 23.0628084,38.7365348 23.1587218,38.8852702 C23.1767834,38.8778023 23.1954678,38.8715791 23.2141523,38.8641112 C23.141283,38.6052246 23.0684137,38.3469602 22.983711,38.0463779 C22.1242275,38.2834832 21.3008671,38.510009 20.4694102,38.7396465 C20.1449241,38.0731378 19.8409908,37.4489472 19.5233555,36.7973744 C20.0994586,36.5608914 20.6550089,36.3318763 21.2329804,36.094771 C20.7285009,35.3716309 20.2620131,34.702633 19.7787093,34.0099868 C19.9425095,33.9359303 20.0670723,33.8768096 20.1935036,33.8220451 C21.4459828,33.2793789 22.6965937,32.7323564 23.9534327,32.200892 C24.1521104,32.1175006 24.3806832,32.0664701 24.5949313,32.0658478 C25.0558137,32.0646031 25.5179418,32.0633585 26,32.0621138 L26,30.0258709 C22.9575528,30.0252486 20.4258133,30.0240039 17.899679,30.0208923 L17.899679,30.0208923 Z" id="Fill-1" fill="#CC0000" mask="url(#mask-2)"></path>
                </g>
            </g>
        </g>
    </g>
</svg>