<?xml version="1.0" encoding="UTF-8"?>
<svg width="33px" height="33px" viewBox="0 0 33 33" version="1.1" xmlns="http://www.w3.org/2000/svg" xmlns:xlink="http://www.w3.org/1999/xlink">
    <!-- Generator: Sketch 52.5 (67469) - http://www.bohemiancoding.com/sketch -->
    <title>UserIcon</title>
    <desc>Created with Sketch.</desc>
    <defs>
        <polygon id="path-1" points="0 0 33 0 33 33 0 33"></polygon>
    </defs>
    <g id="Symbols" stroke="none" stroke-width="1" fill="none" fill-rule="evenodd">
        <g id="HEADER" transform="translate(-1152.000000, -23.000000)">
            <g id="UserIcon">
                <g transform="translate(1152.000000, 23.000000)">
                    <mask id="mask-2" fill="white">
                        <use xlink:href="#path-1"></use>
                    </mask>
                    <g id="Clip-2"></g>
                    <path d="M26.4201086,27.4835108 C24.5414454,26.5716 22.6119183,25.6345535 22.0640947,25.3788799 C21.0077169,24.8858134 21.2895418,23.5477799 21.2189586,23.336369 C21.1485447,23.1250426 20.5146503,23.336369 20.5146503,23.336369 L20.2329947,20.8007914 C20.2329947,20.8007914 21.7062702,19.1197442 21.4882579,17.6303039 C21.4882579,17.6303039 22.1785173,17.7756172 22.5418429,16.0317729 C22.9051685,14.2880133 22.57815,13.9973867 22.3238306,14.1790071 C22.3238306,14.1790071 22.9555246,13.1558898 22.7960777,11.0184216 C22.6143726,8.58431793 20.4486373,6.15029891 16.5000423,6.15029891 C12.5512781,6.15029891 10.3855428,8.58431793 10.2039223,11.0184216 C10.0445601,13.1558898 10.6761694,14.1790071 10.6761694,14.1790071 C10.4219346,13.9973867 10.0949162,14.2880133 10.4582418,16.0317729 C10.8215673,17.7756172 11.5117421,17.6303039 11.5117421,17.6303039 C11.2938991,19.1197442 12.7671745,20.8007914 12.7671745,20.8007914 L12.4853497,23.336369 C12.4853497,23.336369 11.8513707,23.1250426 11.7809568,23.336369 C11.7105429,23.5477799 11.9923677,24.8858134 10.9358207,25.3788799 C10.3880817,25.6345535 8.45863927,26.5716 6.57989141,27.4835108 C3.58053,24.7718986 1.69264188,20.8523324 1.69264188,16.5000423 C1.69264188,8.33524568 8.33524568,1.69264188 16.5000423,1.69264188 C24.664839,1.69264188 31.3073581,8.33524568 31.3073581,16.5000423 C31.3073581,20.8523324 29.41947,24.7718986 26.4201086,27.4835108 M16.5000423,0 C7.40192294,0 0,7.40192294 0,16.5000423 C0,25.5981617 7.40192294,33 16.5000423,33 C25.5981617,33 33,25.5981617 33,16.5000423 C33,7.40192294 25.5981617,0 16.5000423,0" id="Fill-1" fill="#FFFFFF" mask="url(#mask-2)"></path>
                </g>
            </g>
        </g>
    </g>
</svg>