<?xml version="1.0" encoding="UTF-8"?>
<svg width="27px" height="27px" viewBox="0 0 27 27" version="1.1" xmlns="http://www.w3.org/2000/svg" xmlns:xlink="http://www.w3.org/1999/xlink">
    <!-- Generator: Sketch 52.5 (67469) - http://www.bohemiancoding.com/sketch -->
    <title>Add Analysis Copy</title>
    <desc>Created with Sketch.</desc>
    <g id="Solstice" stroke="none" stroke-width="1" fill="none" fill-rule="evenodd">
        <g id="Assets-Landing" transform="translate(-938.000000, -466.000000)">
            <g id="LocationCard-6" transform="translate(728.000000, 372.000000)">
                <g id="Add-Analysis-Copy" transform="translate(211.000000, 95.000000)">
                    <path d="M24.9024122,12.5378974 C24.9024122,19.4084293 19.3328014,24.9781918 12.4621178,24.9781918 C5.59158592,24.9781918 0.0218233694,19.4084293 0.0218233694,12.5378974 C0.0218233694,5.66736552 5.59158592,0.0976029677 12.4621178,0.0976029677 C19.3328014,0.0976029677 24.9024122,5.66736552 24.9024122,12.5378974" id="Fill-5" fill="#FFFFFF"></path>
                    <path d="M24.9024122,12.5378974 C24.9024122,19.4084293 19.3328014,24.9781918 12.4621178,24.9781918 C5.59158592,24.9781918 0.0218233694,19.4084293 0.0218233694,12.5378974 C0.0218233694,5.66736552 5.59158592,0.0976029677 12.4621178,0.0976029677 C19.3328014,0.0976029677 24.9024122,5.66736552 24.9024122,12.5378974 Z" id="Stroke-7" stroke="#43494E"></path>
                    <polygon id="+" fill="#43494E" points="11.157138 5.92414455 13.239262 5.92414455 13.239262 12.0812826 19.3964 12.0812826 19.3964 14.1634065 13.239262 14.1634065 13.239262 20.3205445 11.157138 20.3205445 11.157138 14.1634065 5 14.1634065 5 12.0812826 11.157138 12.0812826"></polygon>
                </g>
            </g>
        </g>
    </g>
</svg>