<?xml version="1.0" encoding="UTF-8"?>
<svg width="50px" height="50px" viewBox="0 0 50 50" version="1.1" xmlns="http://www.w3.org/2000/svg" xmlns:xlink="http://www.w3.org/1999/xlink">
    <!-- Generator: Sketch 53.1 (72631) - https://sketchapp.com -->
    <title>Group 8</title>
    <desc>Created with Sketch.</desc>
    <defs>
        <polygon id="path-1" points="6.25e-05 0 50 0 50 49.9998125 6.25e-05 49.9998125"></polygon>
    </defs>
    <g id="Solstice" stroke="none" stroke-width="1" fill="none" fill-rule="evenodd">
        <g id="Solstice-Settings-Gears-Hover" transform="translate(-512.000000, -424.000000)">
            <g id="Module" transform="translate(471.000000, 180.000000)">
                <g id="Group-8" transform="translate(41.000000, 244.000000)">
                    <g id="Group-3">
                        <mask id="mask-2" fill="white">
                            <use xlink:href="#path-1"></use>
                        </mask>
                        <g id="Clip-2"></g>
                        <path d="M50.0000625,24.9998125 C50.0000625,38.8073125 38.8069375,49.9998125 25.0000625,49.9998125 C11.1931875,49.9998125 6.25e-05,38.8073125 6.25e-05,24.9998125 C6.25e-05,11.1929375 11.1931875,-0.0001875 25.0000625,-0.0001875 C38.8069375,-0.0001875 50.0000625,11.1929375 50.0000625,24.9998125" id="Fill-1" fill="#CC0000" mask="url(#mask-2)"></path>
                    </g>
                    <path d="M31.654125,31.6770625 L31.654125,29.3351875 L29.18725,28.6083125 C29.054125,28.1983125 29.007875,28.0545625 28.874125,27.6445625 L30.442875,25.6064375 C29.72725,24.6214375 29.781625,24.6964375 29.066,23.7114375 L26.642875,24.5739375 C26.294125,24.3201875 26.17225,24.2314375 25.822875,23.9783125 L25.894125,21.4070625 C24.736625,21.0308125 24.82475,21.0601875 23.66725,20.6833125 L22.2135,22.8051875 L21.19975,22.8051875 L19.746,20.6833125 C18.5885,21.0601875 18.676625,21.0308125 17.5185,21.4070625 L17.590375,23.9783125 C17.241,24.2314375 17.11975,24.3201875 16.770375,24.5739375 L14.34725,23.7114375 C13.631625,24.6964375 13.686,24.6214375 12.970375,25.6064375 L14.539125,27.6445625 C14.406,28.0545625 14.35975,28.1983125 14.226,28.6083125 L11.7585,29.3351875 L11.7585,31.6770625 L14.226,32.4039375 C14.35975,32.8139375 14.406,32.9570625 14.539125,33.3676875 L12.970375,35.4058125 C13.686,36.3908125 13.631625,36.3158125 14.34725,37.3008125 L16.770375,36.4383125 C17.11975,36.6920625 17.241,36.7801875 17.590375,37.0339375 L17.5185,39.6051875 C18.676625,39.9808125 18.5885,39.9526875 19.746,40.3289375 L21.19975,38.2070625 L22.2135,38.2070625 L23.66725,40.3289375 C24.82475,39.9526875 24.736625,39.9808125 25.894125,39.6051875 L25.822875,37.0339375 C26.17225,36.7801875 26.294125,36.6920625 26.642875,36.4383125 L29.066,37.3008125 C29.781625,36.3158125 29.72725,36.3908125 30.442875,35.4058125 L28.874125,33.3676875 C29.007875,32.9570625 29.054125,32.8139375 29.18725,32.4039375 L31.654125,31.6770625 Z M21.706625,36.4295625 C18.435375,36.4295625 15.782875,33.7776875 15.782875,30.5058125 C15.782875,27.2345625 18.435375,24.5820625 21.706625,24.5820625 C24.977875,24.5820625 27.630375,27.2345625 27.630375,30.5058125 C27.630375,33.7776875 24.977875,36.4295625 21.706625,36.4295625 L21.706625,36.4295625 Z" id="Fill-4" fill="#FFFFFF"></path>
                    <path d="M35.00375,13.70775 C34.42375,13.273375 34.468125,13.305875 33.888125,12.8715 L32.661875,13.78775 C32.418125,13.704625 32.334375,13.675875 32.090625,13.59275 L31.68,12.118375 C30.954375,12.10775 31.01,12.108375 30.285625,12.09775 L29.831875,13.56025 C29.58625,13.635875 29.500625,13.662125 29.255625,13.73775 L28.05625,12.7865 C27.464375,13.203375 27.50875,13.17275 26.916875,13.589625 L27.40875,15.039 C27.255,15.244625 27.20125,15.315875 27.046875,15.5215 L25.5175,15.457125 C25.283125,16.14275 25.30125,16.090875 25.0675,16.775875 L26.3175,17.659625 C26.31375,17.9165 26.3125,18.0065 26.30875,18.26275 L25.033125,19.11025 C25.246875,19.802125 25.230625,19.749625 25.444375,20.4415 L26.975,20.4215 C27.12375,20.6315 27.175,20.704625 27.3225,20.914625 L26.788125,22.349625 C27.368125,22.783375 27.324375,22.750875 27.904375,23.18525 L29.130625,22.269 C29.37375,22.352125 29.458125,22.380875 29.701875,22.464 L30.1125,23.938375 C30.836875,23.949 30.781875,23.948375 31.50625,23.959 L31.960625,22.497125 C32.205625,22.420875 32.29125,22.394625 32.536875,22.319 L33.73625,23.27025 C34.32875,22.853375 34.28375,22.88525 34.875625,22.46775 L34.38375,21.01775 C34.538125,20.812125 34.59125,20.740875 34.745625,20.53525 L36.275,20.599625 C36.50875,19.914625 36.49125,19.9665 36.725,19.280875 L35.475,18.397125 C35.47875,18.14025 35.48,18.050875 35.48375,17.794 L36.759375,16.94775 C36.545625,16.254625 36.56125,16.307125 36.3475,15.61525 L34.816875,15.63525 C34.66875,15.42525 34.6175,15.352125 34.47,15.142125 L35.00375,13.70775 Z M33.7175,20.142125 C32.550625,21.700875 30.340625,22.01775 28.7825,20.850875 C27.22375,19.683375 26.906875,17.47275 28.074375,15.914625 C29.24125,14.355875 31.45125,14.039 33.01,15.2065 C34.56875,16.374 34.885625,18.584 33.7175,20.142125 L33.7175,20.142125 Z" id="Fill-6" fill="#FFFFFF"></path>
                </g>
            </g>
        </g>
    </g>
</svg>