<?xml version="1.0" encoding="UTF-8"?>
<svg width="19px" height="16px" viewBox="0 0 19 16" version="1.1" xmlns="http://www.w3.org/2000/svg" xmlns:xlink="http://www.w3.org/1999/xlink">
    <!-- Generator: Sketch 53.1 (72631) - https://sketchapp.com -->
    <title></title>
    <desc>Created with Sketch.</desc>
    <defs>
        <polygon id="path-1" points="0 0 19 0 19 16 0 16"></polygon>
    </defs>
    <g id="Solstice" stroke="none" stroke-width="1" fill="none" fill-rule="evenodd">
        <g id="Delivery-Capture-Bypass" transform="translate(-625.000000, -371.000000)">
            <g id="Module" transform="translate(438.000000, 182.000000)">
                <g id="Group-6" transform="translate(19.000000, 177.000000)">
                    <g id="Due-Date">
                        <g id="Calendar-Icon" transform="translate(168.000000, 12.000000)">
                            <mask id="mask-2" fill="white">
                                <use xlink:href="#path-1"></use>
                            </mask>
                            <g id="Clip-2"></g>
                            <path d="M5.9375,2.399904 L5.1452,2.399904 C4.49001667,2.399904 3.9577,1.86200552 3.9577,1.199952 C3.9577,0.53725851 4.49001667,0 5.1452,0 L5.9375,0 C6.592525,0 7.125,0.53725851 7.125,1.199952 C7.125,1.86200552 6.592525,2.399904 5.9375,2.399904 L5.9375,2.399904 Z M13.8544833,2.399904 L13.0625,2.399904 C12.4073167,2.399904 11.875,1.86200552 11.875,1.199952 C11.875,0.53725851 12.4073167,0 13.0625,0 L13.8544833,0 C14.509825,0 15.0419833,0.53725851 15.0419833,1.199952 C15.0419833,1.86200552 14.509825,2.399904 13.8544833,2.399904 L13.8544833,2.399904 Z M4.35448333,8.79900804 C3.697875,8.79900804 3.16698333,8.26206952 3.16698333,7.59921603 C3.16698333,6.93700252 3.697875,6.39926403 4.35448333,6.39926403 C5.009825,6.39926403 5.54198333,6.93700252 5.54198333,7.59921603 C5.54198333,8.26206952 5.009825,8.79900804 4.35448333,8.79900804 L4.35448333,8.79900804 Z M4.35448333,12.799488 C3.697875,12.799488 3.16698333,12.2615895 3.16698333,11.599536 C3.16698333,10.9376425 3.697875,10.399584 4.35448333,10.399584 C5.009825,10.399584 5.54198333,10.9376425 5.54198333,11.599536 C5.54198333,12.2615895 5.009825,12.799488 4.35448333,12.799488 L4.35448333,12.799488 Z M7.5202,8.79900804 C6.86501667,8.79900804 6.3327,8.26206952 6.3327,7.59921603 C6.3327,6.93700252 6.86501667,6.39926403 7.5202,6.39926403 C8.17680833,6.39926403 8.7077,6.93700252 8.7077,7.59921603 C8.7077,8.26206952 8.17680833,8.79900804 7.5202,8.79900804 L7.5202,8.79900804 Z M7.5202,12.799488 C6.86501667,12.799488 6.3327,12.2615895 6.3327,11.599536 C6.3327,10.9376425 6.86501667,10.399584 7.5202,10.399584 C8.17680833,10.399584 8.7077,10.9376425 8.7077,11.599536 C8.7077,12.2615895 8.17680833,12.799488 7.5202,12.799488 L7.5202,12.799488 Z M11.4794833,8.79900804 C10.822875,8.79900804 10.2919833,8.26206952 10.2919833,7.59921603 C10.2919833,6.93700252 10.822875,6.39926403 11.4794833,6.39926403 C12.134825,6.39926403 12.6669833,6.93700252 12.6669833,7.59921603 C12.6669833,8.26206952 12.134825,8.79900804 11.4794833,8.79900804 L11.4794833,8.79900804 Z M11.4794833,12.799488 C10.822875,12.799488 10.2919833,12.2615895 10.2919833,11.599536 C10.2919833,10.9376425 10.822875,10.399584 11.4794833,10.399584 C12.134825,10.399584 12.6669833,10.9376425 12.6669833,11.599536 C12.6669833,12.2615895 12.134825,12.799488 11.4794833,12.799488 L11.4794833,12.799488 Z M14.6452,8.79900804 C13.9900167,8.79900804 13.4577,8.26206952 13.4577,7.59921603 C13.4577,6.93700252 13.9900167,6.39926403 14.6452,6.39926403 C15.3018083,6.39926403 15.8327,6.93700252 15.8327,7.59921603 C15.8327,8.26206952 15.3018083,8.79900804 14.6452,8.79900804 L14.6452,8.79900804 Z M14.6452,12.799488 C13.9900167,12.799488 13.4577,12.2615895 13.4577,11.599536 C13.4577,10.9376425 13.9900167,10.399584 14.6452,10.399584 C15.3018083,10.399584 15.8327,10.9376425 15.8327,11.599536 C15.8327,12.2615895 15.3018083,12.799488 14.6452,12.799488 L14.6452,12.799488 Z M17.4169833,6.39926403 C17.4169833,5.51593936 16.708125,4.79980801 15.8327,4.79980801 L3.16698333,4.79980801 C2.29155833,4.79980801 1.5827,5.51593936 1.5827,6.39926403 L1.5827,12.799488 C1.5827,13.6828127 2.29155833,14.398944 3.16698333,14.398944 L15.8327,14.398944 C16.708125,14.398944 17.4169833,13.6828127 17.4169833,12.799488 L17.4169833,6.39926403 Z M17.4169833,16 L1.5827,16 C0.7087,16 0,15.2835487 0,14.398944 L0,3.19987201 C0,2.31590736 0.7087,1.59945602 1.5827,1.59945602 L3.2471,1.59945602 C3.20245,1.72601096 3.16698333,1.85720571 3.16698333,1.99992 C3.16698333,2.66229351 3.697875,3.19987201 4.35448333,3.19987201 L6.72948333,3.19987201 C7.384825,3.19987201 7.91698333,2.66229351 7.91698333,1.99992 C7.91698333,1.85720571 7.88040833,1.72601096 7.8356,1.59945602 L11.1640833,1.59945602 C11.1195917,1.72601096 11.0827,1.85720571 11.0827,1.99992 C11.0827,2.66229351 11.6150167,3.19987201 12.2702,3.19987201 L14.6452,3.19987201 C15.3018083,3.19987201 15.8327,2.66229351 15.8327,1.99992 C15.8327,1.85720571 15.7972333,1.72601096 15.7527417,1.59945602 L17.4169833,1.59945602 C18.2909833,1.59945602 19,2.31590736 19,3.19987201 L19,14.398944 C19,15.2835487 18.2909833,16 17.4169833,16 L17.4169833,16 Z" id="Fill-1" fill="#CC0000" mask="url(#mask-2)"></path>
                        </g>
                    </g>
                </g>
            </g>
        </g>
    </g>
</svg>