<?xml version="1.0" encoding="utf-8"?>
<!-- Generator: Adobe Illustrator 23.1.1, SVG Export Plug-In . SVG Version: 6.00 Build 0)  -->
<svg version="1.1" id="Layer_1" xmlns="http://www.w3.org/2000/svg" xmlns:xlink="http://www.w3.org/1999/xlink" x="0px" y="0px"
	 viewBox="0 0 22 23" style="enable-background:new 0 0 22 23;" xml:space="preserve">
<style type="text/css">
	.st0{fill-rule:evenodd;clip-rule:evenodd;fill:#CC0000;}
	.st1{fill:#CC0000;}
</style>
<title></title>
<desc>Created with Sketch.</desc>
<g id="Field-Tasks-Inventory-Capture" transform="translate(-945.000000, -579.000000)">
	<g id="Inv-Capture" transform="translate(438.000000, 109.000000)">
		<g id="Treatment2" transform="translate(21.000000, 449.000000)">
			<g id="comments" transform="translate(486.000000, 20.916000)">
				<g id="Group-3">
				</g>
				<g id="Group" transform="translate(4.000000, 4.980000)">
					<g id="Fill-4">
						<polygon class="st0" points="0,1 14,1 14,0 0,0 						"/>
					</g>
					<g id="Fill-6">
						<polygon class="st0" points="0,5 14,5 14,4 0,4 						"/>
					</g>
					<g id="Fill-7">
						<polygon class="st0" points="0,9 14,9 14,8 0,8 						"/>
					</g>
				</g>
				<g id="Fill-1">
					<path class="st1" d="M22,22.9l-4.3-4.7H2.4c-1.3,0-2.4-1.1-2.4-2.4V3.4C0,2.1,1.1,1,2.4,1h17.2C20.9,1,22,2.1,22,3.4V22.9z
						 M2.4,2C1.6,2,1,2.7,1,3.4v12.4c0,0.8,0.6,1.4,1.4,1.4h15.8l2.8,3.1V3.4C21,2.7,20.4,2,19.6,2H2.4z"/>
				</g>
			</g>
		</g>
	</g>
</g>
</svg>
