<?xml version="1.0" encoding="UTF-8"?>
<svg width="20px" height="14px" viewBox="0 0 20 14" version="1.1" xmlns="http://www.w3.org/2000/svg" xmlns:xlink="http://www.w3.org/1999/xlink">
    <!-- Generator: Sketch 52.5 (67469) - http://www.bohemiancoding.com/sketch -->
    <title>hardhat icon</title>
    <desc>Created with Sketch.</desc>
    <defs>
        <polygon id="path-1" points="1.74825175e-05 0.00584535565 20 0.00584535565 20 13.5941161 1.74825175e-05 13.5941161"></polygon>
    </defs>
    <g id="Solstice" stroke="none" stroke-width="1" fill="none" fill-rule="evenodd">
        <g id="Solstice-Contacts" transform="translate(-745.000000, -441.000000)">
            <g id="Contact-6" transform="translate(732.000000, 426.000000)">
                <g id="hardhat-icon" transform="translate(13.000000, 15.000000)">
                    <g id="Group-11">
                        <g id="Group-4">
                            <mask id="mask-2" fill="white">
                                <use xlink:href="#path-1"></use>
                            </mask>
                            <g id="Clip-3"></g>
                            <path d="M20.0000175,13.5941161 L20.0000175,11.7379976 L19.9907168,11.7379976 L18.1372552,10.9278964 C18.1360315,6.44418339 15.6650175,2.66056478 12.2833042,1.46484454 L12.2833042,0.00584535565 L7.7166958,0.00584535565 L7.7166958,1.46484454 C4.33498252,2.66056478 1.86396853,6.44418339 1.86274476,10.9278964 L0.00928321678,11.7379976 L1.74825175e-05,11.7379976 L1.74825175e-05,13.5941161 L20.0000175,13.5941161 Z" id="Fill-2" fill="#CC0000" mask="url(#mask-2)"></path>
                        </g>
                        <path d="M15.1736119,11.8280296 L4.81095455,11.8280296 C4.51312238,11.8280296 4.26941608,11.5516244 4.26941608,11.213831 C4.26941608,10.875998 4.51312238,10.5995928 4.81095455,10.5995928 L15.1736119,10.5995928 C15.471479,10.5995928 15.7151503,10.875998 15.7151503,11.213831 C15.7151503,11.5516244 15.471479,11.8280296 15.1736119,11.8280296" id="Fill-5" fill="#FFFFFF"></path>
                        <path d="M7.71648252,1.38286283 L7.71648252,8.28886898 C7.71648252,8.50682064 7.59994406,8.68511588 7.4574965,8.68511588 L7.36627273,8.68511588 C7.22382517,8.68511588 7.07920979,8.51205528 7.04487413,8.30056762 L6.08560839,2.39116685 C6.05127273,2.17967919 6.10560839,1.8805905 6.20634266,1.72648567 L6.89525874,0.672497461 C6.99599301,0.51839263 7.16214685,0.51629084 7.26448951,0.66785766 C7.26448951,0.66785766 7.7474965,1.38286283 7.71648252,1.38286283" id="Fill-7" fill="#FFFFFF"></path>
                        <path d="M12.2778671,1.38286283 L12.2778671,8.28886898 C12.2778671,8.50682064 12.3944056,8.68511588 12.5368182,8.68511588 L12.6280769,8.68511588 C12.7705245,8.68511588 12.9151399,8.51205528 12.9494755,8.30056762 L13.9087413,2.39116685 C13.943042,2.17967919 13.8887063,1.8805905 13.788007,1.72648567 L13.0990559,0.672497461 C12.9983566,0.51839263 12.8322028,0.51629084 12.7298601,0.66785766 C12.7298601,0.66785766 12.2468531,1.38286283 12.2778671,1.38286283" id="Fill-9" fill="#FFFFFF"></path>
                    </g>
                </g>
            </g>
        </g>
    </g>
</svg>