<?xml version="1.0" encoding="UTF-8"?>
<svg width="296px" height="22px" viewBox="0 0 296 22" version="1.1" xmlns="http://www.w3.org/2000/svg" xmlns:xlink="http://www.w3.org/1999/xlink">
    <!-- Generator: Sketch 52.5 (67469) - http://www.bohemiancoding.com/sketch -->
    <title>HAL logo</title>
    <desc>Created with Sketch.</desc>
    <defs>
        <polygon id="path-1" points="0 21.0247 295.954 21.0247 295.954 -0.0003 0 -0.0003"></polygon>
    </defs>
    <g id="Solstice" stroke="none" stroke-width="1" fill="none" fill-rule="evenodd">
        <g id="Solstice-Home-Version2" transform="translate(-38.000000, -27.000000)">
            <g id="HEADER">
                <g id="HAL-logo" transform="translate(38.000000, 27.000000)">
                    <path d="M166.3133,13.0356 L170.2653,13.0356 L170.2653,3.6676 L170.2993,3.6676 L177.7283,13.0356 L183.8533,13.0356 L183.8533,0.1436 L179.9033,0.1436 L179.9033,9.5126 L179.8663,9.5126 L172.4383,0.1436 L166.3133,0.1436 L166.3133,13.0356 Z M150.2813,5.8946 C150.2813,4.2906 150.6733,3.3106 152.7573,3.3106 L157.3903,3.3106 C159.4733,3.3106 159.8663,4.2906 159.8663,5.8946 L159.8663,7.2846 C159.8663,9.1556 159.4733,9.8676 157.6023,9.8676 L152.5453,9.8676 C150.6733,9.8676 150.2813,9.1556 150.2813,7.2846 L150.2813,5.8946 Z M146.2243,8.5146 C146.2243,12.2896 148.3413,13.1796 151.9033,13.1796 L158.2433,13.1796 C161.8063,13.1796 163.9233,12.2896 163.9233,8.5146 L163.9233,4.6646 C163.9233,0.8896 161.8063,0.0006 158.2433,0.0006 L151.9033,0.0006 C148.3413,0.0006 146.2243,0.8896 146.2243,4.6646 L146.2243,8.5146 Z M129.7113,3.3476 L135.2683,3.3476 L135.2683,13.0356 L139.2203,13.0356 L139.2203,3.3476 L144.7783,3.3476 L144.7783,0.1436 L129.7113,0.1436 L129.7113,3.3476 Z M112.1873,13.0356 L116.1383,13.0356 L116.1383,9.6876 L122.3553,9.6876 C123.5843,9.6876 123.9763,10.1326 123.9763,11.4856 L123.9763,13.0356 L127.9283,13.0356 L127.9283,10.8446 C127.9283,8.7266 126.9493,8.2086 125.7743,7.9966 L125.7743,7.9596 C127.5903,7.5336 127.9823,6.5176 127.9823,4.7906 L127.9823,3.9716 C127.9823,1.6566 127.1643,0.1436 124.1203,0.1436 L112.1873,0.1436 L112.1873,13.0356 Z M116.1383,3.3476 L122.3203,3.3476 C123.5673,3.3476 124.1373,3.5596 124.1373,4.7016 L124.1373,5.1306 C124.1373,6.0566 123.7463,6.4836 122.6763,6.4836 L116.1383,6.4836 L116.1383,3.3476 Z M93.2723,8.4436 C93.2723,11.6476 94.9273,13.1796 98.5603,13.1796 L104.2243,13.1796 C107.8573,13.1796 109.5133,11.6476 109.5133,8.4436 L109.5133,0.1436 L105.5623,0.1436 L105.5623,7.5886 C105.5623,9.2266 104.9733,9.8676 103.3533,9.8676 L99.4333,9.8676 C97.8113,9.8676 97.2243,9.2266 97.2243,7.5886 L97.2243,0.1436 L93.2723,0.1436 L93.2723,8.4436 Z M78.3083,3.2406 L85.3103,3.2406 C86.0403,3.2406 86.4683,3.5076 86.4683,4.2566 C86.4683,4.9866 86.0403,5.2566 85.3103,5.2566 L78.3083,5.2566 L78.3083,3.2406 Z M78.3083,7.9236 L85.3993,7.9236 C86.2553,7.9236 86.8253,8.1196 86.8253,8.9936 C86.8253,9.7426 86.2553,9.9386 85.3993,9.9386 L78.3083,9.9386 L78.3083,7.9236 Z M74.3573,13.0356 L86.9483,13.0356 C89.2103,13.0356 90.8823,12.4486 90.8823,9.6166 C90.8823,7.6746 90.2413,6.7506 88.5163,6.5356 L88.5163,6.4836 C89.6183,6.1616 90.4193,5.7346 90.4193,3.5256 C90.4193,0.9976 88.8893,0.1436 85.7383,0.1436 L74.3573,0.1436 L74.3573,13.0356 Z M67.5193,13.0356 L71.4703,13.0356 L71.4703,0.1436 L67.5193,0.1436 L67.5193,13.0356 Z M52.7903,13.0356 L65.6293,13.0356 L65.6293,9.7236 L56.7413,9.7236 L56.7413,0.1436 L52.7903,0.1436 L52.7903,13.0356 Z M38.2733,13.0356 L51.1123,13.0356 L51.1123,9.7236 L42.2263,9.7236 L42.2263,0.1436 L38.2733,0.1436 L38.2733,13.0356 Z M27.1963,3.1336 L29.7593,7.9806 L24.7013,7.9806 L27.1963,3.1336 Z M17.6493,13.0356 L22.0653,13.0356 L23.2243,10.7556 L31.2373,10.7556 L32.4663,13.0356 L36.8653,13.0356 L29.7763,0.1436 L24.6303,0.1436 L17.6493,13.0356 Z M0.0003,13.0356 L3.9523,13.0356 L3.9523,8.1566 L12.2893,8.1566 L12.2893,13.0356 L16.2413,13.0356 L16.2413,0.1436 L12.2893,0.1436 L12.2893,4.7376 L3.9523,4.7376 L3.9523,0.1436 L0.0003,0.1436 L0.0003,13.0356 Z" id="Fill-1" fill="#FFFFFF"></path>
                    <mask id="mask-2" fill="white">
                        <use xlink:href="#path-1"></use>
                    </mask>
                    <g id="Clip-4"></g>
                    <polygon id="Fill-3" fill="#FFFFFF" mask="url(#mask-2)" points="202.965 21.0247 204.305 21.0247 204.305 0.2527 202.965 0.2527"></polygon>
                    <polygon id="Fill-5" fill="#FFFFFF" mask="url(#mask-2)" points="213.9729 0.2201 217.6269 0.2201 220.3169 5.2141 223.0059 0.2201 226.6599 0.2201 226.6599 7.9781 224.3449 7.9781 224.3449 2.4071 224.3239 2.4071 221.2049 7.9781 219.4269 7.9781 216.3089 2.4071 216.2869 2.4071 216.2869 7.9781 213.9729 7.9781"></polygon>
                    <path d="M235.4939,7.978 L233.4369,7.978 L233.4369,7.1 L233.4139,7.1 C233.0509,7.861 232.3319,8.063 231.2289,8.063 C229.9539,8.063 228.1759,8.011 228.1759,5.653 L228.1759,2.513 L230.2329,2.513 L230.2329,5.653 C230.2329,6.189 230.6609,6.457 231.5609,6.457 L232.0329,6.457 C232.9109,6.457 233.4369,6.049 233.4369,5.268 L233.4369,2.513 L235.4939,2.513 L235.4939,7.978 Z" id="Fill-6" fill="#FFFFFF" mask="url(#mask-2)"></path>
                    <polygon id="Fill-7" fill="#FFFFFF" mask="url(#mask-2)" points="237.028 7.9777 239.085 7.9777 239.085 0.2197 237.028 0.2197"></polygon>
                    <path d="M241.1111,3.9916 L240.0831,3.9916 L240.0831,2.5126 L241.1111,2.5126 L241.1111,1.2276 L243.1691,1.2276 L243.1691,2.5126 L246.3621,2.5126 L246.3621,3.9916 L243.1691,3.9916 L243.1691,6.0926 C243.1691,6.4996 243.4681,6.5856 243.9621,6.5856 C244.6271,6.5856 244.8081,6.4346 244.8081,5.9306 L244.8081,5.5676 L246.6081,5.5676 L246.6081,6.2306 C246.6081,7.2716 245.9221,8.0626 244.2841,8.0626 L243.4681,8.0626 C242.2041,8.0626 241.1111,7.6686 241.1111,6.1566 L241.1111,3.9916 Z" id="Fill-8" fill="#FFFFFF" mask="url(#mask-2)"></path>
                    <path d="M247.886,7.9777 L249.943,7.9777 L249.943,2.5127 L247.886,2.5127 L247.886,7.9777 Z M247.886,1.8267 L249.943,1.8267 L249.943,0.2207 L247.886,0.2207 L247.886,1.8267 Z" id="Fill-9" fill="#FFFFFF" mask="url(#mask-2)"></path>
                    <polygon id="Fill-10" fill="#FFFFFF" mask="url(#mask-2)" points="251.648 6.2307 254.648 6.2307 254.648 4.3027 251.648 4.3027"></polygon>
                    <path d="M256.1609,2.9418 C256.1609,0.6708 257.4349,0.1348 259.5789,0.1348 L262.3759,0.1348 C265.7619,0.1348 266.2009,0.8628 266.1799,3.0598 L263.7999,3.0598 L263.7999,2.8448 C263.7999,2.2878 263.3929,2.1288 262.6859,2.1288 L260.0939,2.1288 C258.8399,2.1288 258.6039,2.7168 258.6039,3.6808 L258.6039,4.5168 C258.6039,5.6418 258.8399,6.0718 259.9639,6.0718 L262.5039,6.0718 C263.5759,6.0718 263.8969,5.9638 263.8969,4.9998 L266.2759,4.9998 L266.2759,5.7288 C266.2759,7.0348 265.8049,8.0628 263.4149,8.0628 L259.5789,8.0628 C257.4349,8.0628 256.1609,7.5278 256.1609,5.2558 L256.1609,2.9418 Z" id="Fill-11" fill="#FFFFFF" mask="url(#mask-2)"></path>
                    <path d="M267.6189,0.2201 L269.6749,0.2201 L269.6749,3.3921 L269.6969,3.3921 C270.0609,2.6301 270.7799,2.4281 271.8829,2.4281 C273.1579,2.4281 274.9359,2.4821 274.9359,4.8381 L274.9359,7.9781 L272.8789,7.9781 L272.8789,4.8381 C272.8789,4.3031 272.4509,4.0341 271.5509,4.0341 L271.0789,4.0341 C270.2009,4.0341 269.6749,4.4421 269.6749,5.2251 L269.6749,7.9781 L267.6189,7.9781 L267.6189,0.2201 Z" id="Fill-12" fill="#FFFFFF" mask="url(#mask-2)"></path>
                    <path d="M281.1541,4.4848 C281.1541,3.8308 280.8541,3.7138 279.6541,3.7138 C278.3151,3.7138 278.1541,3.8308 278.1541,4.4848 L281.1541,4.4848 Z M276.0971,4.9458 C276.0971,2.8788 277.1261,2.4278 278.6261,2.4278 L280.0611,2.4278 C282.2481,2.4278 283.1471,2.8878 283.1471,4.7848 L283.1471,5.7068 L278.1541,5.7068 L278.1541,6.0388 C278.1541,6.6168 278.5611,6.7778 279.4191,6.7778 L280.0511,6.7778 C281.1661,6.7778 281.2191,6.4778 281.2191,6.1568 L283.1471,6.1568 L283.1471,6.3918 C283.1471,7.7628 281.9261,8.0628 280.4371,8.0628 L278.8941,8.0628 C277.5331,8.0628 276.0971,7.8068 276.0971,5.4708 L276.0971,4.9458 Z" id="Fill-13" fill="#FFFFFF" mask="url(#mask-2)"></path>
                    <path d="M284.2102,2.5131 L286.1702,2.5131 L286.1702,3.5841 L286.1912,3.5841 C286.2992,2.8021 287.0072,2.4281 288.0132,2.4281 L288.7962,2.4281 C289.7712,2.4281 290.4362,2.8451 290.8202,3.7021 C291.1632,2.7171 291.6032,2.4281 292.7712,2.4281 L293.4042,2.4281 C295.2782,2.4281 295.9542,3.3381 295.9542,4.9031 L295.9542,7.9781 L293.8962,7.9781 L293.8962,5.0421 C293.8962,4.2911 293.7042,4.0341 292.5032,4.0341 C291.5182,4.0341 291.1092,4.2491 291.1092,4.9671 L291.1092,7.9781 L289.0522,7.9781 L289.0522,4.8811 C289.0522,4.2061 288.8062,4.0341 287.5632,4.0341 C286.6852,4.0341 286.2672,4.2491 286.2672,5.0961 L286.2672,7.9781 L284.2102,7.9781 L284.2102,2.5131 Z" id="Fill-14" fill="#FFFFFF" mask="url(#mask-2)"></path>
                    <path d="M217.6429,17.9828 L219.1439,15.0658 L220.6869,17.9828 L217.6429,17.9828 Z M220.6979,13.2668 L217.6009,13.2668 L213.3989,21.0248 L216.0569,21.0248 L216.7539,19.6528 L221.5769,19.6528 L222.3159,21.0248 L224.9629,21.0248 L220.6979,13.2668 Z" id="Fill-15" fill="#FFFFFF" mask="url(#mask-2)"></path>
                    <polygon id="Fill-16" fill="#FFFFFF" mask="url(#mask-2)" points="236.1263 13.267 244.6133 13.267 244.6133 15.068 238.5053 15.068 238.5053 16.309 244.2913 16.309 244.2913 17.917 238.5053 17.917 238.5053 19.16 244.7513 19.16 244.7513 21.025 236.1263 21.025"></polygon>
                    <path d="M228.1951,17.1459 L231.8911,17.1459 C232.4481,17.1459 232.6631,16.7819 232.6631,16.3209 L232.6631,16.0199 C232.6631,15.4959 232.4051,15.1959 231.6881,15.1959 L228.1951,15.1959 L228.1951,17.1459 Z M225.8161,13.2669 L232.2981,13.2669 C234.5591,13.2669 235.1061,14.4029 235.1061,15.9239 L235.1061,16.5879 C235.1061,17.7469 234.6021,19.0749 232.9201,19.0749 L228.1951,19.0749 L228.1951,21.0249 L225.8161,21.0249 L225.8161,13.2669 Z" id="Fill-17" fill="#FFFFFF" mask="url(#mask-2)"></path>
                    <polygon id="Fill-18" fill="#FFFFFF" mask="url(#mask-2)" points="256.9983 13.267 253.9353 13.267 251.2313 15.744 248.6143 13.345 245.5513 13.345 249.7003 17.146 245.5513 20.946 248.6143 20.946 251.2313 18.548 253.9353 21.025 256.9983 21.025 252.7633 17.146"></polygon>
                </g>
            </g>
        </g>
    </g>
</svg>