<?xml version="1.0" encoding="UTF-8"?>
<svg width="296px" height="22px" viewBox="0 0 296 22" version="1.1" xmlns="http://www.w3.org/2000/svg" xmlns:xlink="http://www.w3.org/1999/xlink">
    <!-- Generator: Sketch 52.5 (67469) - http://www.bohemiancoding.com/sketch -->
    <title>Group 16</title>
    <desc>Created with Sketch.</desc>
    <defs>
        <polygon id="path-1" points="0 21.0777 295.954 21.0777 295.954 -0.0003 0 -0.0003"></polygon>
    </defs>
    <g id="Symbols" stroke="none" stroke-width="1" fill="none" fill-rule="evenodd">
        <g id="HEADER" transform="translate(-38.000000, -27.000000)">
            <g id="Group-16" transform="translate(38.000000, 27.000000)">
                <path d="M166.3133,13.0356 L170.2653,13.0356 L170.2653,3.6676 L170.2993,3.6676 L177.7283,13.0356 L183.8533,13.0356 L183.8533,0.1436 L179.9033,0.1436 L179.9033,9.5126 L179.8673,9.5126 L172.4383,0.1436 L166.3133,0.1436 L166.3133,13.0356 Z M150.2813,5.8946 C150.2813,4.2906 150.6733,3.3106 152.7563,3.3106 L157.3903,3.3106 C159.4733,3.3106 159.8663,4.2906 159.8663,5.8946 L159.8663,7.2846 C159.8663,9.1556 159.4733,9.8676 157.6023,9.8676 L152.5443,9.8676 C150.6733,9.8676 150.2813,9.1556 150.2813,7.2846 L150.2813,5.8946 Z M146.2233,8.5146 C146.2233,12.2896 148.3413,13.1796 151.9033,13.1796 L158.2433,13.1796 C161.8053,13.1796 163.9233,12.2896 163.9233,8.5146 L163.9233,4.6646 C163.9233,0.8896 161.8053,0.0006 158.2433,0.0006 L151.9033,0.0006 C148.3413,0.0006 146.2233,0.8896 146.2233,4.6646 L146.2233,8.5146 Z M129.7103,3.3476 L135.2683,3.3476 L135.2683,13.0356 L139.2203,13.0356 L139.2203,3.3476 L144.7793,3.3476 L144.7793,0.1436 L129.7103,0.1436 L129.7103,3.3476 Z M112.1863,13.0356 L116.1373,13.0356 L116.1373,9.6876 L122.3563,9.6876 C123.5843,9.6876 123.9763,10.1326 123.9763,11.4856 L123.9763,13.0356 L127.9283,13.0356 L127.9283,10.8446 C127.9283,8.7266 126.9503,8.2086 125.7743,7.9966 L125.7743,7.9596 C127.5903,7.5336 127.9823,6.5176 127.9823,4.7906 L127.9823,3.9716 C127.9823,1.6566 127.1643,0.1436 124.1203,0.1436 L112.1863,0.1436 L112.1863,13.0356 Z M116.1373,3.3476 L122.3203,3.3476 C123.5683,3.3476 124.1373,3.5596 124.1373,4.7016 L124.1373,5.1306 C124.1373,6.0566 123.7463,6.4836 122.6763,6.4836 L116.1373,6.4836 L116.1373,3.3476 Z M93.2723,8.4436 C93.2723,11.6476 94.9263,13.1796 98.5603,13.1796 L104.2243,13.1796 C107.8573,13.1796 109.5123,11.6476 109.5123,8.4436 L109.5123,0.1436 L105.5613,0.1436 L105.5613,7.5886 C105.5613,9.2266 104.9723,9.8676 103.3523,9.8676 L99.4323,9.8676 C97.8113,9.8676 97.2233,9.2266 97.2233,7.5886 L97.2233,0.1436 L93.2723,0.1436 L93.2723,8.4436 Z M78.3083,3.2406 L85.3103,3.2406 C86.0403,3.2406 86.4683,3.5076 86.4683,4.2566 C86.4683,4.9866 86.0403,5.2566 85.3103,5.2566 L78.3083,5.2566 L78.3083,3.2406 Z M78.3083,7.9236 L85.3993,7.9236 C86.2543,7.9236 86.8263,8.1196 86.8263,8.9936 C86.8263,9.7426 86.2543,9.9386 85.3993,9.9386 L78.3083,9.9386 L78.3083,7.9236 Z M74.3573,13.0356 L86.9493,13.0356 C89.2093,13.0356 90.8823,12.4486 90.8823,9.6166 C90.8823,7.6746 90.2413,6.7506 88.5163,6.5356 L88.5163,6.4836 C89.6193,6.1616 90.4193,5.7346 90.4193,3.5256 C90.4193,0.9976 88.8893,0.1436 85.7383,0.1436 L74.3573,0.1436 L74.3573,13.0356 Z M67.5183,13.0356 L71.4693,13.0356 L71.4693,0.1436 L67.5183,0.1436 L67.5183,13.0356 Z M52.7903,13.0356 L65.6283,13.0356 L65.6283,9.7236 L56.7413,9.7236 L56.7413,0.1436 L52.7903,0.1436 L52.7903,13.0356 Z M38.2733,13.0356 L51.1123,13.0356 L51.1123,9.7236 L42.2253,9.7236 L42.2253,0.1436 L38.2733,0.1436 L38.2733,13.0356 Z M27.1963,3.1336 L29.7593,7.9806 L24.7013,7.9806 L27.1963,3.1336 Z M17.6503,13.0356 L22.0653,13.0356 L23.2233,10.7556 L31.2373,10.7556 L32.4663,13.0356 L36.8653,13.0356 L29.7773,0.1436 L24.6303,0.1436 L17.6503,13.0356 Z M0.0003,13.0356 L3.9523,13.0356 L3.9523,8.1566 L12.2893,8.1566 L12.2893,13.0356 L16.2423,13.0356 L16.2423,0.1436 L12.2893,0.1436 L12.2893,4.7376 L3.9523,4.7376 L3.9523,0.1436 L0.0003,0.1436 L0.0003,13.0356 Z" id="Fill-1" fill="#FFFFFF"></path>
                <mask id="mask-2" fill="white">
                    <use xlink:href="#path-1"></use>
                </mask>
                <g id="Clip-4"></g>
                <polygon id="Fill-3" fill="#FFFFFF" mask="url(#mask-2)" points="202.965 21.0247 204.306 21.0247 204.306 0.2527 202.965 0.2527"></polygon>
                <g id="MultiChem" mask="url(#mask-2)" fill="#FFFFFF">
                    <g transform="translate(213.000000, 0.000000)">
                        <polygon id="Fill-5" points="0.9725 0.2201 4.6265 0.2201 7.3165 5.2141 10.0055 0.2201 13.6605 0.2201 13.6605 7.9781 11.3445 7.9781 11.3445 2.4071 11.3245 2.4071 8.2045 7.9781 6.4265 7.9781 3.3095 2.4071 3.2865 2.4071 3.2865 7.9781 0.9725 7.9781"></polygon>
                        <path d="M22.494,7.978 L20.436,7.978 L20.436,7.1 L20.415,7.1 C20.051,7.861 19.332,8.063 18.229,8.063 C16.954,8.063 15.176,8.011 15.176,5.653 L15.176,2.513 L17.233,2.513 L17.233,5.653 C17.233,6.189 17.661,6.457 18.561,6.457 L19.032,6.457 C19.911,6.457 20.436,6.049 20.436,5.268 L20.436,2.513 L22.494,2.513 L22.494,7.978 Z" id="Fill-6"></path>
                        <polygon id="Fill-7" points="24.028 7.9777 26.086 7.9777 26.086 0.2197 24.028 0.2197"></polygon>
                        <path d="M28.1112,3.9916 L27.0832,3.9916 L27.0832,2.5126 L28.1112,2.5126 L28.1112,1.2276 L30.1692,1.2276 L30.1692,2.5126 L33.3622,2.5126 L33.3622,3.9916 L30.1692,3.9916 L30.1692,6.0926 C30.1692,6.4996 30.4682,6.5856 30.9622,6.5856 C31.6272,6.5856 31.8082,6.4346 31.8082,5.9306 L31.8082,5.5676 L33.6082,5.5676 L33.6082,6.2306 C33.6082,7.2716 32.9232,8.0626 31.2842,8.0626 L30.4682,8.0626 C29.2042,8.0626 28.1112,7.6686 28.1112,6.1566 L28.1112,3.9916 Z" id="Fill-8"></path>
                        <path d="M34.885,7.9777 L36.943,7.9777 L36.943,2.5127 L34.885,2.5127 L34.885,7.9777 Z M34.885,1.8267 L36.943,1.8267 L36.943,0.2207 L34.885,0.2207 L34.885,1.8267 Z" id="Fill-9"></path>
                        <polygon id="Fill-10" points="38.648 6.2307 41.648 6.2307 41.648 4.3027 38.648 4.3027"></polygon>
                        <path d="M43.161,2.9418 C43.161,0.6708 44.435,0.1348 46.579,0.1348 L49.376,0.1348 C52.762,0.1348 53.2,0.8628 53.18,3.0598 L50.8,3.0598 L50.8,2.8448 C50.8,2.2878 50.393,2.1288 49.686,2.1288 L47.094,2.1288 C45.84,2.1288 45.604,2.7168 45.604,3.6808 L45.604,4.5168 C45.604,5.6418 45.84,6.0718 46.964,6.0718 L49.505,6.0718 C50.576,6.0718 50.897,5.9638 50.897,4.9998 L53.276,4.9998 L53.276,5.7288 C53.276,7.0348 52.806,8.0628 50.415,8.0628 L46.579,8.0628 C44.435,8.0628 43.161,7.5278 43.161,5.2558 L43.161,2.9418 Z" id="Fill-11"></path>
                        <path d="M54.619,0.2201 L56.675,0.2201 L56.675,3.3921 L56.697,3.3921 C57.061,2.6301 57.779,2.4281 58.883,2.4281 C60.158,2.4281 61.936,2.4821 61.936,4.8381 L61.936,7.9781 L59.879,7.9781 L59.879,4.8381 C59.879,4.3031 59.451,4.0341 58.551,4.0341 L58.079,4.0341 C57.201,4.0341 56.675,4.4421 56.675,5.2251 L56.675,7.9781 L54.619,7.9781 L54.619,0.2201 Z" id="Fill-12"></path>
                        <path d="M68.1541,4.4848 C68.1541,3.8308 67.8541,3.7138 66.6541,3.7138 C65.3151,3.7138 65.1541,3.8308 65.1541,4.4848 L68.1541,4.4848 Z M63.0971,4.9458 C63.0971,2.8788 64.1261,2.4278 65.6261,2.4278 L67.0611,2.4278 C69.2481,2.4278 70.1471,2.8878 70.1471,4.7848 L70.1471,5.7068 L65.1541,5.7068 L65.1541,6.0388 C65.1541,6.6168 65.5611,6.7778 66.4191,6.7778 L67.0501,6.7778 C68.1661,6.7778 68.2191,6.4778 68.2191,6.1568 L70.1471,6.1568 L70.1471,6.3918 C70.1471,7.7628 68.9261,8.0628 67.4371,8.0628 L65.8941,8.0628 C64.5331,8.0628 63.0971,7.8068 63.0971,5.4708 L63.0971,4.9458 Z" id="Fill-13"></path>
                        <path d="M71.2098,2.5131 L73.1708,2.5131 L73.1708,3.5841 L73.1908,3.5841 C73.2988,2.8021 74.0068,2.4281 75.0138,2.4281 L75.7958,2.4281 C76.7718,2.4281 77.4368,2.8451 77.8208,3.7021 C78.1638,2.7171 78.6038,2.4281 79.7708,2.4281 L80.4038,2.4281 C82.2778,2.4281 82.9538,3.3381 82.9538,4.9031 L82.9538,7.9781 L80.8968,7.9781 L80.8968,5.0421 C80.8968,4.2911 80.7038,4.0341 79.5038,4.0341 C78.5188,4.0341 78.1098,4.2491 78.1098,4.9671 L78.1098,7.9781 L76.0528,7.9781 L76.0528,4.8811 C76.0528,4.2061 75.8068,4.0341 74.5638,4.0341 C73.6858,4.0341 73.2678,4.2491 73.2678,5.0961 L73.2678,7.9781 L71.2098,7.9781 L71.2098,2.5131 Z" id="Fill-14"></path>
                    </g>
                </g>
                <path d="M258.175191,13.9512388 L260.491021,13.9512388 L260.491021,12.1429108 L258.175191,12.1429108 L258.175191,13.9512388 Z M258.175191,20.8728477 L260.491021,20.8728477 L260.491021,14.7220569 L258.175191,14.7220569 L258.175191,20.8728477 Z M267.059291,14.5802714 L264.453139,14.5802714 C262.766341,14.5802714 261.608426,15.0877735 261.608426,17.4148564 L261.608426,18.0045041 C261.608426,20.6331626 263.224331,20.9223601 264.755839,20.9223601 L267.120057,20.9223601 C268.444513,20.9223601 269.820733,20.4519922 269.820733,18.8012037 L269.820733,18.2576926 L267.578046,18.2576926 L267.578046,18.4028539 C267.578046,18.969996 266.987273,19.1140321 266.33461,19.1140321 L265.153064,19.1140321 C264.430633,19.1140321 263.924256,18.874347 263.924256,18.0776475 L263.924256,17.2584422 C263.924256,16.5821478 264.382246,16.3165813 265.346612,16.3165813 L266.238961,16.3165813 C267.25284,16.3165813 267.578046,16.5450135 267.578046,17.1729208 L269.820733,17.1729208 L269.820733,16.6192821 C269.820733,15.2081787 268.770845,14.5802714 267.059291,14.5802714 Z M254.711573,18.5232591 C254.711573,19.0904012 254.507897,19.2603187 253.759585,19.2603187 C253.203696,19.2603187 252.867236,19.1624192 252.867236,18.7044295 L252.867236,16.3413375 L256.460261,16.3413375 L256.460261,14.6759203 L252.867236,14.6759203 L252.867236,13.2299331 L250.551406,13.2299331 L250.551406,14.6759203 L249.394616,14.6759203 L249.394616,16.3413375 L250.551406,16.3413375 L250.551406,18.7764475 C250.551406,20.4778737 251.782465,20.9223601 253.203696,20.9223601 L254.121926,20.9223601 C255.965137,20.9223601 256.737081,20.0311368 256.737081,18.8608436 L256.737081,18.1136565 L254.711573,18.1136565 L254.711573,18.5232591 Z M232.635793,18.1744217 C232.635793,18.9925016 232.345471,19.1871754 230.851096,19.1871754 L230.296332,19.1871754 C229.236317,19.1871754 228.717562,18.9204836 228.717562,18.0416384 L228.717562,17.4632435 C228.717562,16.5821478 229.236317,16.3165813 230.296332,16.3165813 L230.851096,16.3165813 C232.345471,16.3165813 232.635793,16.5101298 232.635793,17.3304603 L232.635793,18.1744217 Z M232.406236,14.5802714 L228.947119,14.5802714 C227.764448,14.5802714 226.401732,14.9909992 226.401732,17.0165066 L226.401732,18.4872501 C226.401732,20.5127575 227.764448,20.9223601 228.947119,20.9223601 L232.406236,20.9223601 C233.588907,20.9223601 234.951623,20.5127575 234.951623,18.4872501 L234.951623,17.0165066 C234.951623,14.9909992 233.588907,14.5802714 232.406236,14.5802714 Z M245.676685,16.8465891 L244.073158,16.8465891 C242.869107,16.8465891 242.687936,16.7509401 242.687936,16.4864989 C242.687936,16.0645182 242.939999,16.0273839 244.27796,16.0273839 C245.665432,16.0273839 245.881486,16.0870238 246.001892,16.4504899 L248.317722,16.4504899 C248.294091,15.0011268 247.762958,14.5802714 244.737075,14.5802714 L243.120045,14.5802714 C241.528896,14.5802714 240.300088,14.8098289 240.300088,16.3413375 C240.300088,18.0303856 240.939248,18.4996282 243.096414,18.5120063 L245.268208,18.5120063 C246.087413,18.5120063 246.267458,18.6549171 246.267458,19.0183831 C246.267458,19.3919767 245.990639,19.4763728 244.893489,19.4763728 L244.073158,19.4763728 C242.758829,19.4763728 242.638424,19.2468153 242.638424,18.9092308 L240.251701,18.9092308 C240.251701,20.4294866 241.034897,20.9223601 243.168432,20.9223601 L245.363857,20.9223601 C248.003768,20.9223601 248.655306,20.5015046 248.655306,18.874347 C248.655306,17.7760719 248.450505,16.8465891 245.676685,16.8465891 Z M236.522517,20.8267111 L238.838347,20.8267111 L238.838347,12.095649 L236.522517,12.095649 L236.522517,20.8267111 Z M219.884099,15.4006019 C217.01463,15.41298 216.687173,15.3870985 216.687173,14.6286585 C216.687173,14.1571654 217.097901,13.9534894 217.701052,13.9534894 L220.66617,13.9534894 C221.896103,13.9534894 221.970372,14.2179306 221.970372,14.8570907 L224.646292,14.8570907 L224.646292,14.5802714 C224.646292,13.0487627 224.35822,12 221.270446,12 L217.533385,12 C214.155289,12 214.011253,13.217555 214.011253,14.7974508 C214.011253,16.9444886 214.469243,17.4261092 218.497752,17.4261092 C221.945615,17.4261092 222.258444,17.4744964 222.258444,18.2340616 C222.258444,18.9092308 221.681174,18.969996 221.114032,18.969996 L217.833835,18.969996 C217.061892,18.969996 216.687173,18.8968527 216.67592,17.9696204 L214,17.9696204 L214,18.5716462 C214,20.4643703 214.976745,20.9223601 217.41298,20.9223601 L220.656042,20.9223601 C224.211933,20.9223601 225.008633,20.5363884 225.008633,18.1867998 C225.008633,15.6414122 224.044266,15.3870985 219.884099,15.4006019 Z M276.57355,16.9557414 C276.57355,16.2186818 276.235965,16.0858985 274.886752,16.0858985 C273.38,16.0858985 273.198829,16.2186818 273.198829,16.9557414 L276.57355,16.9557414 Z M270.882999,17.4744964 C270.882999,15.1462881 272.040914,14.6399113 273.728837,14.6399113 L275.343617,14.6399113 C277.805733,14.6399113 278.816237,15.1586662 278.816237,17.293326 L278.816237,18.3285853 L273.198829,18.3285853 L273.198829,18.7033042 C273.198829,19.3548424 273.655694,19.5360128 274.621186,19.5360128 L275.332364,19.5360128 C276.587053,19.5360128 276.646693,19.1984282 276.646693,18.8372127 L278.816237,18.8372127 L278.816237,19.101654 C278.816237,20.6444154 277.442267,20.982 275.766723,20.982 L274.030413,20.982 C272.498904,20.982 270.882999,20.6928026 270.882999,18.0641441 L270.882999,17.4744964 Z" id="Fill-15" fill="#FFFFFF" mask="url(#mask-2)"></path>
            </g>
        </g>
    </g>
</svg>