<?xml version="1.0" encoding="UTF-8"?>
<svg width="27px" height="26px" viewBox="0 0 27 26" version="1.1" xmlns="http://www.w3.org/2000/svg" xmlns:xlink="http://www.w3.org/1999/xlink">
    <!-- Generator: Sketch 52.5 (67469) - http://www.bohemiancoding.com/sketch -->
    <title>Oil Icon Copy</title>
    <desc>Created with Sketch.</desc>
    <g id="Solstice" stroke="none" stroke-width="1" fill="none" fill-rule="evenodd">
        <g id="Assets-Landing" transform="translate(-809.000000, -466.000000)">
            <g id="LocationCard-6" transform="translate(728.000000, 372.000000)">
                <g id="Oil-Icon-Copy" transform="translate(82.000000, 94.500000)">
                    <path d="M24.9024122,12.4620419 C24.9024122,19.3325738 19.3328014,24.9023363 12.4621178,24.9023363 C5.59158592,24.9023363 0.0218233694,19.3325738 0.0218233694,12.4620419 C0.0218233694,5.59151006 5.59158592,0.0217475139 12.4621178,0.0217475139 C19.3328014,0.0217475139 24.9024122,5.59151006 24.9024122,12.4620419" id="Fill-5" fill="#FFFFFF"></path>
                    <path d="M24.9024122,12.4620419 C24.9024122,19.3325738 19.3328014,24.9023363 12.4621178,24.9023363 C5.59158592,24.9023363 0.0218233694,19.3325738 0.0218233694,12.4620419 C0.0218233694,5.59151006 5.59158592,0.0217475139 12.4621178,0.0217475139 C19.3328014,0.0217475139 24.9024122,5.59151006 24.9024122,12.4620419 Z" id="Stroke-7" stroke="#000000"></path>
                    <path d="M15.3154359,7.60284776 C13.6114189,5.29775223 12.674149,2.32345989 12.674149,2.32345989 C12.674149,2.32345989 11.7370307,5.29775223 10.0330138,7.60284776 C8.32899685,9.90794329 6.5397184,13.1052507 6.5397184,15.9308663 C6.5397184,18.7563303 8.07336397,22.6973245 12.674149,22.6973245 C17.2750856,22.6973245 18.8085795,18.7563303 18.8085795,15.9308663 C18.8085795,13.1052507 17.0194528,9.90794329 15.3154359,7.60284776" id="Fill-9" fill="#231F20"></path>
                    <path d="M11.7151236,21.9802781 C11.6794716,21.9802781 11.6432126,21.9760302 11.6072572,21.9670792 C11.1176861,21.8454071 10.6551195,21.6595612 10.2319978,21.4146998 C10.0186923,21.2912071 9.94571931,21.0184309 10.069212,20.8051254 C10.192553,20.5919716 10.4654809,20.5188469 10.6787864,20.6424913 C11.0293903,20.8453288 11.4142809,20.9996188 11.8223832,21.1011134 C12.0616313,21.160584 12.2072738,21.4025629 12.1478031,21.6416593 C12.0974351,21.8446485 11.9152303,21.9802781 11.7151236,21.9802781" id="Fill-11" fill="#FFFFFF"></path>
                    <path d="M9.39523628,20.6412473 C9.27826717,20.6412473 9.16129806,20.5954306 9.07376086,20.5045557 C7.93365339,19.3204521 7.6055027,17.9292631 7.59200043,17.8707027 C7.53692937,17.6303926 7.68727488,17.3912962 7.92743325,17.3362251 C8.16759161,17.2814575 8.40623287,17.4310445 8.46160735,17.6707477 C8.46570355,17.6883462 8.75683678,18.8888346 9.71655998,19.8857269 C9.88738646,20.063077 9.88207658,20.3455627 9.70457482,20.5165409 C9.6180996,20.5998302 9.50659208,20.6412473 9.39523628,20.6412473" id="Fill-13" fill="#FFFFFF"></path>
                </g>
            </g>
        </g>
    </g>
</svg>