<?xml version="1.0" encoding="UTF-8"?>
<svg width="20px" height="20px" viewBox="0 0 20 20" version="1.1" xmlns="http://www.w3.org/2000/svg" xmlns:xlink="http://www.w3.org/1999/xlink">
    <!-- Generator: Sketch 52.5 (67469) - http://www.bohemiancoding.com/sketch -->
    <title>Fill 1 Copy</title>
    <desc>Created with Sketch.</desc>
    <g id="Solstice" stroke="none" stroke-width="1" fill="none" fill-rule="evenodd">
        <g id="Solstice-Account-Register2" transform="translate(-534.000000, -284.000000)" fill="#CC0000">
            <g id="Module" transform="translate(499.000000, 85.000000)">
                <g id="Pop-Up">
                    <path d="M47.0864613,211.086522 C44.6880001,213.485182 40.7848715,213.485384 38.3860065,211.086522 C35.9873433,208.687862 35.9873433,204.784738 38.3860065,202.386078 C39.585338,201.186748 41.1608869,200.586982 42.7362339,200.586982 C44.3117828,200.586982 45.8871298,201.186748 47.0864613,202.386078 C49.4853264,204.784738 49.4853264,208.687862 47.0864613,211.086522 M48.209257,201.263284 C45.1914407,198.245673 40.281229,198.245471 37.2632108,201.263284 C34.2455964,204.281096 34.2455964,209.191302 37.2632108,212.209316 C38.7723209,213.71802 40.7543783,214.472473 42.7362339,214.472473 C44.4692973,214.472473 46.2023607,213.895729 47.6191834,212.741836 L53.644719,218.767363 C53.7998102,218.922454 54.0029635,219 54.2061168,219 C54.4092701,219 54.6124235,218.922454 54.7675147,218.767363 C55.0774951,218.457383 55.0774951,217.954751 54.7675147,217.644771 L48.7419791,211.619243 C51.2149568,208.582246 51.0374501,204.091675 48.209257,201.263284" id="Fill-1-Copy"></path>
                </g>
            </g>
        </g>
    </g>
</svg>