<?xml version="1.0" encoding="UTF-8"?>
<svg width="134px" height="135px" viewBox="0 0 134 135" version="1.1" xmlns="http://www.w3.org/2000/svg" xmlns:xlink="http://www.w3.org/1999/xlink">
    <!-- Generator: Sketch 53.1 (72631) - https://sketchapp.com -->
    <title>Stim</title>
    <desc>Created with Sketch.</desc>
    <defs>
        <polygon id="path-1" points="0.406835088 0 16.3619228 0 16.3619228 2.41772632 0.406835088 2.41772632"></polygon>
        <polygon id="path-3" points="0.833221053 0.753642105 45.5044211 0.753642105 45.5044211 37.3333333 0.833221053 37.3333333"></polygon>
    </defs>
    <g id="APX-Mobile" stroke="none" stroke-width="1" fill="none" fill-rule="evenodd">
        <g id="Home" transform="translate(-120.000000, -437.000000)">
            <g id="Stim" transform="translate(121.000000, 438.000000)">
                <g transform="translate(0.000000, 0.351351)">
                    <path d="M132,66 C132,102.450454 102.451992,132 66,132 C29.5500583,132 0,102.450454 0,66 C0,29.5500583 29.5500583,0 66,0 C102.451992,0 132,29.5500583 132,66 Z" id="Stroke-3" stroke="#CC0000" stroke-width="2"></path>
                    <path d="M116,65.5 C116,93.3901646 93.3913963,116 65.5,116 C37.6098354,116 15,93.3901646 15,65.5 C15,37.6098354 37.6098354,15 65.5,15 C93.3913963,15 116,37.6098354 116,65.5 Z" id="Stroke-7" stroke="#FFFFFF" stroke-width="1.2" fill-opacity="0.5" fill="#CC0000"></path>
                    <g id="Group-15" transform="translate(52.000000, 30.648649)">
                        <polygon id="Fill-1" fill="#FFFFFF" points="16.6549895 2.06394386 22.086007 42.8830316 2.54298947 42.8830316 7.97302456 2.06394386 5.76544561 1.77018947 0.000392982456 45.1112421 24.6286035 45.1112421 18.8625684 1.77018947"></polygon>
                        <polygon id="Fill-2" fill="#FFFFFF" points="5.97038596 10.2902456 18.6568421 10.2902456 18.6568421 8.06301754 5.97038596 8.06301754"></polygon>
                        <polygon id="Fill-3" fill="#FFFFFF" points="3.40715789 25.1155088 21.2210526 25.1155088 21.2210526 22.8882807 3.40715789 22.8882807"></polygon>
                        <polygon id="Fill-4" fill="#FFFFFF" points="4.38244211 24.3829895 3.61514386 23.6245333 18.2743719 8.79828772 19.0406877 9.5557614"></polygon>
                        <polygon id="Fill-5" fill="#FFFFFF" points="20.2461614 24.382007 5.58791579 9.5557614 6.35521404 8.79730526 21.0134596 23.6245333"></polygon>
                        <polygon id="Fill-6" fill="#FFFFFF" points="0.716210526 43.6174175 1.48252632 44.3748912 21.2515088 24.3819088 20.4842105 23.6234526"></polygon>
                        <polygon id="Fill-7" fill="#FFFFFF" points="23.1446035 44.3764632 3.37562105 24.3824982 4.1429193 23.6240421 23.9119018 43.618007"></polygon>
                        <g id="Group-14" transform="translate(3.929825, 0.000000)">
                            <g id="Group-10">
                                <mask id="mask-2" fill="white">
                                    <use xlink:href="#path-1"></use>
                                </mask>
                                <g id="Clip-9"></g>
                                <path d="M15.1535018,2.41772632 L1.6162386,2.41772632 C0.951115789,2.41772632 0.406835088,1.87344561 0.406835088,1.20930526 C0.406835088,0.544182456 0.951115789,-9.8245614e-05 1.6162386,-9.8245614e-05 L15.1535018,-9.8245614e-05 C15.8186246,-9.8245614e-05 16.3619228,0.544182456 16.3619228,1.20930526 C16.3619228,1.87344561 15.8186246,2.41772632 15.1535018,2.41772632" id="Fill-8" fill="#FFFFFF" mask="url(#mask-2)"></path>
                            </g>
                            <g id="Group-13" transform="translate(5.894737, 44.210526)">
                                <mask id="mask-4" fill="white">
                                    <use xlink:href="#path-3"></use>
                                </mask>
                                <g id="Clip-12"></g>
                                <path d="M45.5045193,19.3996772 L45.5045193,18.4329404 C32.6480982,18.4309754 25.1686596,18.4329404 17.6892211,18.4221333 C17.4278877,18.4221333 17.0575018,18.3789053 16.9258526,18.2089404 C16.4297123,17.5752561 16.011186,16.8796772 15.5307649,16.1565895 C18.3032561,15.3254316 20.9883088,14.5198175 23.6733614,13.7142035 C23.5387649,13.6257825 23.4326596,13.6424842 23.3285193,13.6640982 C20.771186,14.2123088 18.2148351,14.7654316 15.6535719,15.2969404 C15.4374316,15.3421333 15.0670456,15.3165895 14.9737123,15.181993 C14.4667649,14.4471158 14.0246596,13.6680281 13.5383439,12.8683088 C15.069993,12.1442386 16.5358175,11.451607 18.0340632,10.7432561 C17.6558175,9.51027368 17.2913263,8.31953684 16.9258526,7.12978246 C16.9769404,8.03364211 17.0840281,8.92472982 17.2873965,9.79322105 C17.4082386,10.3139228 17.2746246,10.5271158 16.7853614,10.7098526 C15.2468351,11.2875368 13.7279579,11.9172912 12.1403088,12.5509754 C13.2396772,14.509993 14.3066246,16.4100632 15.3922386,18.3425544 L4.2325193,18.3425544 L4.2325193,0.753642105 L0.978624561,0.753642105 L0.978624561,13.4931509 C0.978624561,14.901993 0.9688,16.3098526 0.98157193,17.7186947 C0.99925614,19.7543439 2.33146667,21.2977825 4.32487018,21.5974316 C4.65890526,21.6485193 4.99883509,21.6534316 5.46550175,21.6888 C4.61174737,22.3932211 3.86115088,23.011186 3.08009825,23.6556772 C3.60571228,24.1085895 3.44655439,24.4426246 3.12430877,24.8346246 C2.3373614,25.7915368 1.59462456,26.7828351 0.833221053,27.7593965 C0.867607018,27.7898526 0.902975439,27.8212912 0.937361404,27.8527298 C1.83237895,27.0579228 2.72739649,26.2640982 3.66662456,25.4329404 C4.32585263,26.4723789 4.95462456,27.4656421 5.58339649,28.4579228 C5.61581754,28.4372912 5.65020351,28.4166596 5.68262456,28.3960281 C5.13146667,26.9203789 4.58030877,25.4447298 4.01539649,23.9317474 C5.00276491,23.2685895 5.95574737,22.6015018 6.94115088,21.9864842 C7.23687018,21.8017825 7.62297544,21.6730807 7.96781754,21.6720982 C13.1846596,21.6524491 18.4015018,21.6583439 23.6183439,21.6583439 L24.1763789,21.6583439 C24.1852211,21.699607 24.1940632,21.7408702 24.2029053,21.7821333 C22.5238877,22.5484491 20.8458526,23.3157474 19.1167298,24.1056421 C19.9626246,25.3003088 20.7593965,26.4232561 21.5964491,27.6041684 C18.0488,29.2605895 14.5532211,30.8924491 11.0124491,32.5459228 C12.0951158,34.1699228 13.1502737,35.7516772 14.2054316,37.3334316 C14.2476772,37.3069053 14.2909053,37.278414 14.3331509,37.2518877 C13.4715368,35.7408702 12.6089404,34.2308351 11.7276772,32.6854316 C14.3026947,31.5782035 16.7804491,30.5142035 19.3014316,29.4295719 C19.9262737,30.502414 20.5530807,31.533993 21.1288,32.5920982 C21.3429754,32.9850807 21.5463439,33.0479579 21.9550456,32.8966596 C23.1261333,32.4663439 24.3129404,32.0792561 25.5085895,31.6705544 C25.6834667,31.9456421 25.8347649,32.1814316 25.9850807,32.4172211 C26.0145544,32.4054316 26.0430456,32.3946246 26.0735018,32.3828351 C25.9575719,31.9751158 25.8426246,31.566414 25.709993,31.0928702 C24.3542035,31.4662035 23.054414,31.8248 21.7428351,32.1873263 C21.2309754,31.1351158 20.7515368,30.1487298 20.2514667,29.1210807 C21.1592561,28.7467649 22.035607,28.3862035 22.9483088,28.0118877 C22.1515368,26.8702737 21.4156772,25.8131509 20.6542737,24.7206596 C20.9116772,24.6037474 21.1081684,24.5094316 21.307607,24.4229754 C23.2833263,23.5662737 25.2560982,22.7026947 27.2396772,21.8646596 C27.5520982,21.7320281 27.9126596,21.6524491 28.2506246,21.6514667 C31.9839579,21.6377123 35.7212211,21.6406596 43.9600982,21.6426246 C44.4955368,20.9106947 45.0083789,20.1610807 45.5045193,19.3996772" id="Fill-11" fill="#FFFFFF" mask="url(#mask-4)"></path>
                            </g>
                        </g>
                    </g>
                </g>
            </g>
        </g>
    </g>
</svg>