<?xml version="1.0" encoding="UTF-8"?>
<svg width="40px" height="26px" viewBox="0 0 40 26" version="1.1" xmlns="http://www.w3.org/2000/svg" xmlns:xlink="http://www.w3.org/1999/xlink">
    <!-- Generator: Sketch 53.1 (72631) - https://sketchapp.com -->
    <title>Tank Icon</title>
    <desc>Created with Sketch.</desc>
    <defs>
        <polygon id="path-1" points="5.06329114e-05 0.000202531646 39.8491139 0.000202531646 39.8491139 25.2729114 5.06329114e-05 25.2729114"></polygon>
    </defs>
    <g id="APX-Mobile" stroke="none" stroke-width="1" fill="none" fill-rule="evenodd">
        <g id="Tasks-List" transform="translate(-311.000000, -158.000000)">
            <g id="ContentModule1" transform="translate(5.000000, 79.000000)">
                <g id="Group-2" transform="translate(306.000000, 72.000000)">
                    <g id="Tank-Icon" transform="translate(0.000000, 7.000000)">
                        <mask id="mask-2" fill="white">
                            <use xlink:href="#path-1"></use>
                        </mask>
                        <g id="Clip-2"></g>
                        <path d="M36.8111899,11.1888608 C36.8111899,14.6096203 34.0278987,17.3929114 30.6071392,17.3929114 L9.24156962,17.3929114 C5.82081013,17.3929114 3.03802532,14.6096203 3.03802532,11.1888608 L3.03802532,10.841519 C3.03802532,7.42126582 5.82081013,4.63797468 9.24156962,4.63797468 L30.6071392,4.63797468 C34.0278987,4.63797468 36.8111899,7.42126582 36.8111899,10.841519 L36.8111899,11.1888608 Z M30.6071392,1.60050633 L23.480557,1.60050633 C23.480557,1.59797468 23.4815696,1.59594937 23.4815696,1.59392405 L23.4815696,1.52506329 C23.4815696,0.682531646 22.7980253,0 21.956,0 L17.8932152,0 C17.0506835,0 16.3676456,0.682531646 16.3676456,1.52506329 L16.3676456,1.59392405 C16.3676456,1.59594937 16.3681519,1.59797468 16.3681519,1.60050633 L9.24156962,1.60050633 C4.14536709,1.60050633 5.06329114e-05,5.74582278 5.06329114e-05,10.841519 L5.06329114e-05,11.1888608 C5.06329114e-05,14.5108861 1.76764557,17.4207595 4.40612658,19.0496203 L4.40612658,23.6465823 C4.40612658,24.5412658 5.13777215,25.2729114 6.03296203,25.2729114 L6.32359494,25.2729114 C7.21878481,25.2729114 7.95043038,24.5412658 7.95043038,23.6465823 L7.95043038,20.3301266 C8.37372152,20.3893671 8.80258228,20.4308861 9.24156962,20.4308861 L30.6071392,20.4308861 C31.1701772,20.4308861 31.7185316,20.3721519 32.2542278,20.275443 L32.2542278,23.6465823 C32.2542278,24.5412658 32.9858734,25.2729114 33.8810633,25.2729114 L34.1716962,25.2729114 C35.0668861,25.2729114 35.7985316,24.5412658 35.7985316,23.6465823 L35.7985316,18.8293671 C38.2410633,17.164557 39.8491646,14.361519 39.8491646,11.1888608 L39.8491646,10.841519 C39.8491646,5.74582278 35.7033418,1.60050633 30.6071392,1.60050633 L30.6071392,1.60050633 Z" id="Fill-1" fill="#CC0000" mask="url(#mask-2)"></path>
                    </g>
                </g>
            </g>
        </g>
    </g>
</svg>