<?xml version="1.0" encoding="UTF-8"?>
<svg width="28px" height="28px" viewBox="0 0 28 28" version="1.1" xmlns="http://www.w3.org/2000/svg" xmlns:xlink="http://www.w3.org/1999/xlink">
    <!-- Generator: Sketch 52.5 (67469) - http://www.bohemiancoding.com/sketch -->
    <title>UploadIcon 1</title>
    <desc>Created with Sketch.</desc>
    <g id="Solstice" stroke="none" stroke-width="1" fill="none" fill-rule="evenodd">
        <g id="Solstice-Settings" transform="translate(-549.000000, -198.000000)">
            <g id="Module" transform="translate(520.000000, 103.000000)">
                <g id="Group" transform="translate(30.000000, 95.000000)">
                    <g id="UploadIcon-1">
                        <g id="checkedradio-copy-7" fill="#A8AFB5" fill-rule="nonzero">
                            <path d="M13,27.4956879 C5.54415588,27.4956879 -0.5,21.451532 -0.5,13.9956879 C-0.5,6.5398438 5.54415588,0.495687919 13,0.495687919 C20.4558441,0.495687919 26.5,6.5398438 26.5,13.9956879 C26.5,21.451532 20.4558441,27.4956879 13,27.4956879 Z M13,26.4956879 C19.9035594,26.4956879 25.5,20.8992473 25.5,13.9956879 C25.5,7.09212855 19.9035594,1.49568792 13,1.49568792 C6.09644063,1.49568792 0.5,7.09212855 0.5,13.9956879 C0.5,20.8992473 6.09644063,26.4956879 13,26.4956879 Z" id="radio-1-copy-5"></path>
                        </g>
                        <path d="M13.4234548,5 L8.83314828,12.9564365 L11.9699707,12.9564365 L11.9699707,19.2299721 L15.0301386,19.2299721 L15.0301386,12.9564365 L18.1669611,12.9564365 L13.4235641,5 L13.4234548,5 Z M7,22.1642778 L20,22.1642778 L20,20.3332072 L7,20.3332072 L7,22.1642778 Z" id="Fill-1" fill="#999999"></path>
                    </g>
                </g>
            </g>
        </g>
    </g>
</svg>