<?xml version="1.0" encoding="UTF-8"?>
<svg width="27px" height="26px" viewBox="0 0 27 26" version="1.1" xmlns="http://www.w3.org/2000/svg" xmlns:xlink="http://www.w3.org/1999/xlink">
    <!-- Generator: Sketch 52.5 (67469) - http://www.bohemiancoding.com/sketch -->
    <title>Water Copy</title>
    <desc>Created with Sketch.</desc>
    <g id="Solstice" stroke="none" stroke-width="1" fill="none" fill-rule="evenodd">
        <g id="Assets-Landing" transform="translate(-852.000000, -466.000000)">
            <g id="LocationCard-6" transform="translate(728.000000, 372.000000)">
                <g id="Water-Copy" transform="translate(125.000000, 94.500000)">
                    <path d="M24.9023363,12.4620419 C24.9023363,19.3325738 19.3328772,24.9023363 12.4620419,24.9023363 C5.59151006,24.9023363 0.0217475139,19.3325738 0.0217475139,12.4620419 C0.0217475139,5.59151006 5.59151006,0.0217475139 12.4620419,0.0217475139 C19.3328772,0.0217475139 24.9023363,5.59151006 24.9023363,12.4620419" id="Fill-5" fill="#FFFFFF"></path>
                    <path d="M24.9023363,12.4620419 C24.9023363,19.3325738 19.3328772,24.9023363 12.4620419,24.9023363 C5.59151006,24.9023363 0.0217475139,19.3325738 0.0217475139,12.4620419 C0.0217475139,5.59151006 5.59151006,0.0217475139 12.4620419,0.0217475139 C19.3328772,0.0217475139 24.9023363,5.59151006 24.9023363,12.4620419 Z" id="Stroke-7" stroke="#115F93"></path>
                    <path d="M17.01211,18.65212 C17.2252638,17.8251439 17.3435983,16.9056241 17.3435983,15.9371016 C17.3435983,12.3162174 12.6572484,2.67468581 12.6572484,2.67468581 C12.6572484,2.67468581 18.1608649,12.3162174 18.1608649,15.9371016 C18.1608649,17.1146817 17.9002256,18.2201991 17.4435758,19.1761295 C16.4970514,21.1568671 16.4278713,20.918681 17.01211,18.65212 M8.6466188,14.4513967 C8.60960134,16.4127153 8.93911743,18.1774166 9.36405969,18.903505 C11.4701105,22.5010258 7.64896788,20.9605532 6.84550691,18.9382468 C6.45788554,17.9624423 6.26308874,16.8460017 6.32058717,15.6696353 C6.49642011,12.0534541 12.1974126,2.67787174 12.1974126,2.67787174 C12.1974126,2.67787174 8.71534385,10.8309676 8.6466188,14.4513967 M12.4619964,2.04463041 C12.4619964,2.04463041 5.56916305,12.1796776 5.56916305,15.986256 C5.56916305,19.7935929 8.65511462,22.8795445 12.4619964,22.8795445 C16.2693334,22.8795445 19.3548298,19.7935929 19.3548298,15.986256 C19.3548298,12.1796776 12.4619964,2.04463041 12.4619964,2.04463041" id="Fill-9" fill="#3E89BD"></path>
                </g>
            </g>
        </g>
    </g>
</svg>