<?xml version="1.0" encoding="UTF-8"?>
<svg width="20px" height="20px" viewBox="0 0 20 20" version="1.1" xmlns="http://www.w3.org/2000/svg" xmlns:xlink="http://www.w3.org/1999/xlink">
    <!-- Generator: Sketch 53.1 (72631) - https://sketchapp.com -->
    <title></title>
    <desc>Created with Sketch.</desc>
    <defs>
        <polygon id="path-1" points="0 0.00037037037 19.9999259 0.00037037037 19.9999259 20 0 20"></polygon>
        <polygon id="path-3" points="0 20 20 20 20 0 0 0"></polygon>
    </defs>
    <g id="Solstice" stroke="none" stroke-width="1" fill="none" fill-rule="evenodd">
        <g id="Solstice-Home-Back" transform="translate(-922.000000, -711.000000)">
            <g id="Group-7" transform="translate(922.000000, 711.000000)">
                <g id="Group-3">
                    <mask id="mask-2" fill="white">
                        <use xlink:href="#path-1"></use>
                    </mask>
                    <g id="Clip-2"></g>
                    <path d="M9.99992593,0.741111111 C4.88881481,0.741111111 0.740666667,4.88925926 0.740666667,10.0003704 C0.740666667,15.1107407 4.88881481,19.2596296 9.99992593,19.2596296 C15.111037,19.2596296 19.2591852,15.1107407 19.2591852,10.0003704 C19.2591852,4.88925926 15.111037,0.741111111 9.99992593,0.741111111 M9.99992593,20.0003704 C4.51844444,20.0003704 -7.40740741e-05,15.4811111 -7.40740741e-05,10.0003704 C-7.40740741e-05,4.51888889 4.51844444,0.00037037037 9.99992593,0.00037037037 C15.4814074,0.00037037037 19.9999259,4.51888889 19.9999259,10.0003704 C19.9999259,15.4811111 15.4814074,20.0003704 9.99992593,20.0003704" id="Fill-1" fill="#85B02E" mask="url(#mask-2)"></path>
                </g>
                <mask id="mask-4" fill="white">
                    <use xlink:href="#path-3"></use>
                </mask>
                <g id="Clip-5"></g>
                <polygon id="Fill-4" fill="#85B02E" mask="url(#mask-4)" points="9.32074074 9.01185185 10.6785185 9.01185185 10.6785185 3.58296296 9.32074074 3.58296296"></polygon>
                <path d="M15.4296296,10.3685185 C15.4296296,13.3640741 12.9933333,15.7974074 10,15.7974074 C7.00592593,15.7974074 4.57037037,13.3640741 4.57037037,10.3685185 C4.57037037,8.09962963 5.98148148,6.17740741 7.9637037,5.36925926 L7.9637037,6.86925926 C6.75185185,7.57518519 5.92814815,8.86851852 5.92814815,10.3685185 C5.92814815,12.6137037 7.75481481,14.4403704 10,14.4403704 C12.2451852,14.4403704 14.0718519,12.6137037 14.0718519,10.3685185 C14.0718519,8.87074074 13.2481481,7.57518519 12.0362963,6.86925926 L12.0362963,5.36925926 C14.0192593,6.17740741 15.4296296,8.09962963 15.4296296,10.3685185" id="Fill-6" fill="#85B02E" mask="url(#mask-4)"></path>
            </g>
        </g>
    </g>
</svg>