<?xml version="1.0" encoding="UTF-8"?>
<svg width="26px" height="25px" viewBox="0 0 26 25" version="1.1" xmlns="http://www.w3.org/2000/svg" xmlns:xlink="http://www.w3.org/1999/xlink">
    <!-- Generator: Sketch 53.1 (72631) - https://sketchapp.com -->
    <title>Add Analysis Copy</title>
    <desc>Created with Sketch.</desc>
    <g id="APX-Mobile" stroke="none" stroke-width="1" fill="none" fill-rule="evenodd">
        <g id="Delivery-List" transform="translate(-336.000000, -39.000000)" fill="#FFFFFF">
            <g id="Add-Analysis-Copy" transform="translate(336.000000, 39.000000)">
                <path d="M23.1609057,12.5 C23.1609057,6.62373233 18.3972918,1.8600783 12.520984,1.8600783 C6.64476683,1.8600783 1.88106231,6.62378282 1.88106231,12.5 C1.88106231,18.3762172 6.64476683,23.1399217 12.520984,23.1399217 C18.3972918,23.1399217 23.1609057,18.3762677 23.1609057,12.5 Z M25.020984,12.5 C25.020984,19.403557 19.4245882,25 12.520984,25 C5.61747395,25 0.020984009,19.4035101 0.020984009,12.5 C0.020984009,5.59648994 5.61747395,0 12.520984,0 C19.4245882,0 25.020984,5.59644296 25.020984,12.5 Z" id="Stroke-7" fill-rule="nonzero"></path>
                <polygon id="+" points="11.6895558 5.76923077 13.6915981 5.76923077 13.6915981 11.6895558 19.6119231 11.6895558 19.6119231 13.6915981 13.6915981 13.6915981 13.6915981 19.6119231 11.6895558 19.6119231 11.6895558 13.6915981 5.76923077 13.6915981 5.76923077 11.6895558 11.6895558 11.6895558"></polygon>
            </g>
        </g>
    </g>
</svg>