<?xml version="1.0" encoding="UTF-8"?>
<svg width="60px" height="59px" viewBox="0 0 60 59" version="1.1" xmlns="http://www.w3.org/2000/svg" xmlns:xlink="http://www.w3.org/1999/xlink">
    <!-- Generator: Sketch 52.5 (67469) - http://www.bohemiancoding.com/sketch -->
    <title>microsoft-excel-vector-logo</title>
    <desc>Created with Sketch.</desc>
    <defs>
        <polygon id="path-1" points="0 0.0631538462 59.9999733 0.0631538462 59.9999733 58.6876923 0 58.6876923"></polygon>
    </defs>
    <g id="Solstice" stroke="none" stroke-width="1" fill="none" fill-rule="evenodd">
        <g id="Document-Download" transform="translate(-690.000000, -221.000000)">
            <g id="microsoft-excel-vector-logo" transform="translate(690.000000, 221.000000)">
                <g id="Group-3">
                    <mask id="mask-2" fill="white">
                        <use xlink:href="#path-1"></use>
                    </mask>
                    <g id="Clip-2"></g>
                    <path d="M35.4366923,0.0631538462 L35.4366923,5.517 C42.2608462,5.517 49.0849231,5.53069231 55.9091538,5.49661538 C56.4896923,5.52061538 57.8223846,5.51176923 58.413,5.58523077 C59.5665385,5.72853846 59.92,6.19946154 59.9864615,7.37115385 C60.0206923,7.97292308 59.9754615,9.01430769 59.9995385,9.60061538 C59.9656154,21.4355385 59.9791538,33.2636923 59.9859231,45.0916923 C59.9518462,47.0756154 59.9998462,51.0396154 59.9998462,51.0396154 C60.0060769,51.7254615 59.7826923,52.0893846 59.456,52.2685385 C58.7916154,52.6328462 57.4213846,52.524 56.6387692,52.5566923 C49.5759231,52.5773077 42.5063077,52.5431538 35.4366923,52.5566923 L35.4366923,58.6923077 L0,53.2385385 L0,5.52384615 L35.4366923,0.0631538462" id="Fill-1" fill="#246942" mask="url(#mask-2)"></path>
                </g>
                <path d="M35.4366923,7.56223077 C42.9358462,7.56223077 50.4347692,7.56223077 57.9339231,7.56223077 C57.9339231,21.8786923 57.9339231,36.1950769 57.9339231,50.5114615 C50.4347692,50.5114615 42.9358462,50.5114615 35.4366923,50.5114615 C35.4366923,49.1480769 35.4366923,47.7846154 35.4366923,46.4210769 C37.2568462,46.4210769 39.0703077,46.4210769 40.8906154,46.4210769 C40.8906154,44.8326923 40.8906154,43.2374615 40.8906154,41.649 C39.0703077,41.649 37.2568462,41.649 35.4366923,41.649 C35.4366923,40.7422308 35.4366923,39.8288462 35.4366923,38.9221538 C37.2568462,38.9221538 39.0703077,38.9221538 40.8906154,38.9221538 C40.8906154,37.3335385 40.8906154,35.7383846 40.8906154,34.1498462 C39.0703077,34.1498462 37.2568462,34.1498462 35.4366923,34.1498462 C35.4366923,33.2431538 35.4366923,32.3296923 35.4366923,31.423 C37.2568462,31.423 39.0703077,31.423 40.8906154,31.423 C40.8906154,29.8345385 40.8906154,28.2393077 40.8906154,26.6508462 C39.0703077,26.6508462 37.2568462,26.6508462 35.4366923,26.6508462 C35.4366923,25.7441538 35.4366923,24.8306154 35.4366923,23.9239231 C37.2568462,23.9239231 39.0703077,23.9239231 40.8906154,23.9239231 C40.8906154,22.3354615 40.8906154,20.7401538 40.8906154,19.1517692 C39.0703077,19.1517692 37.2568462,19.1517692 35.4366923,19.1517692 C35.4366923,18.245 35.4366923,17.3315385 35.4366923,16.4247692 C37.2568462,16.4247692 39.0703077,16.4247692 40.8906154,16.4247692 C40.8906154,14.8363846 40.8906154,13.2410769 40.8906154,11.6526154 C39.0703077,11.6526154 37.2568462,11.6526154 35.4366923,11.6526154 C35.4366923,10.2891538 35.4366923,8.92576923 35.4366923,7.56223077" id="Fill-4" fill="#FFFFFE"></path>
                <path d="M43.6174615,11.6526154 C46.8011538,11.6526154 49.9781538,11.6526154 53.1618462,11.6526154 C53.1618462,13.2410769 53.1618462,14.8363846 53.1618462,16.4247692 C49.9781538,16.4247692 46.8011538,16.4247692 43.6174615,16.4247692 C43.6174615,14.8363846 43.6174615,13.2410769 43.6174615,11.6526154" id="Fill-5" fill="#246942"></path>
                <path d="M20.193,18.0405385 C21.7336923,17.9314615 23.2812308,17.836 24.8287692,17.761 C23.0085385,21.4900769 21.1815385,25.2192308 19.3272308,28.9346154 C21.2019231,32.7523846 23.1176154,36.5428462 24.9992308,40.3604615 C23.3562308,40.2650769 21.72,40.1629231 20.0771538,40.0468462 C18.9181538,37.2040769 17.507,34.4567692 16.6752308,31.4843077 C15.7481538,34.2521538 14.4255385,36.8631538 13.362,39.5765385 C11.869,39.5560769 10.376,39.4947692 8.883,39.4333846 C10.6350769,36.0041538 12.3256923,32.5479231 14.1323846,29.1391538 C12.5985385,25.6282308 10.9146154,22.1854615 9.33292308,18.6949231 C10.8327692,18.6063846 12.3326154,18.5176923 13.8324615,18.4359231 C14.8481538,21.1015385 15.9594615,23.733 16.7979231,26.4667692 C17.6978462,23.5693846 19.0409231,20.8424615 20.193,18.0405385" id="Fill-6" fill="#FFFFFE"></path>
                <path d="M43.6174615,19.1517692 C46.8011538,19.1517692 49.9781538,19.1517692 53.1618462,19.1517692 C53.1618462,20.7401538 53.1618462,22.3354615 53.1618462,23.9239231 C49.9781538,23.9239231 46.8011538,23.9239231 43.6174615,23.9239231 C43.6174615,22.3354615 43.6174615,20.7401538 43.6174615,19.1517692" id="Fill-7" fill="#246942"></path>
                <path d="M43.6174615,26.6508462 C46.8011538,26.6508462 49.9781538,26.6508462 53.1618462,26.6508462 C53.1618462,28.2393077 53.1618462,29.8345385 53.1618462,31.423 C49.9781538,31.423 46.8011538,31.423 43.6174615,31.423 C43.6174615,29.8345385 43.6174615,28.2393077 43.6174615,26.6508462" id="Fill-8" fill="#246942"></path>
                <path d="M43.6174615,34.1498462 C46.8011538,34.1498462 49.9781538,34.1498462 53.1618462,34.1498462 C53.1618462,35.7383846 53.1618462,37.3335385 53.1618462,38.9221538 C49.9781538,38.9221538 46.8011538,38.9221538 43.6174615,38.9221538 C43.6174615,37.3335385 43.6174615,35.7383846 43.6174615,34.1498462" id="Fill-9" fill="#246942"></path>
                <path d="M43.6174615,41.649 C46.8011538,41.649 49.9781538,41.649 53.1618462,41.649 C53.1618462,43.2374615 53.1618462,44.8326923 53.1618462,46.4210769 C49.9781538,46.4210769 46.8011538,46.4210769 43.6174615,46.4210769 C43.6174615,44.8326923 43.6174615,43.2374615 43.6174615,41.649" id="Fill-10" fill="#246942"></path>
            </g>
        </g>
    </g>
</svg>