<?xml version="1.0" encoding="UTF-8"?>
<svg width="20px" height="20px" viewBox="0 0 20 20" version="1.1" xmlns="http://www.w3.org/2000/svg" xmlns:xlink="http://www.w3.org/1999/xlink">
    <!-- Generator: Sketch 52.5 (67469) - http://www.bohemiancoding.com/sketch -->
    <title></title>
    <desc>Created with Sketch.</desc>
    <defs>
        <polygon id="path-1" points="0 0 20 0 20 20 0 20"></polygon>
    </defs>
    <g id="Symbols" stroke="none" stroke-width="1" fill="none" fill-rule="evenodd">
        <g id="Search-and-Filter" transform="translate(-496.000000, -11.000000)">
            <g id="SEARCH/Filter">
                <g id="SearchBTN-Copy" transform="translate(444.000000, 0.000000)">
                    <g id="Group-3" transform="translate(52.000000, 11.000000)">
                        <mask id="mask-2" fill="white">
                            <use xlink:href="#path-1"></use>
                        </mask>
                        <g id="Clip-2"></g>
                        <path d="M10.0039634,7.45764973e-05 C13.0160383,7.45764973e-05 16.0281133,-0.000223729492 19.0401882,0.000372882486 C19.6068966,0.000497176649 19.9932096,0.378475724 19.9999378,0.931236722 C20.0023212,1.12734805 19.9361316,1.29601523 19.8125164,1.44404958 C19.7727927,1.49160452 19.7280042,1.53500804 19.6841343,1.5789336 C17.3934667,3.87270779 15.1028985,6.16660627 12.8105674,8.45869005 C12.7470095,8.52222923 12.7202705,8.58425202 12.7203698,8.67486246 C12.7229022,10.9036557 12.7197739,13.1324489 12.7252608,15.3612172 C12.7260304,15.6765266 12.6226495,15.927402 12.4008422,16.1483473 C11.2097765,17.3347848 10.0237259,18.5263183 8.83521739,19.7153411 C8.52522351,20.0254551 8.10978801,20.0857626 7.73233831,19.8786637 C7.44312489,19.7199897 7.29142998,19.4756274 7.28033217,19.1451044 C7.27812254,19.0788804 7.27851978,19.0125571 7.27851978,18.9462834 C7.27844529,15.5326934 7.27787427,12.1190537 7.28097768,8.70546368 C7.28107699,8.59173452 7.2460953,8.51497045 7.16702029,8.43594422 C4.87722165,6.14716666 2.58970713,3.85607723 0.301944328,1.56523638 C-0.0705647394,1.19225446 -0.0998609737,0.73134685 0.222174158,0.315632595 C0.367240172,0.128420728 0.560694628,0.0285379396 0.794170719,0.0063638611 C0.872202977,-0.00101921213 0.951228328,0.000298305989 1.02978196,0.000298305989 C4.02117576,2.48588324e-05 7.01256955,7.45764973e-05 10.0039634,7.45764973e-05" id="Fill-1" fill="#FFFFFF" mask="url(#mask-2)"></path>
                    </g>
                </g>
            </g>
        </g>
    </g>
</svg>