<?xml version="1.0" encoding="UTF-8"?>
<svg width="252px" height="252px" viewBox="0 0 252 252" version="1.1" xmlns="http://www.w3.org/2000/svg" xmlns:xlink="http://www.w3.org/1999/xlink">
    <!-- Generator: Sketch 53.1 (72631) - https://sketchapp.com -->
    <title>Financials KPI</title>
    <desc>Created with Sketch.</desc>
    <defs>
        <polygon id="path-1" points="0.000233870968 0 28.4620968 0 28.4620968 14.1152823 0.000233870968 14.1152823"></polygon>
    </defs>
    <g id="Solstice" stroke="none" stroke-width="1" fill="none" fill-rule="evenodd">
        <g id="KPI-Controls" transform="translate(-424.000000, -265.000000)">
            <g id="Financial" transform="translate(395.000000, 188.000000)">
                <g id="icon" transform="translate(30.000000, 78.000000)">
                    <path d="M250,125 C250,194.034951 194.037864,250 125,250 C55.9660194,250 0,194.034951 0,125 C0,55.9660194 55.9660194,0 125,0 C194.037864,0 250,55.9660194 250,125 Z" id="Stroke-3" stroke="#666666" stroke-width="2" fill="#FFFFFF"></path>
                    <path d="M225,125 C225,180.228049 180.230488,225 125,225 C69.7719512,225 25,180.228049 25,125 C25,69.7719512 69.7719512,25 125,25 C180.230488,25 225,69.7719512 225,125 Z" id="Stroke-7" stroke="#CC0000"></path>
                    <g id="Group-19" transform="translate(53.000000, 88.000000)">
                        <path d="M2.1621371,38.5352702 L32.2227419,46.5254718 L32.2227419,42.532125 C23.2654839,40.2413589 14.3093952,37.9201895 5.3521371,35.6352702 L1.82419355,37.0852702 C0.857137097,37.5705524 0.954193548,38.1973266 2.1621371,38.5352702" id="Fill-1" fill="#43494E"></path>
                        <path d="M1.82407661,29.9421492 C0.857020161,30.4250927 0.954076613,31.0542056 2.16202016,31.3430363 L32.222625,39.376504 L32.222625,35.3878347 C23.2653669,33.0982379 14.3092782,30.7758992 5.35202016,28.4921492 L1.82407661,29.9421492 Z" id="Fill-3" fill="#43494E"></path>
                        <path d="M100.421621,63.3784476 L142.857508,41.9663911 C143.872508,41.4834476 143.727508,40.8543347 142.518395,40.5163911 L139.425452,39.1634476 C131.354565,43.1275605 123.620452,46.9934476 115.549565,50.9084476 L100.71279,58.255504 C97.4245645,59.8984476 97.956621,59.415504 94.3795645,58.4963911 L86.8395645,56.5634476 C81.4640403,55.1976411 76.0931935,53.8318347 70.7492419,52.4683669 L70.7492419,56.8429234 L96.4586774,63.7163911 C97.6186774,64.0063911 99.406621,63.8613911 100.421621,63.3784476" id="Fill-5" fill="#43494E"></path>
                        <path d="M108.865766,21.2239073 L121.23871,24.4115685 C120.166411,25.632375 119.996855,26.7596331 120.099758,27.5875363 C120.257621,28.8527782 121.121774,29.9882218 122.590484,30.9003185 L106.10375,38.5794718 C99.450121,37.5013266 93.8594355,37.9491895 88.0804839,40.0224556 L77.4288306,37.4019315 L70.7494758,40.8398347 L70.7494758,41.6864476 L96.1268145,48.127254 C96.6249597,48.252375 97.1967742,48.3120121 97.782621,48.3120121 C98.8970161,48.3120121 100.057016,48.0968508 100.838145,47.7062863 L142.297621,27.4600766 C143.566371,26.8543508 143.679798,26.0065685 143.634194,25.5551976 C143.587419,25.0862863 143.285726,24.2443508 141.793629,23.8689879 L116.336774,17.3790685 L108.865766,21.2239073 Z" id="Fill-7" fill="#43494E"></path>
                        <path d="M144.692694,49.4317863 C144.64475,48.9710605 144.346565,48.1536815 142.907089,47.7713024 L139.40604,46.1844879 L138.910234,46.4277137 C135.9085,47.9011008 132.95354,49.361625 130.010274,50.8174718 C125.041685,53.2719476 120.107008,55.7112218 115.030839,58.1750524 L100.189387,65.5232782 C97.9652742,66.6353347 97.9641048,66.636504 96.4088629,66.1687621 C95.9516452,66.0307782 95.3926935,65.8623911 94.6700323,65.6776331 L86.7382984,63.644125 C81.3966855,62.2876734 76.0585806,60.9312218 70.7497097,59.5736008 L70.7497097,66.3663831 L96.1749919,73.1638427 C96.6766452,73.2889637 97.249629,73.3497702 97.8378145,73.3497702 C98.9475323,73.3497702 100.11104,73.1357782 100.948298,72.7346895 L143.359629,51.3366653 C144.677492,50.7087218 144.731282,49.7954556 144.692694,49.4317863" id="Fill-9" fill="#43494E"></path>
                        <path d="M142.51898,33.4228508 L139.424867,31.9728508 L139.424867,32.0207944 C131.355149,35.9825685 123.621036,39.849625 115.550149,43.764625 L100.712206,51.1105121 C97.4251492,52.7534556 97.9560363,52.2716815 94.3801492,51.3537379 L86.8401492,49.419625 C81.464625,48.0549879 76.0926089,46.6891815 70.7498266,45.323375 L70.7498266,49.6991008 L96.4580927,56.5725685 C97.6180927,56.8637379 99.4072056,56.7187379 100.422206,56.234625 L142.858093,34.8225685 C143.871923,34.339625 143.726923,33.7128508 142.51898,33.4228508" id="Fill-11" fill="#43494E"></path>
                        <path d="M32.2221573,49.6385282 C28.0791331,48.5790927 23.9349395,47.5149798 19.790746,46.4473589 C15.0735685,45.2323992 10.3575605,44.0186089 5.64155242,42.8153427 L5.26618952,42.7194556 L1.37925403,44.3167944 L1.30207661,44.351875 C0.0765927419,44.9646169 -0.0356653226,45.8030444 0.00760080645,46.2485685 C0.0520362903,46.7128024 0.350221774,47.5570766 1.85985887,47.9792137 L32.2221573,56.0945363 L32.2221573,49.6385282 Z" id="Fill-13" fill="#43494E"></path>
                        <path d="M3.03459274,24.4927218 L32.2216895,31.9029234 L32.2216895,26.1648992 L23.5684637,24.0015927 C24.5729395,22.9632056 25.0056008,21.9224798 24.8839879,20.8548589 C24.7448347,19.6363911 23.8900363,18.578125 22.2856815,17.6508266 L37.9725766,9.64074597 C44.5852782,10.691996 51.6774153,10.0991331 57.5627782,8.00247984 L63.167496,9.43610887 L70.5964073,5.75731855 L48.7002379,0.185342742 C47.2514073,-0.174818548 45.2108831,0.0029233871 43.9397944,0.607479839 L2.46160887,20.8630444 C1.18818145,21.498004 1.14491532,22.420625 1.18467339,22.7878024 C1.22793952,23.1713508 1.49221371,24.108004 3.03459274,24.4927218" id="Fill-15" fill="#43494E"></path>
                        <polygon id="Fill-17" fill="#CA2026" points="77.4267258 8.30335484 37.1576532 28.2408548 37.1576532 57.468879 65.1601935 64.6954919 65.1601935 37.8471048 108.701121 15.4410968"></polygon>
                        <g id="Group-3" transform="translate(57.298387, 15.201613)">
                            <mask id="mask-2" fill="white">
                                <use xlink:href="#path-1"></use>
                            </mask>
                            <g id="Clip-2"></g>
                            <path d="M12.5895081,2.69735081 C15.0241048,1.38065726 18.5181371,0.900052419 22.1501532,1.52214919 L24.9378952,-0.000350806452 L28.2612016,0.912915323 L25.5190645,2.41904435 C26.8579758,2.93356048 27.899871,3.57553629 28.4623306,4.24674597 L24.1906774,5.50964919 C23.7486613,4.85597984 22.7149516,4.230375 21.3514839,3.83630242 C19.4851935,3.29722984 18.0082984,3.360375 17.0833387,3.86553629 C16.0812016,4.411625 16.2425726,4.9682379 17.9170887,6.41589919 C20.0628548,8.30089919 20.1610806,9.7169879 17.4189435,11.2359798 C14.6382177,12.7748508 10.9500726,13.2952137 7.06781452,12.5468266 L4.20874194,14.1161008 L1.02809677,13.0484798 L3.71527419,11.5821089 C2.01152419,10.9108992 0.666766129,10.0362218 0.000233870968,9.13347984 L4.23095968,7.94190726 C4.74664516,8.78618145 6.05281452,9.60239113 7.61741129,10.1040444 C9.64624194,10.7542056 11.6154355,10.755375 12.8736613,10.0642863 C14.2090645,9.32993145 13.8921694,8.58622177 12.3462823,7.28239113 C9.82749194,5.1962621 10.2812016,3.94622177 12.5895081,2.69735081" id="Fill-1" fill="#FEFEFE" mask="url(#mask-2)"></path>
                        </g>
                    </g>
                </g>
            </g>
        </g>
    </g>
</svg>