<?xml version="1.0" encoding="UTF-8"?>
<svg width="30px" height="30px" viewBox="0 0 30 30" version="1.1" xmlns="http://www.w3.org/2000/svg" xmlns:xlink="http://www.w3.org/1999/xlink">
    <!-- Generator: Sketch 53.1 (72631) - https://sketchapp.com -->
    <title>LinkIcon</title>
    <desc>Created with Sketch.</desc>
    <g id="Solstice" stroke="none" stroke-width="1" fill="none" fill-rule="evenodd">
        <g id="Support-Landing" transform="translate(-1327.000000, -204.000000)" fill="#43494E">
            <g id="Links" transform="translate(732.000000, 188.000000)">
                <g id="LinkIcon" transform="translate(595.000000, 16.000000)">
                    <path d="M28.0865339,1.91346608 C25.5352458,-0.637822028 21.3839868,-0.637822028 18.8326987,1.91346608 L12.1734782,8.57268652 C9.62219013,11.1239746 9.62219013,15.2750778 12.1734782,17.8265218 C12.6252916,18.2781792 13.1279125,18.6481706 13.6621712,18.9399245 C14.0605275,18.8545179 14.4395582,18.6579892 14.7482999,18.3490916 C15.2393878,17.8581596 15.4474495,17.1901803 15.3738876,16.5486958 C14.9565174,16.3716485 14.5654862,16.1140261 14.2255742,15.7744258 C12.8059234,14.3544633 12.8059234,12.0444332 14.2255742,10.6247825 L20.8847946,3.96556203 C22.3046013,2.54591124 24.6146313,2.54591124 26.034438,3.96556203 C27.4542446,5.38521282 27.4542446,7.69539875 26.034438,9.11520539 L20.8043753,14.3452681 C21.1997704,15.576962 21.2895408,16.8853349 21.0738424,18.1522513 C21.1943156,18.0481425 21.3130744,17.9407609 21.4273135,17.8265218 L28.0865339,11.1673013 C30.637822,8.61601322 30.637822,4.4647542 28.0865339,1.91346608" id="Path"></path>
                    <path d="M16.3379846,11.0599197 C15.9396283,11.1451704 15.5605976,11.3418549 15.2517001,11.6507525 C14.760768,12.1416845 14.5527064,12.8096638 14.6262682,13.4509925 C15.0436384,13.6281956 15.4346697,13.8856622 15.7744258,14.2255742 C17.1942325,15.645225 17.1942325,17.9554109 15.7744258,19.3752175 L9.11520539,26.034438 C7.6955546,27.4540888 5.38536867,27.4540888 3.96556203,26.034438 C2.54591124,24.6144755 2.54591124,22.3044454 3.96556203,20.8847946 L9.19578058,15.6545761 C8.80038547,14.423038 8.71045919,13.1145092 8.92631344,11.847437 C8.80568442,11.9515458 8.68708147,12.0590833 8.57268652,12.1734782 L1.91346608,18.8326987 C-0.637822028,21.3839868 -0.637822028,25.53509 1.91346608,28.0865339 C4.46491005,30.637822 8.61601322,30.637822 11.1673013,28.0865339 L17.8265218,21.4273135 C20.3778099,18.8760254 20.3778099,14.7247664 17.8265218,12.1734782 C17.3748643,11.7218208 16.8722434,11.3516736 16.3379846,11.0599197" id="Path"></path>
                </g>
            </g>
        </g>
    </g>
</svg>