<?xml version="1.0" encoding="UTF-8"?>
<svg width="29px" height="38px" viewBox="0 0 29 38" version="1.1" xmlns="http://www.w3.org/2000/svg" xmlns:xlink="http://www.w3.org/1999/xlink">
    <!-- Generator: Sketch 52.5 (67469) - http://www.bohemiancoding.com/sketch -->
    <title>pin</title>
    <desc>Created with Sketch.</desc>
    <defs>
        <polygon id="path-1" points="0 0 29 0 29 38 0 38"></polygon>
    </defs>
    <g id="Symbols" stroke="none" stroke-width="1" fill="none" fill-rule="evenodd">
        <g id="HEADER" transform="translate(-1228.000000, -19.000000)">
            <g id="pin" transform="translate(1228.000000, 19.000000)">
                <mask id="mask-2" fill="white">
                    <use xlink:href="#path-1"></use>
                </mask>
                <g id="Clip-2"></g>
                <path d="M14.5,8.61193595 C12.9134026,8.61193595 11.4217605,9.2335486 10.2994457,10.3624425 C9.17764284,11.4913364 8.55979383,12.9920648 8.55979383,14.588327 C8.55979383,16.1845891 9.17764284,17.6853176 10.2997017,18.814469 C11.4217605,19.9431054 12.9134026,20.564718 14.5,20.564718 C16.0868533,20.564718 17.5784954,19.9431054 18.7005543,18.814469 C19.8223572,17.6853176 20.4402062,16.1845891 20.4402062,14.588327 C20.4402062,12.9920648 19.8223572,11.4910789 18.7005543,10.362185 C17.5784954,9.2335486 16.0865974,8.61193595 14.5,8.61193595 M14.5,22.109737 C12.5031243,22.109737 10.6257745,21.3274424 9.21373096,19.9067974 C7.80168747,18.4858949 7.02412935,16.5971092 7.02412935,14.588327 C7.02412935,12.5795448 7.80168747,10.690759 9.21373096,9.26985654 C10.6257745,7.84921157 12.5031243,7.06691694 14.5,7.06691694 C16.4966198,7.06691694 18.3739696,7.84921157 19.786269,9.26985654 C21.1983125,10.6905015 21.9758707,12.5792873 21.9758707,14.588327 C21.9758707,16.5973667 21.1983125,18.4861524 19.786269,19.9067974 C18.3742255,21.3274424 16.4968757,22.109737 14.5,22.109737 M1.89270648,16.9272282 C3.2968157,21.9941181 8.58257286,28.7322035 12.444769,33.654634 C12.957425,34.3084346 13.3623286,34.8607789 13.6873775,35.3047143 C13.9909272,35.7190369 14.3026671,36.1441747 14.5,36.3579023 C14.6975888,36.1441747 15.0093287,35.7190369 15.3126225,35.3047143 C15.6379274,34.8607789 16.042575,34.3084346 16.5554869,33.6548915 C20.3751964,28.7860216 25.6033661,22.1220972 27.0660865,17.0732325 C27.0793956,17.0093718 27.0970558,16.946026 27.119067,16.8844827 C27.3483928,16.0460524 27.4643355,15.2738004 27.4643355,14.588327 C27.4643355,11.1040516 26.1157662,7.82861131 23.6674051,5.36533601 C21.2185321,2.9018032 17.9631794,1.54501901 14.5,1.54501901 C11.0370766,1.54501901 7.78146788,2.9018032 5.33285086,5.36533601 C2.88423384,7.82861131 1.53566448,11.1040516 1.53566448,14.588327 C1.53566448,15.2305399 1.63778617,15.9497462 1.83895822,16.7266333 C1.86173724,16.7917816 1.87965333,16.8589899 1.89270648,16.9272282 M14.5,38 C14.5,38 14.5,38 14.5,38 C13.7544349,38 13.319074,37.4056827 12.4514236,36.2214256 C12.1327732,35.7865028 11.7363158,35.2457461 11.2392724,34.6120308 C7.06712795,29.2940754 1.87479039,22.675729 0.402855983,17.3034404 L0.36318465,17.1556336 C0.122085326,16.2368623 0,15.3729391 0,14.588327 C0,10.6915315 1.50827847,7.02803396 4.24688013,4.27275007 C6.98548179,1.51746617 10.6267982,0 14.5,0 C18.3732018,0 22.0145182,1.51746617 24.7531199,4.27275007 C27.4917215,7.02803396 29,10.691274 29,14.588327 C29,15.4223797 28.8620461,16.3452711 28.5897216,17.3309932 L28.5510741,17.4690149 C27.017969,22.8127207 21.8850105,29.3553611 17.7607276,34.6122883 C17.2636842,35.2457461 16.8674827,35.7867603 16.5488324,36.2214256 C15.6811819,37.4056827 15.2455651,38 14.5,38" id="Fill-1" fill="#FFFFFF" mask="url(#mask-2)"></path>
            </g>
        </g>
    </g>
</svg>