<?xml version="1.0" encoding="utf-8"?>
<!-- Generator: Adobe Illustrator 23.1.1, SVG Export Plug-In . SVG Version: 6.00 Build 0)  -->
<svg version="1.1" id="Layer_1" xmlns="http://www.w3.org/2000/svg" xmlns:xlink="http://www.w3.org/1999/xlink" x="0px" y="0px"
	 viewBox="0 0 22 21" style="enable-background:new 0 0 22 21;" xml:space="preserve">
<style type="text/css">
	.st0{fill:none;}
	.st1{fill:#CAC8C9;}
</style>
<title>Out</title>
<desc>Created with Sketch.</desc>
<g>
	<path class="st0" d="M11,1C6.2,1,2.3,4.5,1.6,9.1h6.9V5.4l9.4,5.4v0l-9.4,5.6v-3.7H1.8c1,4.2,4.8,7.3,9.2,7.3
		c5.2,0,9.5-4.3,9.5-9.5S16.2,1,11,1z"/>
	<path class="st1" d="M11,0C5.2,0,0.5,4.7,0.5,10.5C0.5,16.3,5.2,21,11,21c5.8,0,10.5-4.7,10.5-10.5C21.5,4.7,16.8,0,11,0z M11,20
		c-4.5,0-8.2-3.1-9.2-7.3h6.7v3.7l9.4-5.6v0L8.5,5.4v3.7H1.6C2.3,4.5,6.2,1,11,1c5.2,0,9.5,4.3,9.5,9.5S16.2,20,11,20z"/>
</g>
</svg>
