<?xml version="1.0" encoding="UTF-8"?>
<svg width="55px" height="56px" viewBox="0 0 55 56" version="1.1" xmlns="http://www.w3.org/2000/svg" xmlns:xlink="http://www.w3.org/1999/xlink">
    <!-- Generator: Sketch 52.5 (67469) - http://www.bohemiancoding.com/sketch -->
    <title>adobe-pdf-file-icon-logo-vector</title>
    <desc>Created with Sketch.</desc>
    <g id="Solstice" stroke="none" stroke-width="1" fill="none" fill-rule="evenodd">
        <g id="Document-Download" transform="translate(-687.000000, -224.000000)">
            <g id="adobe-pdf-file-icon-logo-vector" transform="translate(687.000000, 223.996454)">
                <polyline id="XMLID_19_" fill="#949494" points="43.6961858 0.143924779 43.6904912 0.143924779 54.8140221 11.7409425 54.8140221 55.8295265 13.2653186 55.8295265 13.2653186 55.9734513 54.9578009 55.9734513 54.9578009 11.8848673 43.6961858 0.143924779"></polyline>
                <polyline id="XMLID_20_" fill="#F1F1F1" points="43.5524071 0 13.1215398 0 13.1215398 55.8295265 54.8140221 55.8295265 54.8140221 11.7409425 43.5524071 0"></polyline>
                <polygon id="XMLID_39_" fill="#808080" points="12.814854 2.99034513 0.042199115 2.99034513 0.042199115 16.6387168 12.814854 16.6387168 40.2204292 16.6387168 40.2204292 2.99034513"></polygon>
                <rect id="XMLID_30_" fill="#DC1D00" x="0.302256637" y="2.75554867" width="40.1349602" height="13.6579115"></rect>
                <g id="XMLID_1_" transform="translate(10.951327, 5.013274)" fill="#4D4D4D">
                    <path d="M2.27860619,4.63761947 C2.22015044,4.63761947 2.16081858,4.63659735 2.10095133,4.63450442 L2.10095133,1.67910619 L2.48711947,1.67910619 C2.92867699,1.67910619 3.2079115,1.82093805 3.40445133,2.04205752 C3.65141593,2.31997788 3.76969027,2.80986726 3.76969027,3.15787611 C3.76969027,3.65053982 3.76969027,4.09462832 3.32603982,4.41012389 C3.0879823,4.57930973 2.70522124,4.63761947 2.27860619,4.63761947 M2.65713274,0.0525663717 C2.6369823,0.0525663717 2.61712389,0.0527123894 2.59750885,0.053199115 C2.39512832,0.0576283186 2.25709292,0.0595752212 2.18364602,0.0595752212 L0.0453141593,0.0595752212 L0.0453141593,9.66423009 L2.10090265,9.66423009 L2.10090265,6.41251327 L2.55618584,6.43787168 C3.03419912,6.43787168 3.46222566,6.33176549 3.84853982,6.20438938 C4.23470796,6.07701327 4.55852655,5.86470354 4.83445133,5.62275221 C5.11032743,5.38060619 5.36522566,5.06915044 5.50486726,4.71569027 C5.71513274,4.18330973 5.77105752,3.43404425 5.71513274,2.90030088 C5.66115487,2.3850531 5.63934956,1.95337611 5.48749115,1.61373894 C5.33568142,1.27400442 5.14021239,0.998176991 4.90127876,0.785672566 C4.66190708,0.573606195 4.39990265,0.41629646 4.11497345,0.314278761 C3.82984956,0.212504425 3.55621239,0.142367257 3.29420796,0.104159292 C3.05736726,0.0696504425 2.84500885,0.0525663717 2.65713274,0.0525663717" id="XMLID_35_" fill-rule="nonzero"></path>
                    <path d="M9.25246018,7.89473894 C9.18879646,7.89473894 9.12313717,7.89308407 9.05567699,7.89030973 L9.05567699,1.76647345 C9.06438938,1.76647345 9.07315044,1.76647345 9.0819115,1.76647345 C9.50020354,1.76647345 10.0123363,1.76866372 10.2780398,1.98077876 C10.5490973,2.19732301 10.7654469,2.46463274 10.9265044,2.78324336 C11.0872699,3.10156195 11.1939115,3.46485398 11.2095354,3.83452212 C11.2280796,4.27447345 11.2129425,4.62681416 11.2129425,4.93257522 C11.2129425,5.23001327 11.2112389,5.59646903 11.1469912,5.95727876 C11.0825973,6.31828319 10.969823,6.65373451 10.8089602,6.96348673 C10.6479027,7.27372566 10.3545531,7.48394248 10.0832522,7.68330531 C9.85619469,7.85049558 9.57939381,7.89473894 9.25246018,7.89473894 M9.61730973,0.0251150442 C9.39521681,0.0251150442 9.1795,0.0419557522 9.02803097,0.0469690265 C8.77035841,0.0554867257 8.61416814,0.0595752212 8.55887611,0.0595752212 L7.00013717,0.0595752212 L7.00013717,9.66423009 L8.83480088,9.66423009 C9.6439823,9.66423009 10.3293894,9.54751327 10.8903407,9.31388496 C11.4511947,9.0805 11.9042876,8.75342035 12.2490354,8.3330354 C12.5940752,7.91274779 12.8422566,7.41390265 12.9940177,6.83630531 C13.1458761,6.259 13.2216593,5.62635398 13.2216593,4.93841593 C13.2216593,4.04673451 13.2241416,3.36502655 13.0469735,2.68477876 C12.8889823,2.07802655 12.564823,1.57986283 12.2385221,1.21856637 C11.9118319,0.85780531 11.5555487,0.590495575 11.1694292,0.41610177 C10.7830664,0.242243363 10.4174867,0.123141593 10.0727389,0.0596238938 C9.93080973,0.033340708 9.77252655,0.0251150442 9.61730973,0.0251150442" id="XMLID_38_" fill-rule="nonzero"></path>
                    <polyline id="XMLID_64_" points="19.4060442 0.0595752212 14.5481814 0.0595752212 14.5481814 9.66418142 16.6038186 9.66418142 16.6038186 5.84946903 19.1992345 5.84946903 19.1992345 4.06615487 16.6038186 4.06615487 16.6038186 1.84284071 19.4060442 1.84284071 19.4060442 0.0595752212"></polyline>
                </g>
                <path d="M47.2986858,37.7705929 C47.2795088,37.5790177 47.1071106,35.3567743 43.1607389,35.4526106 C39.2143186,35.5483009 38.2564425,35.7973584 38.2564425,35.7973584 C38.2564425,35.7973584 35.3062035,32.8089602 34.2335088,30.4908805 C34.2335088,30.4908805 35.5361327,26.6786504 35.4787478,24.2840088 C35.4212168,21.8892699 34.8464912,20.5100354 33.0074956,20.529115 C31.1683053,20.548292 30.9000708,22.1575044 31.1421195,24.5530221 C31.3591018,26.7021106 32.4710752,29.2264159 32.4710752,29.2264159 C32.4710752,29.2264159 31.6217876,31.8702611 30.4978407,34.5010619 C29.3738938,37.1320088 28.6075929,38.5114381 28.6075929,38.5114381 C28.6075929,38.5114381 24.8081637,39.7821327 23.160646,41.3147832 C21.5131283,42.8471903 20.8436372,44.0247743 21.7110796,45.2036239 C22.4582035,46.2189823 25.0764469,46.4488628 27.4135575,43.3836106 C29.7507655,40.3185044 30.8044292,38.4028496 30.8044292,38.4028496 C30.8044292,38.4028496 34.3713496,37.4257965 35.4805973,37.1576106 C36.5898451,36.8893761 37.9307743,36.6786726 37.9307743,36.6786726 C37.9307743,36.6786726 41.1875531,39.9544823 44.3293186,39.8395664 C47.4710841,39.7246018 47.3179115,37.9620708 47.2986858,37.7705929 Z M22.5284867,44.6863805 C20.5743805,43.5178009 26.6281283,39.9161283 27.7199513,39.8013097 C27.7199513,39.8013097 24.5740973,45.9097168 22.5284867,44.6863805 Z M31.8197876,23.6708805 C31.8197876,21.774354 32.4327212,21.2570619 32.9116593,21.2570619 C33.3905973,21.2570619 33.9270177,21.4870398 33.9461947,23.1345088 C33.9653717,24.7820752 32.9116593,28.0004513 32.9116593,28.0004513 C32.5477345,27.6172522 31.8197876,25.5674558 31.8197876,23.6708805 Z M34.3420973,36.6594956 C32.3819558,37.1384336 31.3981858,37.6365487 31.3981858,37.6365487 C31.3981858,37.6365487 31.3981858,37.6365487 32.2028407,35.8356637 C33.0074956,34.0350221 33.8311327,31.5828496 33.8311327,31.5828496 C34.9423274,33.6517743 37.1454425,36.0847212 37.1454425,36.0847212 C37.1454425,36.0847212 36.3024823,36.1805575 34.3420973,36.6594956 Z M39.0546726,36.4933761 C39.0546726,36.4933761 45.4276637,35.3381814 45.4276637,37.515208 C45.4276637,39.6922345 41.4812434,38.8050796 39.0546726,36.4933761 Z" id="XMLID_28_" fill="#DC1D00" fill-rule="nonzero"></path>
                <polygon id="XMLID_44_" fill="#949494" points="43.3989912 0.153367257 43.3989912 11.8943584 54.6606549 11.8943097"></polygon>
                <polygon id="XMLID_21_" fill="#F1F1F1" points="43.5524071 0 43.5524071 11.7410398 54.8140221 11.7409425"></polygon>
                <g id="XMLID_23_" transform="translate(10.805310, 4.867257)" fill="#FFFEFE">
                    <path d="M2.27130531,4.63031858 C2.21280088,4.63031858 2.1535177,4.62929646 2.09360177,4.62720354 L2.09360177,1.67180531 L2.47976991,1.67180531 C2.92132743,1.67180531 3.20056195,1.81363717 3.39710177,2.03475664 C3.64406637,2.31272566 3.76234071,2.80256637 3.76234071,3.15062389 C3.76234071,3.64323894 3.76234071,4.08737611 3.31869027,4.40282301 C3.08068142,4.57200885 2.69787168,4.63031858 2.27130531,4.63031858 M2.64978319,0.0452654867 C2.62963274,0.0452654867 2.60982301,0.0454115044 2.59015929,0.0458495575 C2.38777876,0.0502787611 2.24979204,0.0522256637 2.17629646,0.0522256637 L0.0379646018,0.0522256637 L0.0379646018,9.65688053 L2.0935531,9.65688053 L2.0935531,6.40516372 L2.54883628,6.43052212 C3.02684956,6.43052212 3.45487611,6.32441593 3.84119027,6.1970885 C4.22735841,6.06971239 4.55117699,5.85735398 4.82710177,5.61540265 C5.1029292,5.37325664 5.35782743,5.06180088 5.49746903,4.70834071 C5.70773451,4.17596018 5.76365929,3.42669469 5.70773451,2.893 C5.65375664,2.37775221 5.63195133,1.94607522 5.48009292,1.60638938 C5.32833186,1.26670354 5.13281416,0.990827434 4.89388053,0.778323009 C4.65450885,0.566256637 4.39250442,0.408946903 4.10757522,0.306977876 C3.82245133,0.20520354 3.54886283,0.135066372 3.28680973,0.0968584071 C3.05006637,0.062300885 2.83770796,0.0452654867 2.64978319,0.0452654867" id="XMLID_43_" fill-rule="nonzero"></path>
                    <path d="M9.24515929,7.88738938 C9.18149558,7.88738938 9.11583628,7.88573451 9.04837611,7.88296018 L9.04837611,1.75917257 C9.05703982,1.75917257 9.06580088,1.75917257 9.07461062,1.75917257 C9.49285398,1.75917257 10.0050354,1.76131416 10.2706903,1.97347788 C10.5417478,2.19002212 10.7580973,2.45733186 10.9191549,2.77594248 C11.0799204,3.09426106 11.1865133,3.4575531 11.2021858,3.82726991 C11.2207301,4.26717257 11.2056416,4.61956195 11.2056416,4.92527434 C11.2056416,5.22271239 11.2039381,5.58916814 11.1396903,5.95002655 C11.0752965,6.31103097 10.9625221,6.6464823 10.801708,6.95623451 C10.6406504,7.26647345 10.3472522,7.47673894 10.076,7.6760531 C9.84889381,7.84314602 9.57204425,7.88738938 9.24515929,7.88738938 M9.60996018,0.0177654867 C9.38786726,0.0177654867 9.17215044,0.0346061947 9.02068142,0.039619469 C8.76305752,0.0481371681 8.60681858,0.0521769912 8.55157522,0.0521769912 L6.99278761,0.0521769912 L6.99278761,9.65683186 L8.82745133,9.65683186 C9.63668142,9.65683186 10.3220398,9.54011504 10.8830398,9.30648673 C11.4438938,9.07310177 11.8969867,8.74602212 12.2417345,8.32563717 C12.5867743,7.90534956 12.8349558,7.40650442 12.9867168,6.82890708 C13.1385752,6.25160177 13.2143584,5.61895575 13.2143584,4.9310177 C13.2143584,4.03933628 13.2168407,3.35767699 13.0396726,2.67738053 C12.8816814,2.07062832 12.5575221,1.5724646 12.2312212,1.21116814 C11.904531,0.85040708 11.5482478,0.583097345 11.1620796,0.40870354 C10.7757168,0.234845133 10.4101372,0.115792035 10.0653894,0.0522256637 C9.92346018,0.0259911504 9.76517699,0.0177654867 9.60996018,0.0177654867" id="XMLID_32_" fill-rule="nonzero"></path>
                    <polyline id="XMLID_24_" points="19.3987434 0.0522256637 14.5408805 0.0522256637 14.5408805 9.65683186 16.5964204 9.65683186 16.5964204 5.84211947 19.1919336 5.84211947 19.1919336 4.05885398 16.5964204 4.05885398 16.5964204 1.83553982 19.3987434 1.83553982 19.3987434 0.0522256637"></polyline>
                </g>
            </g>
        </g>
    </g>
</svg>