<?xml version="1.0" encoding="UTF-8"?>
<svg width="26px" height="26px" viewBox="0 0 26 26" version="1.1" xmlns="http://www.w3.org/2000/svg" xmlns:xlink="http://www.w3.org/1999/xlink">
    <!-- Generator: Sketch 52.5 (67469) - http://www.bohemiancoding.com/sketch -->
    <title>search icon</title>
    <desc>Created with Sketch.</desc>
    <defs>
        <polygon id="path-1" points="0 0 26 0 26 26 0 26"></polygon>
    </defs>
    <g id="Symbols" stroke="none" stroke-width="1" fill="none" fill-rule="evenodd">
        <g id="Search-and-Filter" transform="translate(-451.000000, -8.000000)">
            <g id="SEARCH/Filter">
                <g id="SearchBTN-Copy" transform="translate(444.000000, 0.000000)">
                    <g id="search-icon" transform="translate(7.000000, 8.000000)">
                        <mask id="mask-2" fill="white">
                            <use xlink:href="#path-1"></use>
                        </mask>
                        <g id="Clip-2"></g>
                        <path d="M15.7123997,15.7124783 C12.5944002,18.8307365 7.520333,18.830999 4.40180839,15.7124783 C1.2835463,12.5942202 1.2835463,7.52015943 4.40180839,4.40190128 C5.96093943,2.8427722 8.00915301,2.0630764 10.0571041,2.0630764 C12.1053176,2.0630764 14.1532687,2.8427722 15.7123997,4.40190128 C18.8309243,7.52015943 18.8309243,12.5942202 15.7123997,15.7124783 M17.1720341,2.94226874 C13.2488729,-0.980624983 6.86559772,-0.980887506 2.942174,2.94226874 C-0.980724668,6.86542498 -0.980724668,13.2486921 2.942174,17.1721109 C4.90401712,19.1334265 7.48069185,20.1142155 10.0571041,20.1142155 C12.3100865,20.1142155 14.5630689,19.3644475 16.4049385,17.8643862 L24.2381347,25.6975725 C24.4397532,25.8991908 24.7038525,26 24.9679519,26 C25.2320512,26 25.4961505,25.8991908 25.697769,25.6975725 C26.1007437,25.2945984 26.1007437,24.6411766 25.697769,24.2382025 L17.8645729,16.4050162 C21.0794439,12.4569202 20.8486851,6.61917762 17.1720341,2.94226874" id="Fill-1" fill="#FFFFFF" mask="url(#mask-2)"></path>
                    </g>
                </g>
            </g>
        </g>
    </g>
</svg>