<?xml version="1.0" encoding="UTF-8"?>
<svg width="22px" height="25px" viewBox="0 0 22 25" version="1.1" xmlns="http://www.w3.org/2000/svg" xmlns:xlink="http://www.w3.org/1999/xlink">
    <!-- Generator: Sketch 52.5 (67469) - http://www.bohemiancoding.com/sketch -->
    <title>Group 7</title>
    <desc>Created with Sketch.</desc>
    <defs>
        <polygon id="path-1" points="0 0.182622484 17.4248768 0.182622484 17.4248768 17.3883162 0 17.3883162"></polygon>
        <polygon id="path-3" points="0.108914089 0.115395189 10.3786343 0.115395189 10.3786343 10.5033785 0.108914089 10.5033785"></polygon>
    </defs>
    <g id="Symbols" stroke="none" stroke-width="1" fill="none" fill-rule="evenodd">
        <g id="MainNav" transform="translate(-1382.000000, -8.000000)">
            <g id="Group-7">
                <g transform="translate(1382.000000, 8.000000)">
                    <g id="Group-3" transform="translate(0.000000, 7.562563)">
                        <mask id="mask-2" fill="white">
                            <use xlink:href="#path-1"></use>
                        </mask>
                        <g id="Clip-2"></g>
                        <path d="M8.7124271,13.9735896 C5.84719391,13.9735896 3.52416004,11.6507815 3.52416004,8.78532253 C3.52416004,5.92008935 5.84719391,3.5972813 8.7124271,3.5972813 C11.5776603,3.5972813 13.9004683,5.92008935 13.9004683,8.78532253 C13.9004683,11.6507815 11.5776603,13.9735896 8.7124271,13.9735896 Z M17.4248768,9.81100736 L17.4248768,7.75986352 L15.2639833,7.1232705 C15.1472332,6.76376141 15.1065852,6.63865587 14.9898351,6.27914678 L16.3637378,4.4940216 C15.7368552,3.63160628 15.7847295,3.69732057 15.1580727,2.83467943 L13.0357948,3.58982916 C12.7300314,3.36762003 12.6236691,3.29016298 12.3176799,3.06817968 L12.3800069,0.816279823 C11.3660648,0.486805106 11.443296,0.512097202 10.429354,0.182622484 L9.15616789,2.04091409 L8.2686863,2.04091409 L6.99550025,0.182622484 C5.98155817,0.512097202 6.0587894,0.486805106 5.0446215,0.816279823 L5.10694845,3.06817968 C4.80118508,3.29016298 4.69482278,3.36762003 4.38883358,3.58982916 L2.26678154,2.83467943 C1.64012469,3.69732057 1.6877732,3.63160628 1.06111635,4.4940216 L2.43501915,6.27914678 C2.31826902,6.63865587 2.27762101,6.76376141 2.16064507,7.1232705 L-2.25822288e-05,7.75986352 L-2.25822288e-05,9.81100736 L2.16064507,10.4476004 C2.27762101,10.8071095 2.31826902,10.932215 2.43501915,11.2917241 L1.06111635,13.0766235 C1.6877732,13.9392646 1.64012469,13.8735503 2.26678154,14.7361915 L4.38883358,13.9810417 C4.69482278,14.2032509 4.80118508,14.2804821 5.10694845,14.502917 L5.0446215,16.7543652 C6.0587894,17.08384 5.98155817,17.0589995 6.99550025,17.3884742 L8.2686863,15.5301826 L9.15616789,15.5301826 L10.429354,17.3884742 C11.443296,17.0589995 11.3660648,17.08384 12.3800069,16.7543652 L12.3176799,14.502917 C12.6236691,14.2804821 12.7300314,14.2032509 13.0357948,13.9810417 L15.1580727,14.7361915 C15.7847295,13.8735503 15.7368552,13.9392646 16.3637378,13.0766235 L14.9898351,11.2917241 C15.1065852,10.932215 15.1472332,10.8071095 15.2639833,10.4476004 L17.4248768,9.81100736 Z" id="Fill-1" fill="#FFFFFF" mask="url(#mask-2)"></path>
                    </g>
                    <g id="Group-6" transform="translate(11.516937, 0.110427)">
                        <mask id="mask-4" fill="white">
                            <use xlink:href="#path-3"></use>
                        </mask>
                        <g id="Clip-5"></g>
                        <path d="M7.71528621,7.160757 C6.69276289,8.5256269 4.75724006,8.80316249 3.39237015,7.780865 C2.02727442,6.75834168 1.74973883,4.82281885 2.77226215,3.45794894 C3.79478547,2.09307904 5.7303083,1.81531762 7.0951782,2.83784094 C8.46004811,3.86036426 8.73780952,5.79588709 7.71528621,7.160757 Z M8.84146195,1.52491016 C8.33358763,1.14462543 8.37220324,1.17353068 7.86432892,0.793020128 L6.79009229,1.59514089 C6.57691605,1.52242612 6.50307216,1.49713402 6.28989593,1.42464507 L5.9299352,0.133167403 C5.29537457,0.123908689 5.34370054,0.124586156 4.70913991,0.115327442 L4.31169269,1.39573981 C4.09670987,1.46213157 4.02196269,1.48516544 3.80675405,1.55155719 L2.75645459,0.71827295 C2.2377408,1.08387923 2.27703387,1.05610309 1.75832008,1.42148355 L2.189189,2.69105646 C2.0543731,2.87103682 2.00740206,2.93381541 1.87236033,3.1140216 L0.533008346,3.05734021 C0.328187531,3.65780167 0.343543446,3.61218557 0.138722631,4.21264703 L1.23350908,4.98654001 C1.23034757,5.21145901 1.22921846,5.28981934 1.22583112,5.51473834 L0.108914089,6.25633873 C0.296120766,6.86267158 0.281893962,6.81660383 0.469100638,7.42271085 L1.80980756,7.40532253 C1.93942955,7.58914188 1.98436819,7.65327541 2.11399018,7.83732057 L1.6460864,9.09379578 C2.15418655,9.47408051 2.11534512,9.44517526 2.62321944,9.82568581 L3.69745606,9.02356505 C3.9106323,9.096054 3.98447619,9.1213461 4.19765243,9.19406087 L4.55761316,10.4855385 C5.19217378,10.4947973 5.14384782,10.4941198 5.77840844,10.5033785 L6.17608149,9.22296613 C6.39106431,9.15657437 6.46581149,9.1335405 6.68079431,9.06714875 L7.73109377,9.90020717 C8.25003338,9.53482671 8.21051448,9.56260285 8.72922828,9.19722239 L8.29835935,7.92764948 C8.43340108,7.7474433 8.48014629,7.68489053 8.61518802,7.50468434 L9.95476583,7.56136573 C10.1595866,6.96090427 10.1440049,7.00652037 10.3488257,6.40605891 L9.25403927,5.63216593 C9.25720079,5.40702111 9.2583299,5.3288866 9.26171723,5.1039676 L10.3786343,4.36236721 C10.1914276,3.75603436 10.2056544,3.80210211 10.0184477,3.19576927 L8.67796662,3.21338341 C8.5481188,3.02956406 8.50318017,2.96543054 8.37355817,2.78138537 L8.84146195,1.52491016 Z" id="Fill-4" fill="#FFFFFF" mask="url(#mask-4)"></path>
                    </g>
                </g>
            </g>
        </g>
    </g>
</svg>