<?xml version="1.0" encoding="UTF-8"?>
<svg width="134px" height="134px" viewBox="0 0 134 134" version="1.1" xmlns="http://www.w3.org/2000/svg" xmlns:xlink="http://www.w3.org/1999/xlink">
    <!-- Generator: Sketch 53.1 (72631) - https://sketchapp.com -->
    <title>Inventory</title>
    <desc>Created with Sketch.</desc>
    <g id="APX-Mobile" stroke="none" stroke-width="1" fill="none" fill-rule="evenodd">
        <g id="Delivery-Selection" transform="translate(-121.000000, -61.000000)">
            <g id="Inventory" transform="translate(90.000000, 62.000000)">
                <g transform="translate(32.000000, 0.000000)">
                    <path d="M132,66 C132,102.450454 102.451992,132 66,132 C29.5500583,132 0,102.450454 0,66 C0,29.5500583 29.5500583,0 66,0 C102.451992,0 132,29.5500583 132,66 Z" id="Stroke-3" stroke="#CC0000" stroke-width="2"></path>
                    <path d="M116,65.5 C116,93.3901646 93.3913963,116 65.5,116 C37.6098354,116 15,93.3901646 15,65.5 C15,37.6098354 37.6098354,15 65.5,15 C93.3913963,15 116,37.6098354 116,65.5 Z" id="Stroke-7" stroke="#FFFFFF" stroke-width="1.2" fill-opacity="0.5" fill="#CC0000"></path>
                    <g id="Tank-Icon" transform="translate(43.000000, 53.000000)" fill="#FFFFFF" stroke="#CC0000">
                        <path d="M42.3328684,12.910224 C42.3328684,16.8572541 39.1320835,20.0687439 35.1982101,20.0687439 L10.6278051,20.0687439 C6.69393165,20.0687439 3.49372911,16.8572541 3.49372911,12.910224 L3.49372911,12.509445 C3.49372911,8.56299903 6.69393165,5.35150925 10.6278051,5.35150925 L35.1982101,5.35150925 C39.1320835,5.35150925 42.3328684,8.56299903 42.3328684,12.509445 L42.3328684,12.910224 Z M35.1982101,1.84673807 L27.0026405,1.84673807 C27.0026405,1.84381694 27.0038051,1.84148004 27.0038051,1.83914314 L27.0038051,1.75968841 C27.0038051,0.787536514 26.2177291,0 25.2494,0 L20.5771975,0 C19.6082861,0 18.8227924,0.787536514 18.8227924,1.75968841 L18.8227924,1.83914314 C18.8227924,1.84148004 18.8233747,1.84381694 18.8233747,1.84673807 L10.6278051,1.84673807 C4.76717215,1.84673807 5.82278481e-05,6.62979552 5.82278481e-05,12.509445 L5.82278481e-05,12.910224 C5.82278481e-05,16.7433301 2.03279241,20.1008763 5.06704557,21.9803311 L5.06704557,27.284518 C5.06704557,28.3168452 5.90843797,29.1610516 6.93790633,29.1610516 L7.27213418,29.1610516 C8.30160253,29.1610516 9.14299494,28.3168452 9.14299494,27.284518 L9.14299494,23.4578384 C9.62977975,23.5261928 10.1229696,23.5740993 10.6278051,23.5740993 L35.1982101,23.5740993 C35.8457038,23.5740993 36.4763114,23.5063291 37.092362,23.394742 L37.092362,27.284518 C37.092362,28.3168452 37.9337544,29.1610516 38.9632228,29.1610516 L39.2974506,29.1610516 C40.326919,29.1610516 41.1683114,28.3168452 41.1683114,27.284518 L41.1683114,21.7261928 C43.9772228,19.805258 45.8265392,16.5709834 45.8265392,12.910224 L45.8265392,12.509445 C45.8265392,6.62979552 41.058843,1.84673807 35.1982101,1.84673807 L35.1982101,1.84673807 Z" id="Fill-1"></path>
                    </g>
                </g>
            </g>
        </g>
    </g>
</svg>