<?xml version="1.0" encoding="UTF-8"?>
<svg width="134px" height="134px" viewBox="0 0 134 134" version="1.1" xmlns="http://www.w3.org/2000/svg" xmlns:xlink="http://www.w3.org/1999/xlink">
    <!-- Generator: Sketch 53.1 (72631) - https://sketchapp.com -->
    <title>TASKS</title>
    <desc>Created with Sketch.</desc>
    <defs>
        <polygon id="path-1" points="0.000127131783 0.0220110605 40.9014729 0.0220110605 40.9014729 51.458502 0.000127131783 51.458502"></polygon>
    </defs>
    <g id="APX-Mobile" stroke="none" stroke-width="1" fill="none" fill-rule="evenodd">
        <g id="Home" transform="translate(-120.000000, -61.000000)">
            <g id="Group" transform="translate(121.000000, 62.000000)">
                <g id="Tasks">
                    <g id="TASKS">
                        <path d="M132,66 C132,102.450454 102.451992,132 66,132 C29.5500583,132 0,102.450454 0,66 C0,29.5500583 29.5500583,0 66,0 C102.451992,0 132,29.5500583 132,66 Z" id="Stroke-3" stroke="#CC0000" stroke-width="2"></path>
                        <path d="M116,65.5 C116,93.3901646 93.3913963,116 65.5,116 C37.6098354,116 15,93.3901646 15,65.5 C15,37.6098354 37.6098354,15 65.5,15 C93.3913963,15 116,37.6098354 116,65.5 Z" id="Stroke-7" stroke="#FFFFFF" stroke-width="1.2" fill-opacity="0.5" fill="#CC0000"></path>
                        <g id="tasksIcon" transform="translate(45.000000, 36.000000)">
                            <path d="M23.51502,4.18730462 C23.5158146,4.1473647 23.51502,4.17299544 23.5140665,4.19186469 L23.5148611,4.19186469 L23.5148611,4.18730462 L23.51502,4.18730462 Z" id="Fill-1" fill="#000000"></path>
                            <path d="M18.0882353,4.17824778 L18.0882353,4.17982022 L18.0882353,4.17824778 Z" id="Fill-3" fill="#000000"></path>
                            <g id="Group-7" transform="translate(0.000000, 6.567053)">
                                <mask id="mask-2" fill="white">
                                    <use xlink:href="#path-1"></use>
                                </mask>
                                <g id="Clip-6"></g>
                                <path d="M39.0709023,48.2403532 C39.0709023,48.616565 38.9194566,48.9701853 38.650255,49.2359497 C38.3810535,49.501714 38.0230186,49.651226 37.6419411,49.651226 L3.25962713,49.651226 C2.87854961,49.651226 2.52035581,49.501714 2.25131318,49.2359497 C1.98211163,48.9701853 1.83066589,48.616565 1.83066589,48.2403532 L1.83066589,3.24036383 C1.83066589,2.8639951 1.98211163,2.51037478 2.25131318,2.24461044 C2.52035581,1.97884611 2.87854961,1.82933406 3.25962713,1.82933406 L5.58534419,1.82933406 L34.7895806,1.82933406 L37.6419411,1.82933406 C38.0230186,1.82933406 38.3810535,1.97884611 38.650255,2.24461044 C38.9194566,2.51037478 39.0709023,2.8639951 39.0709023,3.24036383 L39.0709023,48.2403532 Z M39.9446155,0.96661972 C39.3542473,0.383789431 38.5391736,0.0220110605 37.6419411,0.0220110605 L34.7895806,0.0220110605 L5.58534419,0.0220110605 L3.25962713,0.0220110605 C2.36239457,0.0220110605 1.54716202,0.383789431 0.956952713,0.96661972 C0.366584496,1.5496069 0.000127131783,2.35443042 0.000127131783,3.24036383 L0.000127131783,48.2403532 C0.000127131783,49.1261297 0.366584496,49.9309532 0.956952713,50.5139404 C1.54716202,51.0966138 2.36239457,51.458549 3.25962713,51.458549 L37.6419411,51.458549 C38.5391736,51.458549 39.3542473,51.0966138 39.9446155,50.5139404 C40.5349837,49.9309532 40.9016,49.1261297 40.9016,48.2403532 L40.9016,3.24036383 C40.9016,2.35443042 40.5349837,1.5496069 39.9446155,0.96661972 L39.9446155,0.96661972 Z" id="Fill-5" fill="#FFFFFF" mask="url(#mask-2)"></path>
                            </g>
                            <path d="M35.7187275,23.2831894 L17.9430372,23.2831894 C17.6901659,23.2831894 17.4852941,23.5503442 17.4852941,23.8800907 C17.4852941,24.2100444 17.6901659,24.4771991 17.9430372,24.4771991 L35.7187275,24.4771991 C35.9717577,24.4771991 36.1764706,24.2100444 36.1764706,23.8800907 C36.1764706,23.5503442 35.9717577,23.2831894 35.7187275,23.2831894" id="Fill-8" fill="#FFFFFF"></path>
                            <path d="M35.7187275,28.0592283 L17.9430372,28.0592283 C17.6901659,28.0592283 17.4852941,28.326383 17.4852941,28.6561295 C17.4852941,28.9860832 17.6901659,29.253238 17.9430372,29.253238 L35.7187275,29.253238 C35.9717577,29.253238 36.1764706,28.9860832 36.1764706,28.6561295 C36.1764706,28.326383 35.9717577,28.0592283 35.7187275,28.0592283" id="Fill-10" fill="#FFFFFF"></path>
                            <path d="M35.7187275,39.4023206 L17.9430372,39.4023206 C17.6901659,39.4023206 17.4852941,39.6693144 17.4852941,39.9993254 C17.4852941,40.3293364 17.6901659,40.5963303 17.9430372,40.5963303 L35.7187275,40.5963303 C35.9717577,40.5963303 36.1764706,40.3293364 36.1764706,39.9993254 C36.1764706,39.6693144 35.9717577,39.4023206 35.7187275,39.4023206" id="Fill-12" fill="#FFFFFF"></path>
                            <path d="M35.7187275,44.1783594 L17.9430372,44.1783594 C17.6901659,44.1783594 17.4852941,44.4455142 17.4852941,44.7754679 C17.4852941,45.1054216 17.6901659,45.3723691 17.9430372,45.3723691 L35.7187275,45.3723691 C35.9717577,45.3723691 36.1764706,45.1054216 36.1764706,44.7754679 C36.1764706,44.4455142 35.9717577,44.1783594 35.7187275,44.1783594" id="Fill-14" fill="#FFFFFF"></path>
                            <path d="M21.560047,4.05847482 C21.560047,3.56984803 21.085392,3.17369321 20.5,3.17369321 C19.914608,3.17369321 19.439953,3.56984803 19.439953,4.05847482 L19.439953,4.3567814 C19.439953,4.84540819 19.914608,5.24156301 20.5,5.24156301 C21.085392,5.24156301 21.560047,4.84540819 21.560047,4.3567814 L21.560047,4.05847482 Z M9.34994594,3.46201527 L16.2053899,3.46201527 C16.3678673,2.60227175 16.7974072,1.83346412 17.4066188,1.23992312 C18.1932935,0.47388043 19.2801572,0 20.4805974,0 C21.6810375,0 22.7679012,0.47388043 23.5547337,1.23992312 C24.1639452,1.83346412 24.5933274,2.60227175 24.7559626,3.46201527 L31.6502118,3.46201527 C32.1519989,3.46201527 32.5588235,3.85801649 32.5588235,4.34664328 L32.5588235,11.0553155 C32.5588235,11.5439423 32.1519989,11.9400971 31.6502118,11.9400971 L9.34994594,11.9400971 C8.84800106,11.9400971 8.44117647,11.5439423 8.44117647,11.0553155 L8.44117647,4.34664328 C8.44117647,3.85801649 8.84800106,3.46201527 9.34994594,3.46201527 L9.34994594,3.46201527 Z" id="Fill-16" stroke="#FFFFFF" fill="#FFFFFF"></path>
                            <path d="M21.560047,4.25473562 C21.560047,3.74247969 21.085392,3.3271675 20.5,3.3271675 C19.914608,3.3271675 19.439953,3.74247969 19.439953,4.25473562 L19.439953,4.56746779 C19.439953,5.07972372 19.914608,5.4950359 20.5,5.4950359 C21.085392,5.4950359 21.560047,5.07972372 21.560047,4.56746779 L21.560047,4.25473562 Z M9.34994594,3.62943232 L16.2053899,3.62943232 C16.3678673,2.7281131 16.7974072,1.92212726 17.4066188,1.29988365 C18.1932935,0.496796464 19.2801572,0 20.4805974,0 C21.6810375,0 22.7679012,0.496796464 23.5547337,1.29988365 C24.1639452,1.92212726 24.5933274,2.7281131 24.7559626,3.62943232 L31.6502118,3.62943232 C32.1519989,3.62943232 32.5588235,4.04458347 32.5588235,4.5568394 L32.5588235,6.56705343 L8.44117647,6.56705343 L8.44117647,4.5568394 C8.44117647,4.04458347 8.84800106,3.62943232 9.34994594,3.62943232 L9.34994594,3.62943232 Z" id="Fill-18" stroke="#FFFFFF" fill="#FFFFFF"></path>
                            <g id="checkedradio-copy-5" transform="translate(4.373333, 21.110092)" fill="#FFFFFF">
                                <path d="M5.19333333,10.0991698 C2.4275702,10.0991698 0.18547619,7.87915053 0.18547619,5.14061801 C0.18547619,2.40208548 2.4275702,0.182066238 5.19333333,0.182066238 C7.95909646,0.182066238 10.2011905,2.40208548 10.2011905,5.14061801 C10.2011905,7.87915053 7.95909646,10.0991698 5.19333333,10.0991698 Z M5.19333333,9.73186965 C7.75422512,9.73186965 9.8302381,7.67629627 9.8302381,5.14061801 C9.8302381,2.60493974 7.75422512,0.549366369 5.19333333,0.549366369 C2.63244155,0.549366369 0.556428571,2.60493974 0.556428571,5.14061801 C0.556428571,7.67629627 2.63244155,9.73186965 5.19333333,9.73186965 Z" id="radio-1-copy-5" stroke="#FFFFFF" stroke-width="1.2" fill-rule="nonzero"></path>
                                <g id="redcheck" transform="translate(2.225714, 2.938401)">
                                    <polygon id="Path" points="4.87537415 0.128555046 2.24691156 3.5566896 0.805496599 2.1425841 0.127183673 2.87106269 2.33170068 5.01364679 5.63847619 0.728478593"></polygon>
                                </g>
                            </g>
                            <g id="checkedradio-copy-6" transform="translate(4.373333, 36.807339)" fill="#FFFFFF">
                                <path d="M5.19333333,10.0991698 C2.4275702,10.0991698 0.18547619,7.87915053 0.18547619,5.14061801 C0.18547619,2.40208548 2.4275702,0.182066238 5.19333333,0.182066238 C7.95909646,0.182066238 10.2011905,2.40208548 10.2011905,5.14061801 C10.2011905,7.87915053 7.95909646,10.0991698 5.19333333,10.0991698 Z M5.19333333,9.73186965 C7.75422512,9.73186965 9.8302381,7.67629627 9.8302381,5.14061801 C9.8302381,2.60493974 7.75422512,0.549366369 5.19333333,0.549366369 C2.63244155,0.549366369 0.556428571,2.60493974 0.556428571,5.14061801 C0.556428571,7.67629627 2.63244155,9.73186965 5.19333333,9.73186965 Z" id="radio-1-copy-5" stroke="#FFFFFF" stroke-width="1.2" fill-rule="nonzero"></path>
                                <g id="redcheck" transform="translate(2.225714, 2.938401)">
                                    <polygon id="Path" points="4.87537415 0.128555046 2.24691156 3.5566896 0.805496599 2.1425841 0.127183673 2.87106269 2.33170068 5.01364679 5.63847619 0.728478593"></polygon>
                                </g>
                            </g>
                        </g>
                    </g>
                </g>
            </g>
        </g>
    </g>
</svg>